<svg data-name="组 261" xmlns="http://www.w3.org/2000/svg" width="221.566" height="188.166" viewBox="0 0 221.566 188.166">
    <path data-name="路径 783" d="M481.143 283.122c-.254.489-.52.97-.794 1.448-10.5 18.3-34.937 29.663-76.144 23.649-23.4-3.578-33.361 9.545-43.01 22.986-.165.232-.33.464-.5.7-10.1 14.1-20.107 28.23-45.12 23.531-26.516-4.192-42.881-25.722-45.413-48.709-.031-.28-.059-.562-.084-.841-1.423-14.9 2.974-30.334 14.19-41.984a35.889 35.889 0 0 1 26.337-10.655 48.407 48.407 0 0 0 8.933-.662c.651-.115 1.283-.24 1.9-.383 12.659-2.893 18.492-11.493 22.069-21.988.084-.249.168-.5.249-.749 8.215-25.029 4.416-60.16 49.075-54.992 39.963 2.946 69.291 25.1 83.677 50.671.143.257.285.514.425.771a77.978 77.978 0 0 1 8.363 22.726c.09.447.171.894.246 1.342 2.035 11.869.702 23.409-4.399 33.139z" transform="translate(-269.822 -168.185)" style="fill:#ffa975"/>
    <path data-name="路径 784" d="M633.578 334.714a61.2 61.2 0 0 1-9.634 9.2c-13.776 10.565-31.226 16.295-48.44 17.5a96.243 96.243 0 0 1-26.418-1.794 117.249 117.249 0 0 1-25.416-8.92c-7.935-3.7-15.635-7.879-23.517-11.686.084-.249.168-.5.249-.749 8.595 4.137 17.013 8.7 25.708 12.636a109.85 109.85 0 0 0 25.541 8.365 95.9 95.9 0 0 0 26.826 1.051c17.167-1.727 34.63-8.061 47.828-19.392a57.112 57.112 0 0 0 6.848-6.982c.147.257.285.514.425.771z" transform="translate(-426.466 -276.988)" style="fill:#fff"/>
    <path data-name="路径 785" d="M650.338 156.736h-.06a40.336 40.336 0 0 0 0 80.51.92.92 0 0 0 .694-.249.91.91 0 0 0 .29-.67v-78.67a.923.923 0 0 0-.924-.921z" transform="translate(-502.872 -156.473)" style="fill:#2e4565"/>
    <path data-name="路径 786" d="M771.271 223.316a1.188 1.188 0 0 1-.838-.347l-27.39-27.39a1.175 1.175 0 0 1-.346-.836V157.1a1.171 1.171 0 0 1 .373-.861 1.188 1.188 0 0 1 .89-.32 40.6 40.6 0 0 1 28.207 66.99 1.189 1.189 0 0 1-.852.409z" transform="translate(-591.417 -155.914)" style="fill:#2e4565"/>
    <path data-name="路径 787" d="M743.884 331.994a1.192 1.192 0 0 1-.814-.322 1.172 1.172 0 0 1-.373-.862v-33.966a1.183 1.183 0 0 1 2.019-.836l23.9 23.9a1.185 1.185 0 0 1-.044 1.717 40.685 40.685 0 0 1-24.615 10.365z" transform="translate(-591.416 -250.954)" style="fill:#c4d1d4"/>
    <path data-name="路径 788" d="M591.237 408.733a58.874 58.874 0 0 1-15.448 17.553c-13.777 10.565-31.226 16.295-48.44 17.5a96.24 96.24 0 0 1-26.418-1.794 117.247 117.247 0 0 1-25.415-8.916c-8.307-3.877-16.359-8.273-24.63-12.223a134.77 134.77 0 0 0-25.65-9.514c.651-.115 1.283-.24 1.9-.383q.872.226 1.739.47c17.4 4.863 32.749 14.447 49.083 21.851a109.851 109.851 0 0 0 25.541 8.365 95.906 95.906 0 0 0 26.826 1.051c17.167-1.727 34.63-8.061 47.828-19.392a55.747 55.747 0 0 0 12.84-15.906q.132.667.244 1.338z" transform="translate(-375.517 -326.94)" style="fill:#fff"/>
    <path data-name="路径 789" d="M313.387 589.021c17.139 4.791 32.294 14.165 48.359 21.519-.165.232-.33.464-.5.7-.408-.187-.813-.375-1.219-.565-8.307-3.877-16.359-8.273-24.63-12.223a133.938 133.938 0 0 0-26.217-9.654 117.149 117.149 0 0 0-38.468-2.736c-.031-.28-.059-.562-.084-.841a118.029 118.029 0 0 1 42.755 3.8z" transform="translate(-270.373 -447.521)" style="fill:#fff"/>
    <path data-name="路径 801" d="M656.414 535.7h-22.2a1.206 1.206 0 0 1 0-2.413h22.2a1.206 1.206 0 0 1 0 2.413z" transform="translate(-515.419 -413.643)" style="fill:#c4d1d4"/>
    <path data-name="路径 802" d="M606.463 533.069a2.534 2.534 0 1 1 2.537-2.534 2.534 2.534 0 0 1-2.537 2.534z" transform="translate(-494.302 -409.804)" style="fill:#2e4565"/>
    <path data-name="路径 803" d="M656.414 562.138h-22.2a1.206 1.206 0 0 1 0-2.413h22.2a1.206 1.206 0 1 1 0 2.413z" transform="translate(-515.419 -432.841)" style="fill:#c4d1d4"/>
    <path data-name="路径 804" d="M606.463 559.505a2.534 2.534 0 1 1 2.537-2.534 2.534 2.534 0 0 1-2.537 2.534z" transform="translate(-494.302 -429.002)" style="fill:#2e4565"/>
    <path data-name="路径 805" d="M656.414 588.574h-22.2a1.206 1.206 0 0 1 0-2.413h22.2a1.206 1.206 0 1 1 0 2.413z" transform="translate(-515.419 -452.038)" style="fill:#c4d1d4"/>
    <path data-name="路径 806" d="M606.463 585.941a2.534 2.534 0 1 1 2.537-2.534 2.534 2.534 0 0 1-2.537 2.534z" transform="translate(-494.302 -448.199)" style="fill:#2e4565"/>
    <path data-name="路径 807" d="M741.178 419.581h10.712a.277.277 0 0 0 .282-.272v-63.8a.282.282 0 0 0-.564 0v63.528h-10.43a.272.272 0 1 0 0 .543z" transform="translate(-590.192 -291.471)" style="fill:#3f3d56"/>
    <path data-name="路径 808" d="M876.918 205.4a3.634 3.634 0 1 1 3.33-3.914 3.634 3.634 0 0 1-3.33 3.914zm-.045-.557a3.075 3.075 0 1 0-3.311-2.818 3.075 3.075 0 0 0 3.311 2.818z" transform="translate(-680.029 -184.632)" style="fill:#c4d1d4"/>
    <circle data-name="椭圆 67" cx="2.236" cy="2.236" transform="translate(207.165 6.969)" style="fill:#c4d1d4" r="2.236"/>
    <circle data-name="椭圆 68" cx="1.175" cy="1.175" transform="translate(219.217 1.006)" style="fill:#c4d1d4" r="1.175"/>
    <path data-name="路径 809" d="M817.727 432.391a3.634 3.634 0 1 1-1.028-5.035 3.638 3.638 0 0 1 1.028 5.035zm-5.6-3.7a3.074 3.074 0 1 0 4.26-.87 3.078 3.078 0 0 0-4.26.87z" transform="translate(-637.91 -340.108)" style="fill:#c4d1d4"/>
    <circle data-name="椭圆 69" cx="2.236" cy="2.236" transform="translate(181.933 101.174)" style="fill:#c4d1d4" r="2.236"/>
    <circle data-name="椭圆 70" cx="1.175" cy="1.175" transform="translate(189.232 113.692)" style="fill:#c4d1d4" r="1.175"/>
    <path data-name="路径 810" d="M549.07 242.457a3.634 3.634 0 1 1 4.871 1.637 3.638 3.638 0 0 1-4.871-1.637zm6.007-2.985a3.075 3.075 0 1 0-1.385 4.122 3.078 3.078 0 0 0 1.385-4.121z" transform="translate(-459.476 -211.199)" style="fill:#c4d1d4"/>
    <circle data-name="椭圆 71" cx="2.236" cy="2.236" transform="translate(75.55 27.203)" style="fill:#c4d1d4" r="2.236"/>
    <circle data-name="椭圆 72" cx="1.175" cy="1.175" transform="translate(63.572 27.911)" style="fill:#c4d1d4" r="1.175"/>
</svg>
