<svg data-name="组 262" xmlns="http://www.w3.org/2000/svg" width="221.566" height="147.412" viewBox="0 0 221.566 147.412">
    <path data-name="矩形 183" transform="translate(4.296 142.631)" style="fill:#2e4565" d="M0 0h213.08v.459H0z"/>
    <path data-name="矩形 184" transform="rotate(-67.078 55.57 14.168)" style="fill:#2e4565" d="M0 0h.459v213.08H0z"/>
    <path data-name="矩形 185" transform="translate(4.296 59.371)" style="fill:#2e4565" d="M0 0h213.08v.459H0z"/>
    <path data-name="路径 811" d="M444.048 198.5a69.688 69.688 0 0 1-20.281 49.357q-1.068 1.074-2.183 2.1-1.344 1.24-2.757 2.4c-.18.149-.359.3-.541.441a67.887 67.887 0 0 1-12.022 7.8c-.253.128-.506.255-.762.381-.4.2-.814.394-1.222.584a67.332 67.332 0 0 1-48.306 3.278c-27.928-8.668-48.243-35.09-48.243-66.341 0-38.3 30.515-69.348 68.158-69.348s68.159 31.048 68.159 69.348z" transform="translate(-259.764 -129.152)" style="fill:#ffa975"/>
    <path data-name="路径 1922" d="M0 29.369s8.913 52.583 19.963 0 20.773 0 20.773 0 9.007 51.665 19.452 0 15.847-24.332 20.96 0 14.894 34.356 21.529 0c7.34-39.278 15.762-25.65 21.151 0s10.313 36.329 19.828 0" transform="rotate(-30 170.092 -31.288)" style="fill:none;stroke:#f2e7ce;stroke-linecap:round"/>
    <g data-name="组 264">
        <path data-name="路径 812" d="M592.405 313.43h.039l-.153-.328a9.06 9.06 0 0 0-.626-1.346l-4.476-9.618a1.773 1.773 0 0 0-1.64-1.014l-5.668.092a1.766 1.766 0 0 0-1.65 1.185l-3.563 10.475a9.006 9.006 0 0 0-.3.9l-.121.356h.028a9.126 9.126 0 0 0 4.053 9.834 9.579 9.579 0 0 0 10.826-.415 9.1 9.1 0 0 0 3.251-10.121z" transform="translate(-466.924 -265.606)" style="fill:#2e4565"/>
        <path data-name="矩形 186" transform="rotate(-79.634 86.852 -41.61)" style="fill:#ffa975" d="M0 0h12.784v.264H0z"/>
        <path data-name="矩形 187" transform="rotate(-12.264 238.81 -524.974)" style="fill:#ffa975" d="M0 0h.264v12.784H0z"/>
        <path data-name="路径 813" d="m606.863 270.083 9.367-.156a.264.264 0 0 1 .009.528l-9.367.156a.264.264 0 0 1-.009-.528z" transform="translate(-495.732 -240.634)" style="fill:#2e4565"/>
        <path data-name="路径 814" d="m607.359 280 9.367-.156a.264.264 0 0 1 .009.528l-9.367.156a.264.264 0 1 1-.009-.528z" transform="translate(-496.129 -248.572)" style="fill:#2e4565"/>
        <path data-name="路径 815" d="m607.855 289.912 9.367-.156a.264.264 0 0 1 .009.528l-9.367.156a.264.264 0 1 1-.009-.528z" transform="translate(-496.526 -256.508)" style="fill:#2e4565"/>
        <path data-name="路径 816" d="M617.878 260.881c-1.858.031-3.347 1.092-3.326 2.369l6.729-.112c-.021-1.277-1.545-2.288-3.403-2.257z" transform="translate(-502.095 -233.393)" style="fill:#2e4565"/>
        <path data-name="路径 817" d="M614.473 389.614a1.625 1.625 0 0 1 .987.422c.07.058.138.118.207.179a2.06 2.06 0 0 0 .777.509c.645.176 1.281-.334 1.818-.856l.184.189c-.591.574-1.3 1.132-2.072.921a2.286 2.286 0 0 1-.883-.566 10.273 10.273 0 0 0-.2-.173 1.127 1.127 0 0 0-1.025-.32 1.285 1.285 0 0 0-.411.317 2.46 2.46 0 0 1-.285.257 1.293 1.293 0 0 1-1.432.043 2.559 2.559 0 0 1-.224-.168.657.657 0 0 0-1.068.057 1.365 1.365 0 0 1-.747.371h-.029c-.526.009-.859-.517-1.066-.917l.235-.121c.28.544.551.791.846.773a1.16 1.16 0 0 0 .6-.315.9.9 0 0 1 1.4-.054 2.327 2.327 0 0 0 .2.151 1.037 1.037 0 0 0 1.134-.034 2.233 2.233 0 0 0 .254-.23 1.5 1.5 0 0 1 .5-.376.869.869 0 0 1 .3-.059z" transform="translate(-497.654 -336.445)" style="fill:#ffa975"/>
        <path data-name="矩形 188" transform="translate(115.806 .157)" style="fill:#2e4565" d="M0 0h.274v27.32H0z"/>
    </g>
    <path data-name="路径 827" d="M758.179 414.036s-.685 3.151 3.6 4.412z" transform="translate(-610.855 -352.857)" style="fill:#ffa975"/>
    <path data-name="路径 836" d="M836.769 444.085s-.685 3.151 3.6 4.412z" transform="translate(-671.419 -376.013)" style="fill:#ffa975"/>
    <g data-name="组 265" transform="translate(92.204 72.484)">
        <path data-name="路径 837" d="m392.656 491.027-11 2.665-.036.009-1.2 1.083-.344.311-.738-.134-1.306-.236.91-3.072.171-5.86-.626-3.584 3.47-2.389s6.773-.399 10.699 11.207z" transform="translate(-377.437 -479.818)" style="fill:#c4d1d4"/>
        <path data-name="路径 838" d="M381.655 493.7c-.149.318.163.108-.007.435l-1.593.512-.713.321-1.306-.236.91-3.072.171-5.86-.626-3.584 3.47-2.389s3.724 5.273-.306 13.873z" transform="translate(-377.437 -479.824)" style="opacity:.1"/>
        <path data-name="路径 839" d="M412.562 492.667s-14.45 6.713-20.309 7.737-5.348 6.884-5.348 6.884l32.825-5.12s-1.138-5.291-7.168-9.501z" transform="translate(-384.373 -489.878)" style="fill:#c4d1d4"/>
        <path data-name="路径 841" d="M423.326 558.223c-12.8-2.844-24.718 3.044-24.718 3.044l-.032-.029-4.747-4.238-18.546-30.266 4.523.029c12.573-7.51 30.265-6.486 30.265-6.486 7.623 8.648 13.255 37.946 13.255 37.946z" transform="translate(-375.283 -511.458)" style="fill:#2e4565"/>
        <path data-name="路径 842" d="m398.575 584.7-4.746-4.238-18.546-30.265 4.523.028s18.026 23.804 18.769 34.475z" transform="translate(-375.283 -534.916)" style="opacity:.1"/>
        <ellipse data-name="椭圆 78" cx="7.339" cy="4.665" rx="7.339" ry="4.665" transform="rotate(-17.052 72.505 -42.411)" style="fill:#c4d1d4"/>
    </g>
    <circle data-name="椭圆 79" cx="4.358" cy="4.358" transform="translate(0 54.978)" style="fill:#2e4565" r="4.358"/>
    <circle data-name="椭圆 80" cx="4.358" cy="4.358" transform="translate(212.85 138.696)" style="fill:#2e4565" r="4.358"/>
    <circle data-name="椭圆 81" cx="3.44" cy="3.44" transform="translate(19.955 56.354)" style="fill:#ffa975" r="3.44"/>
    <circle data-name="椭圆 82" cx="3.44" cy="3.44" transform="translate(213.768 56.354)" style="fill:#ffa975" r="3.44"/>
    <circle data-name="椭圆 83" cx="3.44" cy="3.44" transform="translate(.917 139.155)" style="fill:#ffa975" r="3.44"/>
</svg>
