<svg data-name="组 301" xmlns="http://www.w3.org/2000/svg" width="221.567" height="165.135" viewBox="0 0 221.567 165.135">
    <path data-name="路径 1856" d="M288.389 175.369c-.04.234-.079.469-.123.7a86.249 86.249 0 0 1-7.178 22.734q-.17.351-.345.7a64.972 64.972 0 0 1-8.088 12.473 25.882 25.882 0 0 1-5.809 5.452c-3.117 1.987-6.761 2.795-10.343 3.456-3.722.688-7.492 1.255-11.253 1.883q-2 .326-3.975.684c-3.634.657-7.24 1.416-10.761 2.423a55.938 55.938 0 0 0-12.552 5.163q-.477.272-.944.559c-.312.188-.628.381-.931.577s-.609.391-.91.59l-.464.314c-.153.1-.3.209-.454.31-.448.305-.889.628-1.331.937l-.017.013q-.436.314-.868.628c-1.63 1.207-3.224 2.471-4.812 3.738l-1 .8-1.552 1.228c-.3.241-.611.479-.916.718-.222.174-.441.347-.667.519a90.466 90.466 0 0 1-3.448 2.542c-.278.195-.561.389-.837.579a44.12 44.12 0 0 1-7.435 4.1l-.033.015a29.5 29.5 0 0 1-3.95 1.362 23.649 23.649 0 0 1-2.326.5 20.56 20.56 0 0 1-6.307.109c-4.119-.584-7.979-2.51-12.088-3.155-8.477-1.316-16.709 2.929-24.686 6.261q-2.929 1.226-5.922 2.3-1.983.715-3.985 1.362a125.474 125.474 0 0 1-25.009 5.357 57.78 57.78 0 0 1-10.617.287 35.872 35.872 0 0 1-3.975-.517 22.942 22.942 0 0 1-12.006-5.858 28.124 28.124 0 0 1-6.266-9.747q-.906-2.182-1.6-4.464a49.787 49.787 0 0 1-1.625-7.286 33.847 33.847 0 0 1-.209-1.674q-.163-1.437-.243-2.887a50 50 0 0 1 1.487-15.272c1.425-5.521 3.8-10.807 4.847-16.38.044-.234.084-.469.123-.7q.209-1.255.318-2.556c.527-6.816-1.513-13.487-3.123-20.169-.056-.234-.113-.469-.167-.7q-.261-1.111-.5-2.224a56.242 56.242 0 0 1-.575-21.682c.042-.234.09-.471.138-.7a35.071 35.071 0 0 1 4.887-12.224 42.36 42.36 0 0 1 9.2-9.738q2.542-2.029 5.257-3.8 1.952-1.268 3.975-2.4a66.249 66.249 0 0 1 35.623-8.368q.977.05 1.95.134 1.021.088 2.036.209c7.914.914 15.615 3.18 23.269 5.659q3.847 1.255 7.682 2.51 1.707.556 3.412 1.1c5.575 1.759 11.242 3.347 16.962 4.544q1.989.418 3.975.764a93.949 93.949 0 0 0 13.931 1.435q2.72.067 5.439-.056 1.374-.063 2.751-.184c9.479-.812 18.619-3.533 27.8-6.09a475.88 475.88 0 0 1 3.975-1.094c1.745-.469 3.492-.923 5.245-1.341 10.916-2.621 20.644-1.115 30.792 4.291a15.065 15.065 0 0 1 6.025 5c1.423 2.293 1.768 5.132 2.031 7.864.372 3.887.628 7.828.709 11.786 0 .234 0 .469.015.7a125.4 125.4 0 0 1-1.629 23.897z" transform="translate(-70.452 -101.843)" style="fill:#ffa975"/>
    <path data-name="路径 1857" d="M225.387 199.12h-.713v.7h.808zm-8.086 0a.046.046 0 0 0 0 .017l-.063.582v.1h6.192v-.042l.441-.661zm-16.558 0v-22.734h7.113a4.566 4.566 0 0 0-.232-.184l-.1-.08c-.044-.036-.088-.069-.134-.1s-.155-.111-.236-.165-.132-.09-.209-.134l-.048-.031h-6.148v-1.245l-.165.079-.176.1h-.013l-.038.023-.109.071a2.095 2.095 0 0 0-.111.071c-.109.073-.209.153-.324.234l-.1.084c-.071.054-.138.111-.209.167-.278.228-.552.467-.837.686l-.209.163a5.408 5.408 0 0 1-.473.31 2.255 2.255 0 0 1-.209.115l-.117.054-.107.046a4.444 4.444 0 0 1-.778.247v22.223H186.1a.321.321 0 0 0 .021.073c.059.209.117.418.174.628h10.477v24.37h.163l.186.013.339.025.548.054.247.029.272.033h.04c.157.021.316.046.477.071l.1.017.23.038.331.059.793-.042.109.023a.633.633 0 0 1 .134.027v-24.715h16.487v-.1l.063-.582a.046.046 0 0 1 0-.017zm24.644 0h-.713v.7h.808zm-8.531 0-.071.7h6.889l.469-.7zm-16.108 0v-22.734h7.113a4.566 4.566 0 0 0-.232-.184l-.1-.08c-.044-.036-.088-.069-.134-.1s-.155-.111-.236-.165-.132-.09-.209-.134l-.048-.031h-6.153v-1.245l-.165.079-.176.1h-.013l-.038.023-.109.071a2.095 2.095 0 0 0-.111.071c-.109.073-.209.153-.324.234l-.1.084c-.071.054-.138.111-.209.167-.278.228-.552.467-.837.686l-.209.163a5.408 5.408 0 0 1-.473.31 2.255 2.255 0 0 1-.209.115l-.117.054-.107.046a4.444 4.444 0 0 1-.778.247v22.223H186.1a.321.321 0 0 0 .021.073c.059.209.119.418.176.628h10.475v24.368l.163.01.186.013.339.025.548.054.247.029.272.033h.04c.157.021.316.046.477.071l.1.017.23.038.331.059.793-.042.109.023a.634.634 0 0 1 .134.027v-24.723h16.048l.075-.7zm53.9-47.342h44.817c0-.234 0-.469-.015-.7h-44.8v-27.6c-1.331.356-2.659.724-3.975 1.094v26.508h-48.743l-.123-.134.186-.209 18.129-19.9q-2.72.126-5.439.056l-13.941 15.293v-16.724q-2-.345-3.975-.764v16.715l-20.382-22.357c-2.559-.837-5.117-1.688-7.682-2.51l27.7 30.395-.123.134h-50.85v-36.192q-1.017-.115-2.036-.209-.973-.086-1.95-.134v36.535h-35.619v-28.159q-2.027 1.13-3.975 2.4v25.759H82.478c-.048.232-.1.469-.138.7h19.5v23.905H83.419c.054.234.111.469.167.7h18.257v22.74H86.386c-.04.234-.079.469-.123.7h15.581v63.566a35.864 35.864 0 0 0 3.975.517v-64.08h35.631v58.447q2-.651 3.985-1.362v-57.085h51.325v51.066a29.493 29.493 0 0 0 3.95-1.362l.033-.015v-49.689h49.919v23.947q1.985-.358 3.975-.684v-23.263h35.5q.176-.351.345-.7H254.65v-22.737h43.018c.044-.234.084-.469.123-.7H254.65zm-148.821 0h35.623v23.905h-35.623zm0 47.342v-22.734h35.623v22.734zm39.608-47.342h51.325v23.905h-51.325zm0 47.342v-22.734h51.325v22.734zm105.228 0h-49.92v-22.734h49.919zm0-23.43h-49.92v-23.272l.7-.64h49.219zM217.3 199.12a.046.046 0 0 0 0 .017l-.063.582v.1h6.192v-.042l.441-.661zm8.086 0h-.713v.7h.808zm-24.644 0v-22.734h7.113a4.566 4.566 0 0 0-.232-.184l-.1-.08c-.044-.036-.088-.069-.134-.1s-.155-.111-.236-.165-.132-.09-.209-.134l-.048-.031h-6.15v-1.245l-.165.079-.176.1h-.013l-.038.023-.109.071a2.095 2.095 0 0 0-.111.071c-.109.073-.209.153-.324.234l-.1.084c-.071.054-.138.111-.209.167-.278.228-.552.467-.837.686l-.209.163a5.408 5.408 0 0 1-.473.31 2.255 2.255 0 0 1-.209.115l-.117.054-.107.046a4.444 4.444 0 0 1-.778.247v22.223H186.1a.321.321 0 0 0 .021.073c.059.209.117.418.174.628h10.477v24.37h.163l.186.013.339.025.548.054.247.029.272.033h.04c.157.021.316.046.477.071l.1.017.23.038.331.059.793-.042.109.023a.633.633 0 0 1 .134.027v-24.715h16.487v-.1l.063-.582a.046.046 0 0 1 0-.017z" transform="translate(-79.853 -102.157)" style="fill:#f2e7ce;opacity:.5"/>
    <path data-name="路径 1858" d="M271.5 208.214h.318a.762.762 0 0 1-.379-.613c0-.485.594-.881 1.32-.881h9.236c.726 0 1.32.4 1.32.881 0 .483-.594.881-1.32.881h-.308a.763.763 0 0 1 .377.613c0 .418-.431.762-1.008.856h2.659c.724 0 1.318.4 1.318.881s-.594.879-1.318.879h-9.247c-.724 0-1.318-.4-1.318-.879 0-.418.431-.762 1.008-.856H271.5c-.724 0-1.318-.4-1.318-.881s.588-.881 1.318-.881z" transform="translate(-228.397 -175.053)" style="opacity:.1;fill:#ffa975"/>
    <path data-name="路径 1859" d="M750.018 248.284h.31a.764.764 0 0 1-.379-.615c0-.483.594-.879 1.32-.879h9.236c.726 0 1.32.4 1.32.879 0 .485-.594.881-1.32.881h-.305a.766.766 0 0 1 .377.615c0 .418-.431.759-1.008.854h2.659c.724 0 1.318.4 1.318.881s-.594.881-1.318.881h-9.234c-.724 0-1.318-.4-1.318-.881 0-.418.431-.762 1.008-.854h-2.663c-.724 0-1.318-.4-1.318-.881s.597-.881 1.315-.881z" transform="translate(-606.81 -206.74)" style="opacity:.1;fill:#ffa975"/>
    <path data-name="路径 1860" d="M203.768 419.746h.31a.766.766 0 0 1-.377-.615c0-.483.592-.881 1.318-.881h9.236c.726 0 1.32.4 1.32.881 0 .485-.594.881-1.32.881h-.308a.766.766 0 0 1 .377.615c0 .418-.431.759-1.008.854h2.659c.726 0 1.318.4 1.318.881s-.592.881-1.318.881h-9.238c-.724 0-1.318-.4-1.318-.881 0-.418.433-.762 1.008-.856h-2.659c-.724 0-1.318-.4-1.318-.879s.594-.881 1.318-.881z" transform="translate(-174.836 -342.33)" style="opacity:.1;fill:#ffa975"/>
    <path data-name="路径 1861" d="m663.079 713.44-1.552 1.228c-.3.241-.611.479-.916.718-.222.174-.441.347-.667.519a90.466 90.466 0 0 1-3.448 2.542c-.278.195-.561.389-.837.579a44.106 44.106 0 0 1-7.435 4.1l-.033.015v-9.7z" transform="translate(-527.327 -575.766)" style="fill:#ffa975"/>
    <path data-name="路径 1867" d="M204.96 694.682c-.222.174-.441.347-.667.519a90.466 90.466 0 0 1-3.448 2.542c-.278.195-.561.389-.837.58h-66.735l-19.744-.707-15.878-.134-3.975-.209-19.832-1.046a49.792 49.792 0 0 1-1.634-7.293 33.847 33.847 0 0 1-.209-1.674l21.667 1.2 3.975.224 35.623 1.987 3.985.222 51.325 2.866 3.95.222h.033z" transform="translate(-71.676 -555.063)" style="fill:#2e4565"/>
    <path data-name="路径 1868" d="M230.807 628.781a55.941 55.941 0 0 0-12.552 5.163c-.316.182-.628.368-.943.559s-.628.381-.931.577-.609.391-.91.59l-.464.314-.454.31c-.448.308-.889.628-1.331.937l-.017.013-.868.628c-1.63 1.207-3.224 2.471-4.812 3.738q-.5.4-1.006.8l-1.548 1.228c-.3.241-.611.479-.916.718-.222.174-.441.347-.667.519l-11.715-.559h-.033l-3.95-.184-51.349-2.432-3.985-.19-35.623-1.692-3.975-.19-21.466-1.01a33.698 33.698 0 0 1-.209-1.674q-.163-1.437-.243-2.887l21.916-7.74 3.975-1.408 3.611-1.276 6.579.343 15.207.78 10.234.538 3.985.209 2.546.134.609.033 21.426 1.119.226.015 9.56.5h.172l.956.048 3.259.172 4.075.209 1.343.071.253.015 1.9.1.542.027 1.814.1.722.04h.174l1.7.09 2.628.138h.013l.816.042h.088l.487.027 1.2.063 1.046.054h.01l1.174.061h.019l.889.048.682.036 2.42.128.435.023h.151l.209.013.709.038.318.017 2.469.128h.226l3.644-.031h.025l13.855-.113h1.37l4.46-.036h.665z" transform="translate(-70.759 -504.745)" style="fill:#c4d1d4"/>
    <path data-name="路径 1869" d="m387.344 641.6 1.752 9.319 47.629-.717s3.583 1.035 3.5-1.831c0 0 7.249-6.851 43.966 1.115L470.1 638.42l-38.534 2.07-44.686-1.19z" transform="translate(-312.921 -520.602)" style="fill:#ffa975"/>
    <path data-name="路径 1870" d="m391.59 640.487 1.672 10.115s40.952-1.194 47.39-.08l-4.866-9.239s-24.761-2.309-44.196-.796z" transform="translate(-316.291 -521.713)" style="fill:#fff"/>
    <path data-name="路径 1871" d="m391.59 640.487 1.672 10.115s40.952-1.194 47.39-.08l-4.866-9.239s-24.761-2.309-44.196-.796z" transform="translate(-316.291 -521.713)" style="opacity:.1"/>
    <path data-name="路径 1872" d="m393.74 640.447 1.649 9.407s40.431-1.109 46.8-.074l-4.8-8.591s-24.459-2.149-43.649-.742z" transform="translate(-317.829 -521.71)" style="fill:#fff"/>
    <path data-name="路径 1873" d="m396.35 641.532 1.607 8.8s39.544-1.038 45.786-.068l-4.692-8.039s-23.929-2.025-42.701-.693z" transform="translate(-319.698 -522.504)" style="opacity:.1"/>
    <path data-name="路径 1874" d="m397.47 640.417 1.615 8.816s39.544-1.038 45.786-.068l-4.7-8.048s-23.929-2.017-42.701-.7z" transform="translate(-320.5 -521.711)" style="fill:#fff"/>
    <path data-name="路径 1875" d="M283.265 557.41s1.523 1.989-.7 5-4.061 5.542-3.318 7.416c0 0 3.347-5.582 6.088-5.648s.936-3.412-2.07-6.768z" transform="translate(-235.434 -452.378)" style="fill:#efeee4"/>
    <path data-name="路径 1876" d="M283.59 557.41a2.417 2.417 0 0 1 .312.628c2.665 3.138 4.086 6.067 1.523 6.13-2.387.067-5.249 4.335-5.935 5.414q.036.121.082.245s3.347-5.582 6.088-5.648.94-3.413-2.07-6.769z" transform="translate(-235.759 -452.378)" style="opacity:.1"/>
    <path data-name="路径 1877" d="M311.291 567.842c0 .7-.079 1.268-.176 1.268s-.176-.569-.176-1.268.1-.372.195-.372.157-.329.157.372z" transform="translate(-260.63 -460.272)" style="fill:#ffd037"/>
    <path data-name="路径 1878" d="M312.725 571.706c-.615.337-1.151.54-1.2.454s.418-.418 1.029-.762.372-.092.418 0 .368-.027-.247.308z" transform="translate(-261.092 -463.301)" style="fill:#ffd037"/>
    <path data-name="路径 1879" d="M247.746 557.41s-1.523 1.989.7 5 4.059 5.542 3.318 7.416c0 0-3.358-5.582-6.09-5.648s-.935-3.412 2.072-6.768z" transform="translate(-207.954 -452.378)" style="fill:#efeee4"/>
    <path data-name="路径 1880" d="M247.746 557.41a2.51 2.51 0 0 0-.312.628c-2.665 3.138-4.086 6.067-1.523 6.13 2.387.067 5.251 4.335 5.937 5.414a2.532 2.532 0 0 1-.082.245s-3.358-5.582-6.09-5.648-.937-3.413 2.07-6.769z" transform="translate(-207.954 -452.378)" style="opacity:.1"/>
    <path data-name="路径 1881" d="M247.13 567.842c0 .7.079 1.268.176 1.268s.176-.569.176-1.268-.1-.372-.195-.372-.157-.329-.157.372z" transform="translate(-210.169 -460.272)" style="fill:#ffd037"/>
    <path data-name="路径 1882" d="M241.08 571.706c.615.337 1.153.54 1.2.454s-.418-.418-1.029-.762-.372-.092-.418 0-.368-.027.247.308z" transform="translate(-205.089 -463.301)" style="fill:#ffd037"/>
    <path data-name="路径 1883" d="m257.084 600.4-.075.628-.107.877-.044.366-.107.879-.046.366-.109.879-1.218 9.983c-.109.891-1.565 1.586-3.322 1.586h-6.322c-1.757 0-3.211-.695-3.32-1.586l-1.22-9.983-.107-.879-.044-.366-.109-.879-.044-.366-.107-.877-.077-.628c-.061-.5.726-.929 1.722-.929h12.942c.994-.001 1.783.424 1.714.929z" transform="translate(-205.087 -485.639)" style="fill:#2e4565"/>
    <path data-name="路径 1884" d="m186.88 551.59-.107.879h-16.016l-.107-.879z" transform="translate(-134.953 -436.209)" style="fill:#9d9cb5"/>
    <path data-name="路径 1885" d="m187.3 557.54-.107.879h-15.714l-.109-.879z" transform="translate(-135.522 -440.914)" style="fill:#9d9cb5"/>
    <path data-name="路径 1886" d="m187.723 563.49-.107.877h-15.41l-.107-.877z" transform="translate(-136.099 -445.619)" style="fill:#9d9cb5"/>
    <path data-name="路径 1905" d="M1.906 4.889 14.8.078A1.228 1.228 0 0 1 16.382.8a1.228 1.228 0 0 1-.72 1.579L2.766 7.189 0 6.912z" transform="rotate(-144 57.54 58.447)" style="fill:#2e4565"/>
    <path data-name="路径 1906" d="M16 .211a1.228 1.228 0 0 1-.722 1.579L2.374 6.619.3 6.41l-.3.318L2.766 7l12.9-4.812a1.228 1.228 0 0 0 .72-1.579A1.228 1.228 0 0 0 15.88 0a1.424 1.424 0 0 1 .12.211z" transform="rotate(-144 57.575 58.352)" style="fill:#fff;opacity:.1"/>
    <path data-name="路径 1907" d="m1.906 0 .858 2.3L.5 2.071l-.5-.05.678-.721z" transform="rotate(-144 58.333 56.002)" style="fill:#efeee4"/>
    <path data-name="路径 1908" d="M.672 0a.549.549 0 0 1 .133.144.209.209 0 0 1 0 .224.445.445 0 0 1-.123.09.418.418 0 0 0-.182.31L0 .72z" transform="rotate(-144 58.541 55.354)" style="fill:#727a9c"/>
    <path data-name="路径 1909" d="M569.554 639.359s15.186-3.188 40.667.853l-9.982-7.326-18.161-3.717-12.848 3.413z" transform="translate(-443.413 -513.982)" style="fill:#fff"/>
    <path data-name="路径 1910" d="M569.554 639.359s15.186-3.188 40.667.853l-9.982-7.326-18.161-3.717-12.848 3.413z" transform="translate(-443.413 -513.982)" style="opacity:.1"/>
    <path data-name="路径 1911" d="M551.916 645.005s7.647-20.685 46.924.065L584.742 636s-33.771-9.33-37.672 1.422z" transform="translate(-427.555 -516.183)" style="fill:#fff"/>
    <path data-name="路径 1912" d="M551.866 641.21s7.647-22.116 46.924.4l-14.1-9.839s-33.782-11.159-37.692.52z" transform="translate(-427.505 -512.401)" style="opacity:.1"/>
    <path data-name="路径 1913" d="M551.916 641.006s7.647-22.443 46.924.071l-14.1-9.839s-33.771-10.84-37.672.853z" transform="translate(-427.555 -512.188)" style="fill:#fff"/>
    <path data-name="路径 1914" d="M551.887 638.717s7.647-24.943 46.924.384L584.7 628.03s-33.771-11.375-37.673 1.752z" transform="translate(-427.527 -509.894)" style="opacity:.1"/>
    <path data-name="路径 1915" d="M551.887 637.9s7.647-25.247 46.924.08L584.7 626.91s-33.771-11.375-37.673 1.752z" transform="translate(-427.527 -509.091)" style="fill:#fff"/>
    <path data-name="路径 1916" d="M965.983 668.71s-6.935 7.429-.692 11.037a1.731 1.731 0 0 0 1.981.469s-.393-.349.4-1.023a4.681 4.681 0 0 0 .743-.816 2.3 2.3 0 0 0 .431-1.393s.908-2.948-1.977-6.774c0 0-.262-1.28-.483-1.421l-.527 1.784a3.074 3.074 0 0 1 1.822 1.345s-1.745-1.37-1.914-1.084c-.033.059-.236.96-.236.96s2.3.594 3.021 2.176c0 0-1.86-1.91-3.1-1.835l-.226 1.377s2.462.51 3.347 2.28c0 0-2.013-1.931-3.381-1.975l-.04 1.383s2.391.544 3.121 2.021c0 0-2.55-1.994-3.109-1.7a6.832 6.832 0 0 0 .209 1.607s1.707.418 2.054 1.326c0 0-1.845-1.153-2-.977a7.2 7.2 0 0 0 1.186 2.345 5.2 5.2 0 0 1-1.439-2.255 2.869 2.869 0 0 0-.347 1.6s-.684-.757.232-2a6.614 6.614 0 0 1-.251-1.5 6.249 6.249 0 0 0-1.353 2.092 2.78 2.78 0 0 1 1.351-2.45v-1.393a8.88 8.88 0 0 0-1.812 2.238s-.021-1.3 1.843-2.588l.209-1.353a10.587 10.587 0 0 0-1.935 1.971 4.209 4.209 0 0 1 2.008-2.356l.245-.887s-1 .816-1.255 1.075-.358.209-.358.209a4.392 4.392 0 0 1 1.715-1.661 9.994 9.994 0 0 0 .517-1.854z" transform="translate(-776.029 -540.394)" style="opacity:.34;fill:#ffa975"/>
    <path data-name="路径 1917" d="M1103.7 90.91s-9.266 4.184-4.9 9.914a1.734 1.734 0 0 0 1.646 1.2s-.228-.475.759-.793a4.587 4.587 0 0 0 1-.467 2.3 2.3 0 0 0 .935-1.119s1.975-2.368.789-7.01c0 0 .253-1.282.1-1.5l-1.176 1.443a3.07 3.07 0 0 1 1.163 1.943s-1.079-1.937-1.347-1.736c-.054.04-.588.793-.588.793s1.883 1.435 1.948 3.174c0 0-.979-2.481-2.155-2.891l-.738 1.184s2.075 1.42 2.213 3.4c0 0-1.113-2.556-2.358-3.125l-.571 1.255s2 1.425 2.092 3.069c0 0-1.584-2.824-2.211-2.77a6.5 6.5 0 0 0-.418 1.563s1.41 1.046 1.385 2.017c0 0-1.255-1.774-1.464-1.674a7.164 7.164 0 0 0 .19 2.621 5.191 5.191 0 0 1-.458-2.636 2.862 2.862 0 0 0-.939 1.347s-.339-.964.987-1.761a6.566 6.566 0 0 1 .347-1.481 6.246 6.246 0 0 0-2.052 1.4s.282-1.224 2.193-1.738l.544-1.28a8.893 8.893 0 0 0-2.536 1.364s.481-1.2 2.7-1.674l.713-1.167a10.687 10.687 0 0 0-2.546 1.071 4.228 4.228 0 0 1 2.763-1.4l.567-.724s-1.234.368-1.58.506-.418.056-.418.056a4.394 4.394 0 0 1 2.236-.87 10.994 10.994 0 0 0 1.185-1.504z" transform="translate(-882.748 -83.47)" style="opacity:.34;fill:#ffa975"/>
    <path data-name="路径 1918" d="M672.218 103.29s-13.92 3.975-7.153 9.891a2.685 2.685 0 0 0 2.527 1.255s-.36-.485 1.13-.78a8.849 8.849 0 0 0 1.5-.444 2.68 2.68 0 0 0 1.385-1.107s2.929-2.343 1.006-7.067c0 0 .349-1.289.115-1.51l-1.741 1.427s1.674.86 1.814 2c0 0-1.688-1.985-2.092-1.791-.082.04-.87.785-.87.785s2.9 1.5 3.036 3.261c0 0-1.548-2.533-3.347-2.979l-1.088 1.176s3.18 1.492 3.441 3.492c0 0-1.753-2.613-3.653-3.222l-.837 1.255s3.063 1.494 3.263 3.159c0 0-2.475-2.9-3.425-2.862a4.9 4.9 0 0 0-.6 1.571s2.163 1.1 2.153 2.075c0 0-1.954-1.828-2.276-1.732a4.985 4.985 0 0 0 .36 2.655 3.976 3.976 0 0 1-.766-2.676 3.145 3.145 0 0 0-1.385 1.335s-.54-.981 1.448-1.751c0 0 .253-1.335.485-1.49a10.234 10.234 0 0 0-3.069 1.36s.393-1.23 3.272-1.7l.791-1.28a16.03 16.03 0 0 0-3.8 1.312s.7-1.205 4.044-1.623l1.046-1.161a20.584 20.584 0 0 0-3.828 1.015s1.015-1.015 4.146-1.339l.837-.715s-1.86.339-2.379.469-.628.046-.628.046a8.241 8.241 0 0 1 3.347-.82s1.912-1.402 1.791-1.49z" transform="translate(-539.204 -93.26)" style="opacity:.34;fill:#ffa975"/>
    <path data-name="路径 1919" d="M891.533 800.624s7.008-7.362.8-11.031a1.735 1.735 0 0 0-1.977-.49s.391.354-.4 1.021a4.725 4.725 0 0 0-.751.807 2.287 2.287 0 0 0-.444 1.389s-.939 2.939 1.91 6.793c0 0 .249 1.282.469 1.427l.546-1.78a3.072 3.072 0 0 1-1.81-1.362s1.73 1.385 1.9 1.1c.036-.059.247-.956.247-.956s-2.3-.628-3-2.205c0 0 1.841 1.929 3.084 1.864l.239-1.374s-2.456-.534-3.328-2.3c0 0 1.994 1.95 3.362 2.008l.052-1.385s-2.387-.577-3.111-2.063c0 0 2.531 2.021 3.092 1.734a6.227 6.227 0 0 0-.209-1.607s-1.7-.448-2.042-1.347c0 0 1.835 1.171 1.994 1a7.177 7.177 0 0 0-1.163-2.356 5.2 5.2 0 0 1 1.418 2.268 2.86 2.86 0 0 0 .362-1.6s.678.766-.251 2a6.611 6.611 0 0 1 .236 1.5 6.266 6.266 0 0 0 1.372-2.069 2.742 2.742 0 0 1-1.374 2.435l-.021 1.393a8.875 8.875 0 0 0 1.833-2.222s0 1.3-1.868 2.571l-.209 1.351a10.619 10.619 0 0 0 1.954-1.952 4.215 4.215 0 0 1-2.031 2.335l-.253.885s1-.805 1.272-1.063.36-.209.36-.209a4.378 4.378 0 0 1-1.732 1.644 10.726 10.726 0 0 0-.528 1.846z" transform="translate(-717.452 -635.489)" style="opacity:.34;fill:#ffa975"/>
    <path data-name="路径 1920" d="M575.85 55.594s1.195 10.092 7.981 7.657a1.735 1.735 0 0 0 1.638-1.211s-.523.075-.527-.962a4.686 4.686 0 0 0-.144-1.094 2.285 2.285 0 0 0-.784-1.228s-1.665-2.6-6.458-2.854c0 0-1.146-.628-1.4-.548l1.023 1.554a3.063 3.063 0 0 1 2.2-.523s-2.172.448-2.061.761c.021.065.578.8.578.8s1.956-1.381 3.63-.91c0 0-2.659.184-3.4 1.182l.893 1.063s1.979-1.552 3.906-1.09c0 0-2.774.293-3.692 1.307l1.042.925s1.958-1.477 3.556-1.079c0 0-3.171.661-3.31 1.274a6.691 6.691 0 0 0 1.366.874s1.431-1.027 2.339-.713c0 0-2.071.665-2.04.9a7.191 7.191 0 0 0 2.556.607 5.309 5.309 0 0 1-2.651-.356 2.868 2.868 0 0 0 1 1.3s-1.021.031-1.383-1.464a6.667 6.667 0 0 1-1.308-.776 6.261 6.261 0 0 0 .718 2.377 2.754 2.754 0 0 1-1-2.613l-1.046-.906a8.928 8.928 0 0 0 .538 2.83s-1-.822-.787-3.079l-.9-1.031a10.627 10.627 0 0 0 .253 2.749 4.212 4.212 0 0 1-.5-3.054l-.521-.759s-.019 1.287 0 1.659-.071.408-.071.408a4.393 4.393 0 0 1-.163-2.391 10.684 10.684 0 0 0-1.071-1.586z" transform="translate(-470.12 -55.347)" style="opacity:.34;fill:#ffa975"/>
    <path data-name="路径 1921" d="M779.635 733.4s-9.795-2.72-10.109 4.485a1.736 1.736 0 0 0 .5 1.975s.128-.51 1.09-.123a4.682 4.682 0 0 0 1.067.282 2.286 2.286 0 0 0 1.435-.264s3.033-.556 5.092-4.883c0 0 1.014-.822 1.046-1.086l-1.826.358a3.071 3.071 0 0 1-.352 2.238s.419-2.18.078-2.2c-.069 0-.96.232-.96.232s.536 2.314-.534 3.684c0 0 .837-2.531.195-3.6l-1.326.437s.686 2.418-.473 4.025c0 0 .782-2.676.188-3.91l-1.243.6s.628 2.372-.349 3.7c0 0 .59-3.184.073-3.546a6.8 6.8 0 0 0-1.324.933s.418 1.713-.226 2.435c0 0 .167-2.169-.061-2.228a7.161 7.161 0 0 0-1.531 2.136 5.2 5.2 0 0 1 1.335-2.318 2.874 2.874 0 0 0-1.584.433s.356-.956 1.883-.72a6.557 6.557 0 0 1 1.215-.916 6.217 6.217 0 0 0-2.473-.238 2.768 2.768 0 0 1 2.8.067l1.238-.628a8.923 8.923 0 0 0-2.822-.573s1.14-.628 3.138.437l1.293-.441a10.641 10.641 0 0 0-2.64-.805 4.218 4.218 0 0 1 3.017.695l.9-.195s-1.184-.506-1.538-.628-.352-.209-.352-.209a4.393 4.393 0 0 1 2.266.753 10.828 10.828 0 0 0 1.874-.394z" transform="translate(-623.183 -591.151)" style="opacity:.34;fill:#ffa975"/>
</svg>
