<svg id="ESC" xmlns="http://www.w3.org/2000/svg" width="50" height="90">
    <defs>
        <style>
            .cls-1{fill:#efeee4}
        </style>
    </defs>
    <g id="组_341" data-name="组 341" transform="translate(-2 -2)">
        <path id="路径_2269" data-name="路径 2269" class="cls-1" d="M27 52A25 25 0 1 0 2 27a25 25 0 0 0 25 25zm0-46.429A21.429 21.429 0 1 1 5.571 27 21.429 21.429 0 0 1 27 5.571z"/>
        <path id="路径_2270" data-name="路径 2270" class="cls-1" d="M9.526 33.3a1.812 1.812 0 0 0 2.533 0l9.521-9.41 9.5 9.39a1.812 1.812 0 0 0 2.439-.093 1.76 1.76 0 0 0 .094-2.41l-9.5-9.39 9.5-9.39a1.76 1.76 0 0 0-.094-2.41 1.812 1.812 0 0 0-2.439-.093l-9.5 9.39-9.5-9.408a1.812 1.812 0 0 0-2.439.093 1.76 1.76 0 0 0-.094 2.41l9.5 9.408-9.521 9.39a1.76 1.76 0 0 0 0 2.521z" transform="translate(5.421 5.614)"/>
    </g>
    <text id="esc-2" data-name="esc" transform="translate(9 85)" style="font-size:17px;font-family:NotoSansTC-Bold,Noto Sans TC;font-weight:700;letter-spacing:.16em;fill:#efeee4"><tspan x="0" y="0">esc</tspan></text>
</svg>
