<svg xmlns="http://www.w3.org/2000/svg" width="133.359" height="181.38">
    <defs>
        <style>
            .cls-2{fill:#d4a181}.cls-2,.cls-3,.cls-5{fill-rule:evenodd}.cls-3{fill:#191847}.cls-5{fill:#e4e4e4}
        </style>
    </defs>
    <g id="humaaans_standing-22" data-name="humaaans/standing-22" transform="translate(-31.063 -32.208)" style="opacity:.9">
        <g id="humaaan-12" transform="translate(29.227 32.208)">
            <g id="Head_Front_Pony" data-name="Head/Front/Pony" transform="rotate(14.98 27.278 207.797)">
                <g id="Head" transform="translate(20.263 4.743)">
                    <path id="路径_1760" data-name="路径 1760" class="cls-2" d="M3.562 14.87A11.68 11.68 0 0 1 .456 6.478c.647-9.227 13.491-7.2 15.989-2.54s2.2 16.469-1.027 17.3c-1.288.332-4.031-.481-6.823-2.164l1.752 12.4H0z"/>
                </g>
                <path id="hair" class="cls-3" d="M27.407 18.964c-1.283 2.463-3.058 4.318-4.831 4.318-3.367 0-5.762-4.5-5.762-9.343q0-.255.01-.507c-3.562 2.444-6.308 7.263-11.021 7.263-6.412 0-8.959-12.934 0-12.934 6.093 0 9.09.888 11.673 2.2a8.391 8.391 0 0 1 2.236-3.487 3.476 3.476 0 0 1 1.031-.732 4.777 4.777 0 0 1 .856-.367 21.48 21.48 0 0 1 6.334-1.064c.471-.016.933-.021 1.384-.015a4.311 4.311 0 1 1 4.545 4.319 21.76 21.76 0 0 1-4.823.82 8.989 8.989 0 0 1 .278 2.313 13.076 13.076 0 0 1-.24 2.405 2.014 2.014 0 0 0-1.484-.789 2.586 2.586 0 0 0-2.587 2.587 2.734 2.734 0 0 0 2.401 3.013z"/>
            </g>
            <g id="Bottom_Standing_Jogging" data-name="Bottom/Standing/Jogging" transform="translate(1.836 78.339)">
                <path id="Leg" d="m135.576 0 32.036 53.559 24.018 45.279h5.17L156.561 0z" transform="translate(-79.391)" style="fill:#ba8b72;fill-rule:evenodd"/>
                <g id="Accessories_Shoe_Flat-Sneaker" data-name="Accessories/Shoe/Flat-Sneaker" transform="translate(108.353 94.131)">
                    <path id="shoe" class="cls-5" d="M1.766 22.778a9.257 9.257 0 0 0-.724 2.89 21.633 21.633 0 0 0 .389 3.4h24.317q.948-3.134-1.094-3.383t-3.393-.451L9.959 20.2a.431.431 0 0 0-.569.218v.011l-.732 1.761a7.753 7.753 0 0 1-3.072.882 6.958 6.958 0 0 1-2.653-.772.862.862 0 0 0-1.143.425q-.013.024-.024.053z" transform="translate(-1.043 -20.161)"/>
                </g>
                <path id="Pant" d="m177.4 91.587 9.977-3.018q-6.557-19.6-16.072-43.139T150.868 0H122.69a443.125 443.125 0 0 0 25.748 50.324A340.617 340.617 0 0 0 177.4 91.587z" transform="translate(-71.832)" style="fill:#db2721;fill-rule:evenodd"/>
                <path id="Leg-2" data-name="Leg" class="cls-2" d="M60.91 0c-3.023 18.821-8.855 42.867-9.41 43.609q-.551.742-39.626 13.278L13 61.449q46.6-6.723 49.106-10.433C64.61 47.307 77.135 18.006 81.986 0z" transform="translate(-6.83)"/>
                <path id="Pant-2" data-name="Pant" d="M34.029 52.944 36 60.291q34.852 3.056 42.71-4.418T96.617 0H69.748q-6.369 39.633-7.122 41.3T34.029 52.944z" transform="translate(-19.824)" style="fill:#ff4133;fill-rule:evenodd"/>
                <g id="Accessories_Shoe_Flat-Sneaker-2" data-name="Accessories/Shoe/Flat-Sneaker" transform="rotate(80 -27.683 32.139)">
                    <path id="shoe-2" data-name="shoe" class="cls-5" d="M.723 2.617A9.257 9.257 0 0 0 0 5.507a21.633 21.633 0 0 0 .389 3.4h24.316q.948-3.134-1.094-3.383t-3.393-.451L8.916.037a.431.431 0 0 0-.569.218v.011l-.732 1.763a7.753 7.753 0 0 1-3.072.882 6.958 6.958 0 0 1-2.653-.775.862.862 0 0 0-1.143.424q-.013.028-.024.057z"/>
                </g>
            </g>
            <g id="Body_Trench-Coat" data-name="Body/Trench-Coat" transform="rotate(10 -126.849 108.536)">
                <path id="Skin" class="cls-2" d="M86.488 8.537 99.5 19.571a37.022 37.022 0 0 1 9.064 4.4c.552.579 1.189 1.717-1.244 1.358s-5.007-.627-5.4.183 1.014 1.912.254 2.99q-.761 1.078-6.051-6.1l-13.192-6.58zM24.7 0l7.478 1.9Q17.161 27.146 16.117 28.584c-1.566 2.158-.429 6.322-.042 8.5-3.171.565-1.688-4.087-5.7-3.31-3.675.713-6.861 2.86-10.075-.428-.395-.4-.636-1.616.811-2.155 3.6-1.343 8.961-3.931 9.863-5Q12.822 24.012 24.7 0z" transform="rotate(-4 489.966 17.11)"/>
                <path id="Back-Arm" d="M32.659 36.921a14.779 14.779 0 0 1 5.757.861 1.94 1.94 0 0 1 .021 3.67q.592.432 1.2.859l-3.47 7.083c-14.6-7.28-28.322-12.768-34.575-24.785C-.51 20.576.2 6.875 0 1.891L4.611 0c6.428 13.286 15.126 26.033 28.048 36.921z" transform="translate(57.417 .88)" style="fill:#69a1ac;fill-rule:evenodd"/>
                <path id="Shirt" class="cls-3" d="M0 48.376q20.331 2.234 32.006 0c.964-.184.922-4.341.475-5.476C25.517 25.221 20.936 12.279 20.936 0q-1.917 1-6.709.3C5.642 12.954 1.7 27.474 0 48.376z" transform="translate(41.22 .734)"/>
                <path id="Coat-Front" d="M26.2 51.2a1.938 1.938 0 0 1-.582-1.751l.225-1.274a1.941 1.941 0 0 1 1.681-1.59q.217-.97.372-1.927c.87-5.388-.617-10.67-.547-15.858Q16.955 37.673 8.7 59.441l-8.143-2.4q.466-1.731.965-3.42C.582 53.087-.516 50.64.274 50.23a9.512 9.512 0 0 1 2.592-.9Q14.062 15.607 39.491 0h4.9c-1.444 19.091 18.5 60.771 11.573 96.367-12.8 2.858-31.067-6.034-48.851 1.07C7.778 83.1 21.033 66.261 26.2 51.2z" transform="translate(12.497)" style="fill:#89c5cc;fill-rule:evenodd"/>
                <path id="Shade-Lapel" d="M3.976 0 1.752 6.84l4.479 5.128L2.183 16l9.794 16.769L0 16.031l3.976-4.063L0 7.436z" transform="translate(49.792 .431)" style="fill:rgba(0,0,0,.1);fill-rule:evenodd"/>
                <path id="Buttons" d="M1.724 3.449a1.725 1.725 0 1 1 1.725-1.724 1.724 1.724 0 0 1-1.725 1.724zm2.156 9.916a1.725 1.725 0 1 1 1.72-1.724 1.725 1.725 0 0 1-1.72 1.724zm.431 9.916a1.725 1.725 0 1 1 1.724-1.725 1.725 1.725 0 0 1-1.724 1.726z" transform="translate(57.172 36.215)" style="fill:rgba(0,0,0,.4);fill-rule:evenodd"/>
            </g>
        </g>
    </g>
</svg>
