<svg data-name="search 動態按鈕" xmlns="http://www.w3.org/2000/svg" width="21.661" height="21.597" viewBox="0 0 21.661 21.597">
    <g data-name="路径 1" style="fill:#2e4565">
        <path d="M21.12 21.102a.586.586 0 0 1-.407-.163L17.1 17.425l-.309-.3-.342.261a8.15 8.15 0 0 1-4.91 1.644h-.01c-4.427 0-8.028-3.483-8.028-7.765S7.101 3.5 11.527 3.5c4.427 0 8.028 3.483 8.028 7.765a7.557 7.557 0 0 1-1.69 4.748l-.288.356.329.318 3.624 3.502a.515.515 0 0 1 .001.747.589.589 0 0 1-.41.166zM4.633 11.265c0 3.694 3.093 6.699 6.895 6.699 3.803 0 6.896-3.005 6.896-6.699s-3.093-6.699-6.896-6.699c-3.802 0-6.895 3.005-6.895 6.699z" style="stroke:none" transform="translate(-.532 -3)"/>
        <path d="M21.12 20.602a.085.085 0 0 0 .059-.02l.006-.006c.007-.007.008-.012.008-.013 0 0-.001-.006-.01-.014l-4.283-4.14.576-.711a7.055 7.055 0 0 0 1.579-4.433C19.055 7.259 15.678 4 11.527 4 7.377 4 4 7.26 4 11.265c0 4.006 3.377 7.265 7.527 7.265h.01c1.665 0 3.301-.548 4.608-1.542l.685-.521 4.233 4.114c.013.013.035.021.058.021M4.13 11.265c0-3.97 3.319-7.199 7.396-7.199 4.078 0 7.396 3.23 7.396 7.199 0 3.97-3.318 7.199-7.396 7.199-4.077 0-7.395-3.23-7.395-7.199M21.12 21.602c-.284 0-.557-.11-.757-.305l-3.614-3.513a8.617 8.617 0 0 1-5.223 1.746C6.817 19.53 3 15.83 3 11.265S6.818 3 11.527 3c4.71 0 8.528 3.7 8.528 8.265a8.023 8.023 0 0 1-1.802 5.062l3.625 3.503c.201.194.315.458.315.733 0 .276-.114.54-.315.734-.2.195-.473.305-.757.305zM5.13 11.265c0 3.423 2.864 6.199 6.396 6.199 3.533 0 6.396-2.776 6.396-6.199s-2.863-6.199-6.396-6.199c-3.532 0-6.395 2.776-6.395 6.199z" style="fill:#2e4565;stroke:none" transform="translate(-.532 -3)"/>
    </g>
</svg>
