<svg xmlns="http://www.w3.org/2000/svg" width="66" height="54" viewBox="0 0 66 54">
    <g transform="translate(15.635 -3.641)">
        <rect data-name="矩形 38" width="66" height="54" rx="19" transform="translate(-15.635 3.641)" style="fill:#efeee4"/>
        <path data-name="Icon awesome-newspaper" d="M35.019 4.5H5.583A1.523 1.523 0 0 0 4.06 6.023v.508H1.523A1.523 1.523 0 0 0 0 8.053v17.26a3.553 3.553 0 0 0 3.553 3.553H33.5a3.045 3.045 0 0 0 3.045-3.046V6.023A1.523 1.523 0 0 0 35.019 4.5zM3.553 25.821a.508.508 0 0 1-.508-.508V9.576H4.06v15.737a.508.508 0 0 1-.507.508zm14.972-1.015H8.882a.761.761 0 0 1-.761-.761v-.508a.761.761 0 0 1 .761-.761h9.643a.761.761 0 0 1 .761.761v.508a.761.761 0 0 1-.762.761zm13.2 0h-9.648a.761.761 0 0 1-.761-.761v-.508a.761.761 0 0 1 .761-.761h9.643a.761.761 0 0 1 .761.761v.508a.761.761 0 0 1-.761.761zm-13.2-6.092H8.882a.761.761 0 0 1-.761-.761v-.508a.761.761 0 0 1 .761-.761h9.643a.761.761 0 0 1 .761.761v.508a.761.761 0 0 1-.762.761zm13.2 0h-9.648a.761.761 0 0 1-.761-.761v-.508a.761.761 0 0 1 .761-.761h9.643a.761.761 0 0 1 .761.761v.508a.761.761 0 0 1-.761.761zm0-6.092H8.882a.761.761 0 0 1-.761-.761V9.323a.761.761 0 0 1 .761-.761H31.72a.761.761 0 0 1 .761.761v2.538a.761.761 0 0 1-.761.761z" transform="translate(-.905 13.958)" style="fill:#647386;opacity:.5"/>
    </g>
</svg>
