<svg id="右翻" xmlns="http://www.w3.org/2000/svg" width="60" height="60" viewBox="0 0 60 60">
    <defs>
        <clipPath id="clip-path">
            <circle id="蒙版" class="cls-1" cx="30" cy="30" r="30" transform="translate(-2 -4.001)"/>
        </clipPath>
        <style>
            .cls-1{fill:#2e4565;stroke:#2e4565;stroke-width:2.5px}.cls-7{fill:none}.cls-6{stroke:none}
        </style>
    </defs>
    <g id="蒙版组_27" data-name="蒙版组 27" transform="translate(2 4.001)" style="clip-path:url(#clip-path)">
        <g id="椭圆_156" data-name="椭圆 156" transform="translate(-2 -4.001)" style="fill:none;stroke:#2e4565;stroke-width:2.5px">
            <circle class="cls-6" cx="30" cy="30" r="30"/>
            <circle class="cls-7" cx="30" cy="30" r="28.75"/>
        </g>
        <path id="右翻按鈕深" d="m-16.572-24.627 4.567 4.379H-23.05A1.448 1.448 0 0 0-24.5-18.8v.968a1.448 1.448 0 0 0 1.452 1.452h11.044L-16.572-12a1.453 1.453 0 0 0-.028 2.077l.665.659a1.446 1.446 0 0 0 2.05 0l8.026-8.02a1.446 1.446 0 0 0 0-2.05l-8.026-8.032a1.446 1.446 0 0 0-2.05 0l-.665.659a1.46 1.46 0 0 0 .024 2.081z" transform="translate(42.256 44.313)" style="fill:#2e4565"/>
        <g id="椭圆_157" data-name="椭圆 157" class="cls-1" transform="translate(-95 -4.001)">
            <circle class="cls-6" cx="30" cy="30" r="30"/>
            <circle class="cls-7" cx="30" cy="30" r="28.75"/>
        </g>
        <path id="右翻按鈕淺" d="m-16.572-24.627 4.567 4.379H-23.05A1.448 1.448 0 0 0-24.5-18.8v.968a1.448 1.448 0 0 0 1.452 1.452h11.044L-16.572-12a1.453 1.453 0 0 0-.028 2.077l.665.659a1.446 1.446 0 0 0 2.05 0l8.026-8.02a1.446 1.446 0 0 0 0-2.05l-8.026-8.032a1.446 1.446 0 0 0-2.05 0l-.665.659a1.46 1.46 0 0 0 .024 2.081z" transform="translate(-50.035 44.315)" style="fill:#efeee4"/>
    </g>
</svg>
