<svg xmlns="http://www.w3.org/2000/svg" width="44.11" height="44.109">
    <g data-name="Events iocn">
        <path data-name="减去 1" d="M37.495 44.109H6.618A6.5 6.5 0 0 1 0 37.495v-19.85h44.11v19.85a6.5 6.5 0 0 1-6.616 6.614zm-15.44-22.658a2.763 2.763 0 0 0-1.676 1.016 4.331 4.331 0 0 1-1.2.919 4.075 4.075 0 0 1-1.439.181 2.788 2.788 0 0 0-1.96.483 2.788 2.788 0 0 0-.483 1.959 4.083 4.083 0 0 1-.181 1.44 4.323 4.323 0 0 1-.918 1.2 2.764 2.764 0 0 0-1.016 1.677A2.763 2.763 0 0 0 14.2 32a4.324 4.324 0 0 1 .919 1.2 4.078 4.078 0 0 1 .181 1.44 2.791 2.791 0 0 0 .483 1.96 2.788 2.788 0 0 0 1.959.483 4.072 4.072 0 0 1 1.441.182 4.324 4.324 0 0 1 1.2.918 2.763 2.763 0 0 0 1.675 1.016 2.765 2.765 0 0 0 1.677-1.017 4.333 4.333 0 0 1 1.2-.918 4.077 4.077 0 0 1 1.44-.181 2.787 2.787 0 0 0 1.959-.482 2.788 2.788 0 0 0 .483-1.96 4.075 4.075 0 0 1 .181-1.439 4.324 4.324 0 0 1 .918-1.2 2.763 2.763 0 0 0 1.016-1.675 2.764 2.764 0 0 0-1.016-1.677 4.323 4.323 0 0 1-.918-1.2 4.079 4.079 0 0 1-.181-1.44 2.785 2.785 0 0 0-.483-1.96 2.786 2.786 0 0 0-1.96-.483 4.076 4.076 0 0 1-1.439-.181 4.333 4.333 0 0 1-1.2-.918 2.765 2.765 0 0 0-1.68-1.017zm22.055-8.217H0v-2.207a6.5 6.5 0 0 1 6.618-6.616h2.206v-2.2A2.09 2.09 0 0 1 11.03 0a2.088 2.088 0 0 1 2.2 2.208v2.2h17.649v-2.2a2.206 2.206 0 1 1 4.412 0v2.2h2.2a6.5 6.5 0 0 1 6.616 6.616v2.206z" style="fill:#fb0" transform="translate(-.001)"/>
        <path data-name="路径 62" d="m90.853 104-4.569 4.361-2.284-2.18" transform="translate(-65.372 -75.628)" style="fill:none;stroke:#fb0;stroke-linecap:round;stroke-linejoin:round;stroke-width:3px"/>
    </g>
</svg>
