<svg xmlns="http://www.w3.org/2000/svg" width="40.087" height="40.087" viewBox="0 0 40.087 40.087">
    <path fill="#2e4565" d="M10.7 6.459v31.028a1.353 1.353 0 0 1-1.349 1.349A1.353 1.353 0 0 1 8 37.487V9.542H6.459a3.08 3.08 0 0 0-3.084 3.084v27.752a3.08 3.08 0 0 0 3.084 3.084h34.025a2.98 2.98 0 0 0 2.978-2.978V6.459a3.08 3.08 0 0 0-3.084-3.084l-26.789.193A2.762 2.762 0 0 0 10.7 6.459zm6.36 3.084h8.094a1.353 1.353 0 0 1 1.346 1.348 1.353 1.353 0 0 1-1.349 1.349h-8.093a1.353 1.353 0 0 1-1.349-1.349 1.353 1.353 0 0 1 1.349-1.349zm0 15.418h14.26a1.353 1.353 0 0 1 1.349 1.349 1.353 1.353 0 0 1-1.349 1.349H17.058a1.353 1.353 0 0 1-1.349-1.349 1.353 1.353 0 0 1 1.349-1.35zm18.885 10.406H17.058a1.353 1.353 0 0 1-1.349-1.349 1.353 1.353 0 0 1 1.349-1.349h18.887a1.353 1.353 0 0 1 1.349 1.349 1.353 1.353 0 0 1-1.349 1.349zm0-15.418H17.058a1.353 1.353 0 0 1-1.349-1.349 1.353 1.353 0 0 1 1.349-1.349h18.887a1.353 1.353 0 0 1 1.349 1.349 1.353 1.353 0 0 1-1.349 1.349z" transform="translate(-3.375 -3.375)"/>
</svg>
