<svg xmlns="http://www.w3.org/2000/svg" width="517" height="291">
    <defs>
        <style>
            .cls-8{fill:#fff}.cls-2{fill:#ffd3cf}.cls-4{fill:#464646}.cls-5{fill:#ffcec8}.cls-6{fill:#ff9c91}.cls-7{fill:#e3e3e3}.cls-9{fill:#545ed7}.cls-12{fill:#ff9d5a}.cls-14{fill:#f99}.cls-15{fill:#1f1f1f}.cls-17{fill:#ffa975}.cls-18{fill:#ffb1a8}.cls-20{fill:#e0dfd9}.cls-22{fill:#545ed3}.cls-23{fill:#ff9185}.cls-24{fill:#c4d1d4}.cls-25{fill:#2e4565}.cls-26{fill:#3d47bf}
        </style>
    </defs>
    <g id="Footer歡呼圖片" transform="translate(.144 .071)">
        <g id="Layer_1" data-name="Layer 1" transform="translate(20.661 18.679)">
            <path id="路径_1923" data-name="路径 1923" class="cls-2" d="m1976.03 488.345.068.582.28 4.142 5.1 3.537 6.6-4.206-.185-3.659-.05-.492z" transform="translate(-1654.185 -422.312)"/>
            <path id="路径_1924" data-name="路径 1924" d="m1976 488.345.067.582a6.668 6.668 0 0 0 11.786-.186l-.05-.492z" transform="translate(-1654.161 -422.312)" style="fill:#ffb2a9"/>
            <path id="路径_1925" data-name="路径 1925" class="cls-2" d="M1975.63 441.13a6.673 6.673 0 0 0 5.919-7.35l-.731-6.78-13.267 1.432.731 6.787a6.671 6.671 0 0 0 7.348 5.911z" transform="translate(-1647.175 -371.677)"/>
            <path id="路径_1926" data-name="路径 1926" class="cls-2" d="M2042.65 455.687c.2 1.147.293 2.08 1.44 1.889s2.908-1.458 2.712-2.6a2.11 2.11 0 1 0-4.159.714z" transform="translate(-1709.228 -393.355)"/>
            <path id="路径_1927" data-name="路径 1927" class="cls-2" d="M1957.9 462.876c0 1.165.05 2.108-1.113 2.1s-3.107-.964-3.1-2.127a2.108 2.108 0 1 1 4.213.026z" transform="translate(-1635.715 -399.535)"/>
            <path id="路径_1928" data-name="路径 1928" class="cls-4" d="M1966.073 389.5a6.8 6.8 0 0 0 1.433-3.853 2.655 2.655 0 0 0-2.145-2.7l-.056-.009a5.964 5.964 0 0 0-3.024-6.546c-4.144-2.451-7.439 2.426-7.439 2.426a1.625 1.625 0 0 0-1.806-.607 1.226 1.226 0 0 0-.949 1.348s-1.7-1.848-4.558.218c-3.524 2.551.366 11.541.366 11.541a1.917 1.917 0 0 1 2.472-.693l-.472-3.293s3.343 1.643 4.986-1.35c0 0 1.823 2.648 4.283 1.822 2.638-.887 2.461 2.14 4.421 1.785a2.24 2.24 0 0 1 2.488-.089z" transform="translate(-1629.402 -329.274)"/>
            <path id="路径_1929" data-name="路径 1929" class="cls-4" d="M1708.773 544.519s-4.532-2.383-7.253 4.269l6.529-.305z" transform="translate(-1427.252 -468.486)"/>
            <path id="路径_1930" data-name="路径 1930" class="cls-5" d="m1680.237 510.757-5.222-7.012-2.465-3.5-5.415-3.683a.53.53 0 0 0-.745.151.534.534 0 0 0 .076.669l3.215 3.12-.549-.173a2.265 2.265 0 0 0-1.7.133l-2.605 1.309a.442.442 0 0 0-.152.665.439.439 0 0 0 .471.154l1.827-.52 1.43-.412-1.246.173-1.182 1.416a.346.346 0 0 0 .04.478.346.346 0 0 0 .414.023l1.532-1.05 1.711-.591 2.522 4.48 1.4 5.35z" transform="translate(-1396.722 -429.104)"/>
            <path id="路径_1931" data-name="路径 1931" class="cls-5" d="m1681.1 523.262-4.927-2.324a.633.633 0 0 0-.725.13.636.636 0 0 0 .066.945l3.354 2.6a3.759 3.759 0 0 0 2.154 2.147l1.279-1.591z" transform="translate(-1405.548 -449.284)"/>
            <path id="路径_1932" data-name="路径 1932" class="cls-6" d="M1680.573 522.843a.115.115 0 0 1-.047-.01l-4.927-2.324a.52.52 0 0 0-.747.509.53.53 0 0 0 .2.38l1.184.917a.109.109 0 0 1-.134.173l-1.184-.917a.744.744 0 0 1 .771-1.262l4.927 2.326a.111.111 0 0 1 .052.145.107.107 0 0 1-.095.063z" transform="translate(-1405.025 -448.756)"/>
            <path id="路径_1933" data-name="路径 1933" class="cls-6" d="M1693.682 520.546a.1.1 0 0 1-.048-.012.109.109 0 0 1-.05-.146 1 1 0 0 0-.185-1.066.109.109 0 0 1 .156-.152 1.222 1.222 0 0 1 .225 1.314.106.106 0 0 1-.1.063z" transform="translate(-1420.515 -447.849)"/>
            <path id="路径_1934" data-name="路径 1934" class="cls-5" d="m1675.79 526.42 1.338 1.092z" transform="translate(-1405.982 -453.866)"/>
            <path id="路径_1935" data-name="路径 1935" class="cls-4" d="M1698.148 533.935c.04-.055.078-.113.118-.173a2.758 2.758 0 0 1 1.49-1.01 10.3 10.3 0 0 1 2.2.026 3.751 3.751 0 0 0 2.773-1.312 4.256 4.256 0 0 0 .643-1.059l6.043 7.035 2.29 2.662 2.946 3.421 5.007-4.591c1.066-.986 2.142-1.967 3.21-2.946.036-.035.069-.059.106-.094a80.22 80.22 0 0 1 7.771-6.912 36.568 36.568 0 0 1 2.874-1.832l-.173 17.5-15.49 13.05a10.953 10.953 0 0 1-2.6 1.321h-.025a4.782 4.782 0 0 1-4.594-.724l-.043-.035a9.3 9.3 0 0 1-1.716-1.747l-13.429-21.519a5.527 5.527 0 0 1 .599-1.061z" transform="translate(-1423.971 -454.47)"/>
            <path id="路径_1936" data-name="路径 1936" class="cls-5" d="M1916.743 1467.339a3.313 3.313 0 0 1 3.293 2.2 4.524 4.524 0 0 0 3.527 2.666l1.128.206-.059-15.189-10.053-.678z" transform="translate(-1603.386 -1222.781)"/>
            <path id="路径_1937" data-name="路径 1937" class="cls-7" d="m1930.5 1492.017.038 9.706-1.129-.206a4.524 4.524 0 0 1-3.527-2.666 3.31 3.31 0 0 0-3.293-2.2l-.933-4.645z" transform="translate(-1609.238 -1252.104)"/>
            <path id="路径_1938" data-name="路径 1938" class="cls-5" d="M2190.576 1471.583s1.477-.31 2.563 2.185a4.234 4.234 0 0 0 3.3 2.665h3.21l-3.042-14.774-9.13.1z" transform="translate(-1828.988 -1227.014)"/>
            <path id="路径_1939" data-name="路径 1939" class="cls-7" d="m2205.747 1494.16 1.883 9.141h-3.21a4.56 4.56 0 0 1-3.3-2.666c-1.086-2.2-2.563-2.186-2.563-2.186l-1.423-4.289z" transform="translate(-1836.965 -1253.882)"/>
            <path id="路径_1940" data-name="路径 1940" class="cls-4" d="M1848.9 1522.234c.173-.078.347-.144.5-.2a5.382 5.382 0 0 1 .96-.246 37.113 37.113 0 0 0 5.941-1.224c.133-.047.268-.083.39-.132.53-.173 1-.334 1.412-.5.135-.047.269-.1.385-.154.485-.2.866-.39 1.163-.546.135-.078.256-.144.347-.2a4.244 4.244 0 0 0 .371-.234 3.312 3.312 0 0 1 3.293 2.193 4.841 4.841 0 0 0 .995 1.426 2.421 2.421 0 0 0 2.919.39 1.652 1.652 0 0 0 .742-.917v4.05H1846.4a3.928 3.928 0 0 1 2.5-3.706z" transform="translate(-1547.022 -1274.247)"/>
            <path id="路径_1941" data-name="路径 1941" class="cls-8" d="M1905.079 1530.683a.307.307 0 0 1-.1.019.221.221 0 0 1-.185-.1l-1.246-2.16c.138-.045.268-.083.393-.128l1.214 2.107a.2.2 0 0 1-.078.265z" transform="translate(-1594.268 -1282.113)"/>
            <path id="路径_1942" data-name="路径 1942" class="cls-8" d="M1915.534 1526.916a.175.175 0 0 1-.1.024.216.216 0 0 1-.185-.1l-1.253-2.173c.137-.052.269-.1.385-.154l1.239 2.147a.174.174 0 0 1-.09.258z" transform="translate(-1602.906 -1278.972)"/>
            <path id="路径_1943" data-name="路径 1943" class="cls-8" d="M1924.535 1522.7a.318.318 0 0 1-.1.019.2.2 0 0 1-.173-.1l-1.288-2.231c.139-.078.255-.142.347-.2l1.3 2.253a.193.193 0 0 1-.086.259z" transform="translate(-1610.321 -1275.4)"/>
            <path id="路径_1944" data-name="路径 1944" class="cls-4" d="M2126.79 1525.842h23.4l-.173-.648-.1-.378-.79-3.019c-.223.766-1.5 1.109-2.57 1.263a3.186 3.186 0 0 1-3.1-1.528 5.258 5.258 0 0 1-.389-.739 3 3 0 0 0-3.178-2.089 3.2 3.2 0 0 1-.347.234l-.329.2q-.529.3-1.085.546a4.028 4.028 0 0 1-.366.155c-.383.163-.82.331-1.317.5-.12.048-.241.085-.373.132a32.585 32.585 0 0 1-5.56 1.223 4.732 4.732 0 0 0-.9.246 5.52 5.52 0 0 0-.48.2 3.937 3.937 0 0 0-2.343 3.702z" transform="translate(-1778.816 -1274.152)"/>
            <path id="路径_1945" data-name="路径 1945" class="cls-8" d="M2181.77 1530.683a.287.287 0 0 1-.091.019.2.2 0 0 1-.172-.1l-1.167-2.16c.128-.045.252-.083.368-.128l1.141 2.107a.2.2 0 0 1-.079.262z" transform="translate(-1823.085 -1282.113)"/>
            <path id="路径_1946" data-name="路径 1946" class="cls-8" d="M2191.523 1526.916a.174.174 0 0 1-.09.024.206.206 0 0 1-.173-.1l-1.18-2.173c.129-.052.252-.1.362-.154l1.159 2.147a.186.186 0 0 1-.078.258z" transform="translate(-1831.137 -1278.972)"/>
            <path id="路径_1947" data-name="路径 1947" class="cls-8" d="M2199.854 1522.7a.293.293 0 0 1-.1.019.19.19 0 0 1-.173-.1l-1.213-2.231c.13-.078.239-.142.329-.2l1.213 2.253a.2.2 0 0 1-.056.259z" transform="translate(-1837.99 -1275.4)"/>
            <path id="路径_1948" data-name="路径 1948" class="cls-9" d="m1920 780.7 20.1 119.008h-12.5l-26.673-89.746-7.905 20.138a9.3 9.3 0 0 0-.9 4.68l.693 64.923H1879.3l-5.974-66.43a9.36 9.36 0 0 1 .275-3.65l8.429-53.035 15.683-4.16 21.363.5z" transform="translate(-1569.221 -657.239)"/>
            <path id="路径_1949" data-name="路径 1949" d="m2000.04 920.191.7-.152-2.24-10.339-4.371-3.4-.439.563 4.165 3.237z" transform="translate(-1668.784 -767.907)" style="fill:#3b45bf"/>
            <path id="路径_1950" data-name="路径 1950" class="cls-4" d="M1885.764 577.566h-13.234l3.151-58.74c4.586-3.572 6.33-4.38 13.226-5.546.366-.061 3.5 49.842 3.969 57.427h-.07a7.043 7.043 0 0 1-7.042 6.859z" transform="translate(-1568.624 -443.004)"/>
            <path id="路径_1951" data-name="路径 1951" d="M1970.383 555.343a3.685 3.685 0 0 1 .068.984v.009l.52 7.453 14.681.489-1.733-26.344v-.12l-.017-.277v-.125l-.014-.217-.012-.185-.01-.156v-.118l-.01-.173v-.083l-.012-.2v-.061l-.024-.385v-.067l-1.988-30.362-.67.378-7.279 4.092-4.96-3.454-.113-1.5-1.81 1.448 3.339 48.4z" transform="translate(-1646.72 -436.093)" style="fill:#f9c5a6"/>
            <path id="路径_1952" data-name="路径 1952" class="cls-8" d="M2008.426 585.325a.149.149 0 0 1-.144-.132c-.048-.425-.059-.828-.07-1.213 0-.229-.011-.468-.026-.709-.035-.747-.085-1.506-.135-2.241s-.1-1.5-.133-2.253c0-.231-.012-.461-.016-.693a14.983 14.983 0 0 0-.129-2.047 3.951 3.951 0 0 0-.616-1.482 14.736 14.736 0 0 1-.2-.347.849.849 0 0 1-.115-.717 2.662 2.662 0 0 1 .305-.6 2.282 2.282 0 0 0 .272-.52c.092-.326-.21-.52-.616-.74a1.107 1.107 0 0 1-.576-.693.9.9 0 0 1 .147-.733.155.155 0 0 1 .022-.026.45.45 0 0 0 .1-.2.825.825 0 0 1 .066-.173.115.115 0 0 1 .021-.029 4.318 4.318 0 0 0 .837-1.213c-.347-7.392-.742-14.89-1.125-22.14-.238-4.464-.482-9.082-.712-13.63a.151.151 0 1 1 .3-.016c.23 4.548.475 9.165.712 13.63.385 7.26.782 14.77 1.127 22.184a.137.137 0 0 1-.01.064 4.5 4.5 0 0 1-.893 1.312.765.765 0 0 0-.035.1.751.751 0 0 1-.173.319.6.6 0 0 0-.1.482.821.821 0 0 0 .43.5c.369.2.927.5.759 1.092a2.635 2.635 0 0 1-.305.6 2.479 2.479 0 0 0-.272.52.542.542 0 0 0 .085.475c.064.114.131.23.2.347a4.211 4.211 0 0 1 .655 1.589 15.328 15.328 0 0 1 .133 2.08c0 .222 0 .452.014.678.035.745.085 1.5.133 2.239s.1 1.5.136 2.253c.014.244.02.485.026.718.01.4.021.78.067 1.191a.149.149 0 0 1-.131.173z" transform="translate(-1678.614 -458.995)"/>
            <path id="路径_1953" data-name="路径 1953" class="cls-8" d="M1969.818 520.567a.149.149 0 0 1-.12-.066l-3.314-4.884a.151.151 0 0 1 .04-.21.153.153 0 0 1 .21.04l3.237 4.773 3.373-1.8a.156.156 0 0 1 .151 0l2.658 1.655 5.29-3.586a.151.151 0 0 1 .173.248l-5.373 3.64a.147.147 0 0 1-.163 0l-2.669-1.66-3.415 1.823a.17.17 0 0 1-.078.027z" transform="translate(-1646.19 -444.742)"/>
            <path id="路径_1954" data-name="路径 1954" class="cls-8" d="M1997.39 557.411a.669.669 0 1 1-.179-.481.669.669 0 0 1 .179.481z" transform="translate(-1670.738 -478.913)"/>
            <path id="路径_1955" data-name="路径 1955" class="cls-8" d="M2000.96 643.021a.669.669 0 1 1-.179-.481.669.669 0 0 1 .179.481z" transform="translate(-1673.689 -549.685)"/>
            <path id="路径_1956" data-name="路径 1956" class="cls-8" d="M2004.67 724.351a.669.669 0 1 1-.179-.481.669.669 0 0 1 .179.481z" transform="translate(-1676.755 -616.92)"/>
            <path id="路径_1957" data-name="路径 1957" class="cls-8" d="M2010.51 819.791a.669.669 0 1 1-.179-.481.669.669 0 0 1 .179.481z" transform="translate(-1681.584 -695.818)"/>
            <path id="矩形_427" data-name="矩形 427" class="cls-12" transform="rotate(-15.12 205.959 -1107.06)" d="M0 0h1.804v125.888H0z"/>
            <path id="路径_1958" data-name="路径 1958" class="cls-4" d="m2078.068 559.937-.131.1a7.653 7.653 0 0 1-4.109 1.435l1.57 11.5h-11.843a7.472 7.472 0 0 1-7.392-6.376l-3.813-58.87 9.5 1.787a21.339 21.339 0 0 1 7.4 3.151c9.543 6.03 11.65 41.095 11.65 41.095a7.068 7.068 0 0 1-2.832 6.178z" transform="translate(-1717.278 -438.408)"/>
            <path id="路径_1959" data-name="路径 1959" d="m1973.192 782.055-4.993.319-7.8 1.473a.631.631 0 0 1-.693-.36.188.188 0 0 1-.023-.049.684.684 0 0 1 .078-.553.636.636 0 0 1-.9-.3.629.629 0 0 1 .446-.789.682.682 0 0 1-.577-.468.22.22 0 0 1-.012-.055.6.6 0 0 1 .367-.679l3.363-1.387-2.875.022a.494.494 0 0 1-.487-.39.508.508 0 0 1 .458-.614l4.186-.433 1.577-.674-.657-2.227 2.754.867a2.332 2.332 0 0 1 1.631 1.431l1.213.061 2.844-.771z" transform="translate(-1639.866 -659.273)" style="fill:#ffc0c0"/>
            <path id="路径_1960" data-name="路径 1960" class="cls-14" d="M1961.729 807.482a.1.1 0 0 1-.088-.062.094.094 0 0 1 0-.072.1.1 0 0 1 .053-.049l3.867-1.445a.095.095 0 0 1 .119.128.094.094 0 0 1-.053.049l-3.866 1.445a.115.115 0 0 1-.032.006z" transform="translate(-1642.285 -684.864)"/>
            <path id="路径_1961" data-name="路径 1961" class="cls-14" d="M1964.324 814.08a.1.1 0 0 1-.089-.064.1.1 0 0 1 0-.072.093.093 0 0 1 .054-.048l4-1.374a.094.094 0 0 1 .073 0 .093.093 0 0 1 .048.054.1.1 0 0 1-.059.121l-3.994 1.374z" transform="translate(-1644.431 -690.377)"/>
            <path id="路径_1962" data-name="路径 1962" class="cls-4" d="m2040.535 757.47-1.358 11.668-14.614 1.485a3.692 3.692 0 0 1-.189-1.889c.321-2.163 1.459-4.368.623-6.56a2.9 2.9 0 0 0-1.907-1.825z" transform="translate(-1693.089 -644.872)"/>
            <path id="路径_1963" data-name="路径 1963" class="cls-4" d="m2040.532 757.47-1.353 11.669-14.616 1.485a3.7 3.7 0 0 1-.187-1.889c.029-.21.073-.426.114-.638l.56-5.768c-.019-.054-.036-.1-.053-.156a2.9 2.9 0 0 0-1.907-1.823z" transform="translate(-1693.089 -644.872)"/>
            <path id="路径_1964" data-name="路径 1964" class="cls-15" d="M2078.921 599.21a.12.12 0 1 0-.237.031l3.529 26.59-13.092 2.161v.244l13.247-2.187a.118.118 0 0 0 .1-.133z" transform="translate(-1731.141 -513.953)"/>
            <path id="路径_1965" data-name="路径 1965" class="cls-15" d="m2091.434 817.5-18.594 1.9v.241l18.618-1.906a.121.121 0 0 0 .107-.134.121.121 0 0 0-.131-.101z" transform="translate(-1734.217 -694.495)"/>
            <path id="路径_1966" data-name="路径 1966" class="cls-8" d="M1709.043 572.768h-.035a.146.146 0 0 1-.106-.173c0-.033.881-3.345 5.094-2.822a3.966 3.966 0 0 0 3.142-.667 2.984 2.984 0 0 0 1.012-1.929.146.146 0 0 1 .146-.137h.009a.148.148 0 0 1 .137.154 3.247 3.247 0 0 1-1.116 2.137 4.278 4.278 0 0 1-3.366.731c-3.948-.49-4.766 2.574-4.775 2.6a.146.146 0 0 1-.142.106z" transform="translate(-1433.352 -487.446)"/>
            <path id="路径_1967" data-name="路径 1967" class="cls-8" d="M1708.241 569.6a.9.9 0 1 1 .1 0 1.021 1.021 0 0 1-.1 0zm0-1.622h-.071a.665.665 0 0 0-.591.731.652.652 0 0 0 .243.447.666.666 0 1 0 .419-1.182z" transform="translate(-1432.018 -487.985)"/>
            <path id="路径_1968" data-name="路径 1968" class="cls-8" d="M2037.15 817.937a.958.958 0 1 1 .956-.958.959.959 0 0 1-.956.958zm0-1.624a.666.666 0 1 0 .664.666.665.665 0 0 0-.664-.666z" transform="translate(-1703.918 -693.274)"/>
            <path id="路径_1969" data-name="路径 1969" class="cls-9" d="M2020.461 774.08a6.417 6.417 0 0 0-.539 2.586l2.519-.537a2.9 2.9 0 0 0-1.98-2.049z" transform="translate(-1690.456 -658.603)"/>
            <path id="路径_1970" data-name="路径 1970" class="cls-8" d="M2050.438 779.564a.16.16 0 0 1-.146-.1c-.555-1.26.009-3.6.394-4.882a7.653 7.653 0 0 0 .3-2.976 4.086 4.086 0 0 0-1.148-2.723.161.161 0 0 1-.01-.225.158.158 0 0 1 .224-.011 4.4 4.4 0 0 1 1.251 2.926 8 8 0 0 1-.308 3.1c-.3 1-.94 3.453-.408 4.662a.158.158 0 0 1-.08.21.17.17 0 0 1-.069.019z" transform="translate(-1715.156 -654.082)"/>
            <path id="路径_1971" data-name="路径 1971" d="m2045.09 502.52 1.258.906-1.191.7z" transform="translate(-1711.276 -434.109)" style="fill:#86a430"/>
            <path id="路径_1972" data-name="路径 1972" class="cls-17" d="M1390.691 247.29c22.548-22.848 57.368 3.491 79.907-19.356-3.293-13.741-6.988-27.211-10.286-40.944-22.547 22.848-56.965-3.768-79.512 19.08l9.891 41.22z" transform="translate(-1162.118 -173.265)"/>
            <path id="路径_1973" data-name="路径 1973" class="cls-4" d="M1080.556 1467.766s-2.75 1.386-9.576-1.177l1.182-3.789h5.981l2.324 1.861z" transform="translate(-905.995 -1227.957)"/>
            <path id="路径_1974" data-name="路径 1974" class="cls-7" d="M1043.222 1455.628s-1.906-1.014-3.906 1.13a4.565 4.565 0 0 1-4.3 1.531l-1.146-.173 3.5-9.985 7.662 1.975z" transform="translate(-875.317 -1215.829)"/>
            <path id="路径_1975" data-name="路径 1975" class="cls-4" d="M1049.457 1497.555a4.885 4.885 0 0 0-.414-.376 5.07 5.07 0 0 0-.821-.565 34.769 34.769 0 0 1-5.208-3.224c-.115-.092-.226-.173-.326-.262a23.591 23.591 0 0 1-1.475-1.258c-.39-.373-.693-.693-.913-.947l-.262-.317a3.772 3.772 0 0 1-.272-.362s-1.907-1.01-3.9 1.133a4.8 4.8 0 0 1-2.947 1.574s-1.882-.714-1.8-2.215l-.7 2-.735 2.1 20.832 7.3a4.225 4.225 0 0 0-1.059-4.581z" transform="translate(-871.853 -1250.448)"/>
            <path id="路径_1976" data-name="路径 1976" class="cls-8" d="m1031.085 1511.9-.135.385 15.909 5.579a.194.194 0 0 0 .173 0 .213.213 0 0 0 .105-.132 2.774 2.774 0 0 1 3.2-2.007.2.2 0 0 0 .173-.064 6.6 6.6 0 0 0-.414-.373 3.153 3.153 0 0 0-3.293 2.128z" transform="translate(-872.903 -1268.547)"/>
            <path id="路径_1977" data-name="路径 1977" class="cls-8" d="M1093.336 1510.039a.264.264 0 0 0 .085.052.217.217 0 0 0 .213-.043l1.953-1.776c-.116-.09-.227-.173-.327-.262l-1.906 1.733a.215.215 0 0 0-.018.296z" transform="translate(-924.435 -1265.331)"/>
            <path id="路径_1978" data-name="路径 1978" class="cls-8" d="M1084.64 1502.8a.171.171 0 0 0 .081.059.216.216 0 0 0 .213-.044l1.978-1.783a8.593 8.593 0 0 1-.312-.286l-1.941 1.766a.2.2 0 0 0-.071.14.2.2 0 0 0 .052.148z" transform="translate(-917.244 -1259.329)"/>
            <path id="路径_1979" data-name="路径 1979" class="cls-8" d="M1077.32 1495.6a.279.279 0 0 0 .09.054.2.2 0 0 0 .2-.038l2.017-1.835c-.1-.123-.193-.229-.262-.319l-2.035 1.842a.214.214 0 0 0-.01.296z" transform="translate(-911.193 -1253.303)"/>
            <path id="路径_1980" data-name="路径 1980" class="cls-4" d="M1379.785 1492.172a14.486 14.486 0 0 1-14.385-.487c.007 0 11.281-5.46 14.385.487z" transform="translate(-1149.388 -1249.944)"/>
            <path id="路径_1981" data-name="路径 1981" class="cls-7" d="M1376.342 1486.026s-2.144-.323-3.314 2.361a4.557 4.557 0 0 1-3.551 2.866l-1.137.22V1480.9l7.886-.671z" transform="translate(-1151.818 -1242.366)"/>
            <path id="路径_1982" data-name="路径 1982" class="cls-4" d="M1388.017 1517.25a4.688 4.688 0 0 0-.51-.212 4.833 4.833 0 0 0-.963-.267 35.148 35.148 0 0 1-5.985-1.314c-.137-.05-.271-.092-.4-.142a18.365 18.365 0 0 1-1.423-.532 3.825 3.825 0 0 1-.387-.173c-.49-.222-.88-.423-1.17-.589a6.74 6.74 0 0 1-.347-.215 3.1 3.1 0 0 1-.378-.253s-2.144-.321-3.31 2.361a4.807 4.807 0 0 1-2.253 2.464s-2.01-.05-2.427-1.5v4.349h22.082a4.272 4.272 0 0 0-2.529-3.977z" transform="translate(-1151.925 -1269.903)"/>
            <path id="路径_1983" data-name="路径 1983" class="cls-8" d="M1368.35 1536.883v.418h16.859a.193.193 0 0 0 .152-.062.207.207 0 0 0 .056-.16 2.774 2.774 0 0 1 2.357-2.946.2.2 0 0 0 .145-.118 4.124 4.124 0 0 0-.52-.215 3.156 3.156 0 0 0-2.405 3.1z" transform="translate(-1151.826 -1286.651)"/>
            <path id="路径_1984" data-name="路径 1984" class="cls-8" d="M1428.8 1526.341a.273.273 0 0 0 .1.02.217.217 0 0 0 .187-.111l1.255-2.322c-.139-.049-.27-.09-.4-.139l-1.227 2.267a.215.215 0 0 0 .083.284z" transform="translate(-1201.71 -1278.376)"/>
            <path id="路径_1985" data-name="路径 1985" class="cls-8" d="M1418.215 1522.3a.177.177 0 0 0 .1.028.218.218 0 0 0 .187-.111l1.269-2.336a3.972 3.972 0 0 1-.388-.173l-1.248 2.309a.2.2 0 0 0 .083.284z" transform="translate(-1192.956 -1275.003)"/>
            <path id="路径_1986" data-name="路径 1986" class="cls-8" d="M1409.076 1517.807a.286.286 0 0 0 .1.021.2.2 0 0 0 .173-.1l1.3-2.4c-.139-.083-.257-.153-.347-.215l-1.311 2.413a.213.213 0 0 0 .085.281z" transform="translate(-1185.405 -1271.2)"/>
            <path id="路径_1987" data-name="路径 1987" class="cls-9" d="M1047 855.909a8.8 8.8 0 0 0 6.631 2.312 16.786 16.786 0 0 1 3.307-.324 5.344 5.344 0 0 1 3.791 2.6l21.2-58.818a28.1 28.1 0 0 0 1.906-10.212l.081-28.24 15.746 29.374a16.757 16.757 0 0 1 2.127 8.468l.393 61.354a7.9 7.9 0 0 0 1.865.6 8.532 8.532 0 0 0 4.211-.243 15.964 15.964 0 0 0 1.863-.8 5.512 5.512 0 0 1 1.907-.411 6.831 6.831 0 0 1 2.426.279 4.245 4.245 0 0 1 2.019 1.059h.092l2.707-64.727a15.048 15.048 0 0 0-.97-7.212l-19.857-55.558c-19.049-18.973-39.122 5.546-39.122 5.546l6.773 46.551a28.158 28.158 0 0 1-.555 11.181z" transform="translate(-886.171 -620.684)"/>
            <path id="路径_1988" data-name="路径 1988" class="cls-5" d="M1124.631 433.108s2.6-.919 1.864-6.207-1.2-7.591-1.2-7.591l-16.118 2.818 3.158 18.742 13.359-2.1z" transform="translate(-937.574 -365.32)"/>
            <path id="路径_1989" data-name="路径 1989" class="cls-4" d="M1107.209 413.522s4.581-1.5 3.187-5.224c0 0-1.848 1.359-2.849.449a2.744 2.744 0 0 1-.866-2.392 1.4 1.4 0 0 1 1.976-1.118 3.7 3.7 0 0 0 3.563-.173 4.034 4.034 0 0 0 2.061-2.579 2.536 2.536 0 0 1 .784-1.352c1.213-1.1 3.775-2.733 6.73-.4 0 0 2.553-2.265 1.825-4.333s-2.652-.669-3.442.23c0 0 .77-2.6-.586-2.733s-3.236 1.536-3.236 1.536-.6-.913-2.236-.061a4.506 4.506 0 0 0-1.679 1.53c-.531.809-1.56 2.1-2.669 2.08a4.924 4.924 0 0 1-1.9-.666 2.318 2.318 0 0 0-2.222.283c-1.213.659-1.34 1.851-1.165 3.128z" transform="translate(-933.643 -344.303)"/>
            <path id="路径_1990" data-name="路径 1990" class="cls-18" d="M1157.773 495.25a7.068 7.068 0 0 1-8.5-.77s1.548 4.141 8.815 2.387z" transform="translate(-970.716 -427.462)"/>
            <path id="路径_1991" data-name="路径 1991" class="cls-5" d="M1133.05 523.087a6.68 6.68 0 0 0 12.612-2.347z" transform="translate(-957.307 -449.171)"/>
            <path id="路径_1992" data-name="路径 1992" d="M1319.78 565.288a.319.319 0 0 1-.305-.231l-3.083-10.98a.316.316 0 0 1 .608-.173l3.078 10.983a.314.314 0 0 1-.218.388.286.286 0 0 1-.08.013z" transform="translate(-1108.863 -476.397)" style="fill:#d95b4a"/>
            <path id="路径_1993" data-name="路径 1993" class="cls-20" d="m1152.245 562.2-17 4.48-13.515-52.539.828-.347 9.12 1.471 3.917-4.51-.277-1.244 1.825 1.854z" transform="translate(-947.949 -439.887)"/>
            <path id="路径_1994" data-name="路径 1994" class="cls-8" d="M1194.159 590.353a.14.14 0 0 0 .085-.161c-.088-.385-.2-.74-.316-1.085a39.84 39.84 0 0 1-.2-.626c-.2-.664-.391-1.341-.575-2s-.376-1.338-.577-2c-.064-.2-.134-.407-.2-.6a13.925 13.925 0 0 1-.52-1.828 3.629 3.629 0 0 1 .08-1.482c.023-.118.045-.241.066-.362a.785.785 0 0 0-.121-.662 2.408 2.408 0 0 0-.45-.425 2.212 2.212 0 0 1-.4-.374c-.173-.255.023-.52.307-.836a1.018 1.018 0 0 0 .291-.78.837.837 0 0 0-.346-.594l-.028-.016a.407.407 0 0 1-.147-.146.837.837 0 0 0-.111-.13.154.154 0 0 0-.027-.019 4.006 4.006 0 0 1-1.1-.8 3210.962 3210.962 0 0 1-5.86-19.672 5067.308 5067.308 0 0 0-3.591-12.113.139.139 0 0 0-.267.08c1.213 4.04 2.426 8.146 3.591 12.113a3220.462 3220.462 0 0 0 5.869 19.7.152.152 0 0 0 .031.054 4.144 4.144 0 0 0 1.184.867.818.818 0 0 1 .062.078.673.673 0 0 0 .243.227.552.552 0 0 1 .234.39.766.766 0 0 1-.222.567c-.26.288-.653.724-.324 1.187a2.39 2.39 0 0 0 .449.425 2.1 2.1 0 0 1 .4.374.5.5 0 0 1 .075.44c-.021.12-.043.241-.066.357a3.935 3.935 0 0 0-.08 1.591 13.987 13.987 0 0 0 .52 1.861l.2.6c.2.66.392 1.34.575 1.995s.376 1.336.577 2c.062.218.132.43.2.634.116.347.224.693.31 1.061a.139.139 0 0 0 .173.1z" transform="translate(-996.241 -468.024)"/>
            <path id="路径_1995" data-name="路径 1995" class="cls-8" d="M1136.336 524.345a.134.134 0 0 0 .09-.088l1.59-4.692a.139.139 0 0 0-.09-.173.141.141 0 0 0-.173.09l-1.56 4.572-3.467-.73a.144.144 0 0 0-.133.043l-1.934 2.158-7.513-3.142a.139.139 0 0 0-.173.09.14.14 0 0 0 .09.173l7.607 3.16a.135.135 0 0 0 .146-.04l1.943-2.165 3.508.744a.111.111 0 0 0 .069 0z" transform="translate(-948.971 -448.051)"/>
            <path id="路径_1996" data-name="路径 1996" class="cls-8" d="M1191.492 563.063a.619.619 0 1 0 .347-.8.619.619 0 0 0-.347.8z" transform="translate(-1005.585 -483.458)"/>
            <path id="路径_1997" data-name="路径 1997" class="cls-8" d="M1214.8 638.892a.619.619 0 1 0 .346-.8.619.619 0 0 0-.346.8z" transform="translate(-1024.849 -546.146)"/>
            <path id="路径_1998" data-name="路径 1998" class="cls-8" d="M1236.725 711.01a.621.621 0 1 0 .347-.8.62.62 0 0 0-.347.8z" transform="translate(-1042.978 -605.764)"/>
            <path id="路径_1999" data-name="路径 1999" class="cls-20" d="m1122.453 526.28-.463 1.72.816-.274z" transform="translate(-948.164 -453.751)"/>
            <path id="路径_2000" data-name="路径 2000" class="cls-4" d="m894.083 589.293-1.063-4.669-13.062-48.414-5.693 1.248a26.876 26.876 0 0 0-16.382 10.342l-1.005 1.43-2.317 3.312-11.843 16.871-4.7 3.146-3.8 2.551-4.95 3.317v12.529l21.065-11.167a16.947 16.947 0 0 0 4.442-3.884l.9-.983 2.437-2.659 12.319-13.434 4.853 44.572 10.572-1.794a10.193 10.193 0 0 0 8.227-12.316z" transform="translate(-706.177 -461.96)"/>
            <path id="路径_2001" data-name="路径 2001" class="cls-4" d="m1277.114 517.5-5.96 3.047-3.35 1.716-10.669 5.453q-5.912-2.87-11.838-5.719c-1.4-.681-2.806-1.357-4.2-2.033l-.137-.062c-3.35-1.626-6.565-3.511-10.1-4.692a33.544 33.544 0 0 0-16.5-1.489l-3.733.745 13.139 44.639 2.7 8.607a9.782 9.782 0 0 0 11.468 6.619l10.723-2.4-16.109-39.97 20.29 8.763a11.973 11.973 0 0 0 3.068.558 16.742 16.742 0 0 0 5.532-.6 10.146 10.146 0 0 0 2.407-1.04l13.271-9.565z" transform="translate(-1021.433 -442.987)"/>
            <path id="路径_2002" data-name="路径 2002" d="M1255.1 846.721a.3.3 0 0 1-.3-.284l-.735-12.756a.3.3 0 0 1 .073-.215l3.9-4.506a.3.3 0 1 1 .458.4l-3.822 4.413.728 12.631a.3.3 0 0 1-.284.321z" transform="translate(-1057.342 -703.874)" style="fill:#3944c7"/>
            <path id="路径_2003" data-name="路径 2003" class="cls-17" d="M939.16 593.77c-56.232-11.527-97.263 45.546-153.5 34.018L773 570.622c56.232 11.527 97.263-45.546 153.5-34.018q6.323 28.584 12.66 57.166z" transform="translate(-659.66 -461.006)"/>
            <path id="路径_2004" data-name="路径 2004" class="cls-5" d="M1665.39 575.77a2.863 2.863 0 0 1 2.359 1.861l.485 1.321-1.948.421z" transform="translate(-1397.384 -494.663)"/>
            <path id="路径_2005" data-name="路径 2005" class="cls-5" d="m1654.089 593.083-5.546 1.354a.814.814 0 0 0-.6.981.811.811 0 0 0 .866.622l5.576-.456a.9.9 0 0 0 .82-.985l-.071-.718a.9.9 0 0 0-1.028-.8z" transform="translate(-1382.942 -508.967)"/>
            <path id="路径_2006" data-name="路径 2006" class="cls-5" d="m1652.969 607.05-6.146.428a.813.813 0 0 0-.763.866.961.961 0 0 0 .737.765l6.009.459a.9.9 0 0 0 .979-.827l.053-.719a.9.9 0 0 0-.867-.966z" transform="translate(-1381.404 -520.522)"/>
            <path id="路径_2007" data-name="路径 2007" class="cls-5" d="m1656.729 619.11-5.337.071a.789.789 0 0 0-.723.815.922.922 0 0 0 .579.8l5.153.8a.827.827 0 0 0 .908-.766l.1-.714a.853.853 0 0 0-.68-1.006z" transform="translate(-1385.215 -530.492)"/>
            <path id="路径_2008" data-name="路径 2008" class="cls-5" d="m1664.817 630.162-3.892-.506a.583.583 0 0 0-.61.52.671.671 0 0 0 .347.645l3.666 1.123a.607.607 0 0 0 .74-.463l.147-.508a.626.626 0 0 0-.388-.809z" transform="translate(-1393.187 -539.209)"/>
            <path id="路径_2009" data-name="路径 2009" class="cls-6" d="M1666.343 630.3h-.015l-3.843-.47a.126.126 0 0 1-.107-.137.123.123 0 0 1 .137-.107l3.846.473a.123.123 0 0 1-.016.244z" transform="translate(-1394.893 -539.151)"/>
            <path id="路径_2010" data-name="路径 2010" class="cls-6" d="m1660.786 619.068-5.373-.211a.123.123 0 1 1 0-.246l5.373.213a.121.121 0 0 1 .118.126.123.123 0 0 1-.118.118z" transform="translate(-1389.035 -530.078)"/>
            <path id="路径_2011" data-name="路径 2011" class="cls-6" d="M1653.852 607.022a.123.123 0 0 1-.123-.114.125.125 0 0 1 .115-.13l5.458-.379a.118.118 0 0 1 .089.029.12.12 0 0 1 .041.085.123.123 0 0 1-.115.13l-5.458.38z" transform="translate(-1387.745 -519.982)"/>
            <path id="路径_2012" data-name="路径 2012" class="cls-6" d="M1670.821 593.7a.121.121 0 0 1-.029-.241l1.56-.381a.122.122 0 0 1 .057.238l-1.56.381a.078.078 0 0 1-.028.003z" transform="translate(-1401.761 -508.971)"/>
            <path id="路径_2013" data-name="路径 2013" class="cls-5" d="M774.931 778.15a2.867 2.867 0 0 0-1.418 2.657l.089 1.4 1.953-.4z" transform="translate(-660.079 -661.968)"/>
            <path id="路径_2014" data-name="路径 2014" class="cls-5" d="m768.959 796.527 5.631-1a.815.815 0 0 1 .943.655.814.814 0 0 1-.536.917l-5.286 1.825a.9.9 0 0 1-1.147-.57l-.224-.693a.9.9 0 0 1 .619-1.144z" transform="translate(-655.772 -676.325)"/>
            <path id="路径_2015" data-name="路径 2015" class="cls-5" d="m773.022 804.858 5.8-2.089a.816.816 0 0 1 1.04.48.96.96 0 0 1-.367 1l-5.317 2.846a.9.9 0 0 1-1.229-.362l-.347-.636a.9.9 0 0 1 .409-1.236z" transform="translate(-659.247 -682.28)"/>
            <path id="路径_2016" data-name="路径 2016" class="cls-5" d="m778.882 815.833 4.917-2.08a.788.788 0 0 1 .988.454.922.922 0 0 1-.206.969l-4.392 2.811a.831.831 0 0 1-1.141-.336l-.38-.614a.849.849 0 0 1 .215-1.2z" transform="translate(-664.22 -691.358)"/>
            <path id="路径_2017" data-name="路径 2017" class="cls-5" d="m784.426 828.59 3.359-2.03a.58.58 0 0 1 .766.229.676.676 0 0 1-.048.726l-2.9 2.5a.61.61 0 0 1-.866-.127l-.347-.406a.625.625 0 0 1 .031-.9z" transform="translate(-668.928 -701.935)"/>
            <path id="路径_2018" data-name="路径 2018" class="cls-6" d="M785.977 828.62a.121.121 0 0 1-.062-.227l3.33-1.981a.121.121 0 0 1 .1-.017.12.12 0 0 1 .078.059.123.123 0 0 1-.042.173l-3.33 1.981a.121.121 0 0 1-.069.012z" transform="translate(-670.285 -701.848)"/>
            <path id="路径_2019" data-name="路径 2019" class="cls-6" d="M779.427 816.116a.123.123 0 0 1-.054-.232l4.836-2.357a.12.12 0 0 1 .163.056.121.121 0 0 1-.056.163l-4.835 2.357a.119.119 0 0 1-.054.013z" transform="translate(-664.874 -691.202)"/>
            <path id="路径_2020" data-name="路径 2020" class="cls-6" d="M774.94 805.788a.123.123 0 0 1-.042-.238l5.153-1.849a.123.123 0 0 1 .083.231l-5.149 1.849a.121.121 0 0 1-.045.007z" transform="translate(-661.165 -683.087)"/>
            <path id="路径_2021" data-name="路径 2021" class="cls-6" d="M774.488 798.9a.125.125 0 1 1-.024-.248l1.588-.281a.122.122 0 1 1 .043.241l-1.587.281z" transform="translate(-660.777 -678.682)"/>
            <path id="路径_2022" data-name="路径 2022" class="cls-4" d="M460.91 1069.083s8.123 8.8 19.321 6.428L484.97 1060z" transform="translate(-401.66 -894.968)"/>
            <path id="路径_2023" data-name="路径 2023" class="cls-4" d="m431.188 1168.609.9-1.689-1.054-1.16s-.659 2.178.154 2.849z" transform="translate(-376.752 -982.398)"/>
            <path id="路径_2024" data-name="路径 2024" class="cls-4" d="M659.088 1484.466a10.128 10.128 0 0 0-2.239-.085c-1.054.1-.347 1.984-.347 1.984l2.158-.823z" transform="translate(-563.161 -1245.775)"/>
            <path id="路径_2025" data-name="路径 2025" class="cls-5" d="M617.337 1149.25c-.894-9.04-5.877-31.767 2.317-44.452 0 0-2.068-13.675 1.893-26.578l12.851 17.453-10.954 55.074c-3.244 2.323-4.46 1.722-6.107-1.497z" transform="translate(-529.06 -910.031)"/>
            <path id="路径_2026" data-name="路径 2026" class="cls-5" d="M430.928 1051.576c4.68.854 11.453 4.506 16.238 9.083 0 0-.239-15.708 1.582-27.543 0 0 8.7-3.624 16.592 10.052l-6.96 25.76a7.627 7.627 0 0 1-5.782 5.546 7.608 7.608 0 0 1-6.17-1.361 109.587 109.587 0 0 1-18.827-17.6 37.251 37.251 0 0 0 3.327-3.937z" transform="translate(-374.123 -872.384)"/>
            <path id="路径_2027" data-name="路径 2027" class="cls-9" d="M460.91 864.984c19.106-3.047 24.6 3.64 32.715 14.624a33.611 33.611 0 0 0 19.051 12.985c.867-3.248 2.456-20.119 2.6-21.75 1.53-16.118-1.144-31.327-4-42.079a157.522 157.522 0 0 0-1.387-4.874 103.742 103.742 0 0 0-3.863-10.78h-22.552c-4.634 13.427-22.564 51.874-22.564 51.874z" transform="translate(-401.66 -690.868)"/>
            <path id="路径_2028" data-name="路径 2028" class="cls-4" d="M656.163 1531.066s-.758-4.571-3.433-5.626l5.373-.44 5.72 1.012 3.515.965v3.524a.565.565 0 0 1-.563.565z" transform="translate(-560.234 -1279.376)"/>
            <path id="路径_2029" data-name="路径 2029" class="cls-4" d="M636.812 1531.413h-1.433l-.879-5.362s2.352-1.185 3.681-.307z" transform="translate(-545.164 -1279.723)"/>
            <path id="路径_2030" data-name="路径 2030" class="cls-9" d="m628.39 1485.529 1.061 7.106a5.857 5.857 0 0 1 .8-.19l.333-.052a7.875 7.875 0 0 1 5.856 1.518h10.779s.04-3.075-1.934-3.56c-1.433-.347-4.368-.147-6.794-2.08-.09-.074-.173-.142-.265-.22a8.669 8.669 0 0 1-2.18-3.051l-1.04.808a5.44 5.44 0 0 1-3.7 1.161 2.487 2.487 0 0 1-1.123-.3l-.428-.278-.328-.2z" transform="translate(-540.113 -1246.309)"/>
            <path id="路径_2031" data-name="路径 2031" class="cls-9" d="M682.832 1481.884c.5-1.125 1.47-1.751 2.2-1.424a1.238 1.238 0 0 1 .664 1.04 2.949 2.949 0 0 1-.267 1.541 3.183 3.183 0 0 1-2.069 1.44l-.149.031-.075-.131a3.865 3.865 0 0 1-.465-1.686 1.993 1.993 0 0 1 .161-.811zm2.217 1a2.521 2.521 0 0 0 .236-1.321.849.849 0 0 0-.425-.723c-.5-.224-1.255.335-1.652 1.213a2.62 2.62 0 0 0 .213 1.988 2.554 2.554 0 0 0 1.628-1.162z" transform="translate(-584.985 -1242.484)"/>
            <path id="路径_2032" data-name="路径 2032" class="cls-9" d="M686.26 1501.906a.206.206 0 0 0 .206.206h4.016a.206.206 0 1 0 0-.413h-4.016a.206.206 0 0 0-.206.207z" transform="translate(-587.953 -1260.114)"/>
            <path id="路径_2033" data-name="路径 2033" class="cls-8" d="M676.659 1504.151a.155.155 0 0 0 .123.057.171.171 0 0 0 .114-.04l1.449-1.309c-.09-.074-.173-.142-.265-.22l-1.411 1.274a.173.173 0 0 0-.01.238z" transform="translate(-579.982 -1260.891)"/>
            <path id="路径_2034" data-name="路径 2034" class="cls-8" d="M670.271 1497.131a.186.186 0 0 1-.135-.061.174.174 0 0 1 .014-.258l1.5-1.357a.183.183 0 0 1 .246.272l-1.506 1.357a.182.182 0 0 1-.119.047z" transform="translate(-574.582 -1254.913)"/>
            <path id="路径_2035" data-name="路径 2035" class="cls-8" d="M665.3 1490.32a.182.182 0 0 1-.123-.319l1.506-1.355a.182.182 0 0 1 .244.27l-1.5 1.358a.186.186 0 0 1-.127.046z" transform="translate(-570.47 -1249.284)"/>
            <path id="路径_2036" data-name="路径 2036" class="cls-8" d="m634.142 1491.943.867 6.149.333-.052-.844-6.007-.328-.2a.154.154 0 0 0-.028.11z" transform="translate(-544.867 -1251.955)"/>
            <path id="路径_2037" data-name="路径 2037" class="cls-4" d="M342.208 1141.54s4.251 1.841 6.586.163l-2.537 4.749-3.946 4.253-2.718 2.427-2.96-1.906a.565.565 0 0 1-.173-.78z" transform="translate(-298.705 -962.376)"/>
            <path id="路径_2038" data-name="路径 2038" class="cls-4" d="m383.44 1115 .776-1.213 4.981 2.167s-.277 2.619-1.733 3.26z" transform="translate(-337.617 -939.436)"/>
            <path id="路径_2039" data-name="路径 2039" class="cls-9" d="m372.242 1129.306-6.555-2.966a5.669 5.669 0 0 1-.27.773l-.137.307a7.88 7.88 0 0 1-4.449 4.1l-5.83 9.051s2.563 1.7 4.04.3c1.071-1.014 2.491-3.589 5.432-4.581.111-.037.213-.071.329-.1a8.706 8.706 0 0 1 3.747-.173l-.113-1.314a5.428 5.428 0 0 1 1.029-3.74 2.449 2.449 0 0 1 .867-.778l.465-.211.347-.164z" transform="translate(-314.106 -949.81)"/>
            <path id="路径_2040" data-name="路径 2040" class="cls-9" d="M410.783 1184.024c.672 1.04.676 2.185.009 2.619a1.259 1.259 0 0 1-1.241 0 2.967 2.967 0 0 1-1.151-1.062 3.179 3.179 0 0 1-.087-2.518l.052-.142h.153a3.86 3.86 0 0 1 1.669.52 1.979 1.979 0 0 1 .596.583zm-2.036 1.324a2.531 2.531 0 0 0 .983.915.846.846 0 0 0 .837.035c.458-.3.4-1.235-.128-2.048a1.158 1.158 0 1 0-1.691 1.1z" transform="translate(-357.987 -996.584)"/>
            <path id="路径_2041" data-name="路径 2041" class="cls-9" d="M398.746 1183.845a.208.208 0 0 0-.286.062l-2.177 3.374a.206.206 0 1 0 .347.224l2.177-3.368a.206.206 0 0 0-.061-.293z" transform="translate(-348.207 -997.322)"/>
            <path id="路径_2042" data-name="路径 2042" class="cls-8" d="M407.936 1171.543a.158.158 0 0 0-.114.075.173.173 0 0 0-.028.116l.314 1.927c.111-.036.213-.071.329-.1l-.309-1.875a.173.173 0 0 0-.192-.143z" transform="translate(-357.749 -987.178)"/>
            <path id="路径_2043" data-name="路径 2043" class="cls-8" d="M416.615 1169.592a.174.174 0 0 1 .123-.083.184.184 0 0 1 .211.153l.324 2a.183.183 0 0 1-.36.059l-.326-2a.173.173 0 0 1 .028-.128z" transform="translate(-365.017 -985.495)"/>
            <path id="路径_2044" data-name="路径 2044" class="cls-8" d="M425.025 1169.13a.173.173 0 0 1 .123-.081.184.184 0 0 1 .211.151l.324 2a.184.184 0 0 1-.362.059l-.329-2a.173.173 0 0 1 .033-.129z" transform="translate(-371.966 -985.115)"/>
            <path id="路径_2045" data-name="路径 2045" class="cls-8" d="m420.11 1133.432-5.633-2.612-.137.307 5.506 2.558.347-.165a.16.16 0 0 0-.083-.088z" transform="translate(-363.161 -953.514)"/>
            <path id="路径_2046" data-name="路径 2046" class="cls-18" d="M534.918 1188.952v4.1l-1.168-5.184z" transform="translate(-461.876 -1000.676)"/>
            <path id="路径_2047" data-name="路径 2047" class="cls-22" d="M336.071 555.353s-.808-.953.184-3.891c.716-2.551 1.962-3.68 4.435-4l.756 6.182s-.902 3.656-5.375 1.709z" transform="translate(-298.201 -471.26)"/>
            <path id="路径_2048" data-name="路径 2048" class="cls-5" d="m304.811 516.971-3.775-2.6-2.529-2.922-.362-2.12a.672.672 0 0 0-.52.721l.1 1.054-2.062-3.544a.728.728 0 0 0-.3.945l1.04 2.189-3.403-2.507a.818.818 0 0 0 .076.971l2.328 2.664-.432.1a.636.636 0 0 0-.362.237l-.629.893 1.057.5.671-.787 1.182.821-.2 1.27-1.926.867-1.348-.52c-.482-.183-1.177.565-1.177.565l2.946 1.967a2.486 2.486 0 0 0 .532.27l3.844.083a23.522 23.522 0 0 1 2.988 1.669c-.045.051 2.261-2.786 2.261-2.786z" transform="translate(-262.223 -438.275)"/>
            <path id="路径_2049" data-name="路径 2049" class="cls-23" d="M310.053 531.513a.1.1 0 0 1-.035-.069.1.1 0 0 1 .094-.111l1.114-.1a.1.1 0 0 1 .113.094.106.106 0 0 1-.094.111l-1.116.1a.1.1 0 0 1-.076-.025z" transform="translate(-276.92 -457.849)"/>
            <path id="路径_2050" data-name="路径 2050" class="cls-23" d="M316.293 525.895a.105.105 0 1 1 .12-.173l1.177.693a.1.1 0 0 1 .036.14.1.1 0 0 1-.14.036l-1.179-.693z" transform="translate(-282.07 -453.273)"/>
            <path id="路径_2051" data-name="路径 2051" class="cls-24" d="m601.448 644.58 13.24 32.93s-4.264-4.355-13.07.305S589 675.64 589 675.64l3.4-10.931-.173-18.371 4.506-1.733z" transform="translate(-507.55 -551.547)"/>
            <path id="路径_2052" data-name="路径 2052" class="cls-24" d="m607.86 634.685-.863 4.44-3.354-.619-.179-2-.854-3.817z" transform="translate(-518.801 -541.718)"/>
            <path id="路径_2053" data-name="路径 2053" class="cls-24" d="m636.9 621.74-4 3.893 2.955 4.04 2.993-1.633-.655-2.421z" transform="translate(-543.841 -532.666)"/>
            <path id="路径_2054" data-name="路径 2054" class="cls-22" d="M703.34 315.563s-5.208-4.023-8.65-.716l5.458 3.855s2.873.965 3.192-3.139z" transform="translate(-594.922 -277.884)"/>
            <path id="路径_2055" data-name="路径 2055" class="cls-5" d="m712.189 318.821-.17 3.028-3.51-.582.269-3.036z" transform="translate(-606.347 -281.759)"/>
            <path id="路径_2056" data-name="路径 2056" class="cls-5" d="M699 259.013a.8.8 0 0 1 1.023.407l1.255 1.641 1.213-5.825a.347.347 0 0 1 .5-.281.562.562 0 0 1 .265.542l-.362 4.148 1.723-4.473a.328.328 0 0 1 .506-.173.564.564 0 0 1 .2.626l-.012.04c.009-.01-1.534 4.449-1.534 4.449l1.814-3.758a.283.283 0 0 1 .378-.151.462.462 0 0 1 .224.556l-1.367 4.092 1.95-2.626c.12-.153.231-.2.388-.068a.406.406 0 0 1 .085.1.543.543 0 0 1 .016.5l-2.929 7.728-3.411-.591s-.229-.811-.463-2.2a40.866 40.866 0 0 0-1.462-4.683z" transform="translate(-598.485 -229.423)"/>
            <path id="路径_2057" data-name="路径 2057" class="cls-4" d="M652.788 362.853c.319 5.134-2.676 5.328-2.676 5.328l.862 4.026c2.509 12.983 13.03 39.863 15.361 45.755l5.581-7.946c-4.414-9.6-9.226-22.7-9.226-22.7a28.542 28.542 0 0 0 1.5-6.4c.317-3.269-3.967-4.68-3.967-4.68l6.109-55.423a4.216 4.216 0 0 1-.22.322 2.142 2.142 0 0 1-2.927.388c-3.517-2.426-5.5-1.426-5.5-1.426l-7.759 36.932 1.283 4.435c.285.868 1.522.476 1.579 1.389z" transform="translate(-557.912 -283.133)"/>
            <path id="路径_2058" data-name="路径 2058" class="cls-4" d="M343.08 547.4s-3.038-1.522-3.317 3.73c0 0 .055 1.624-2.213 4.005l38.129 21.989.017.024 3.262-12.2z" transform="translate(-299.68 -471.043)"/>
            <path id="路径_2059" data-name="路径 2059" class="cls-4" d="m530.135 632.69-7.267 2.037-.045-.016-1.286 12.567c.414.438 7.035 7.487 6.86 10.631 0 0-4.035 5.047-13.456 12.756l7.475 3.241c.043-.029.083-.061.128-.088 0 0 9.394-5.139 10.213-15.772s-.062-20.063-2.622-25.356z" transform="translate(-446.326 -541.718)"/>
            <path id="路径_2060" data-name="路径 2060" class="cls-25" d="M649.977 562.44s5.875 4 9.441 4.073c0 0 0 .106-.016.291a8.12 8.12 0 0 1-6 7.207l-2.411.659a2.427 2.427 0 0 1-2.979-1.733l-1.3-5.13z" transform="translate(-555.258 -483.644)"/>
            <path id="路径_2061" data-name="路径 2061" class="cls-5" d="M600.97 523.55s4.919 9.012-1.2 11.655l1.087 4.148-3.523 3.466-4.334-1.711-3.534-14.236s4.015-10.059 11.504-3.322z" transform="translate(-507.939 -449.573)"/>
            <path id="路径_2062" data-name="路径 2062" class="cls-25" d="m503.537 512.382 3.381 12.39a9.218 9.218 0 0 1-6.572 2.168l-15.406-1.016a3.651 3.651 0 0 1 2.1-1.906 2.282 2.282 0 0 0 1.149-1.1c.291-.622.087-1.35.91-1.594a4.021 4.021 0 0 1 .792-.106.043.043 0 0 0 .048-.064.866.866 0 0 0-.3-.5c-.094-.089-.267-.165-.267-.314 0-.267.591-.456.792-.506a3.213 3.213 0 0 0 1.166-.284c.622-.437.3-1.357-.123-1.8a8.193 8.193 0 0 1-.789-.8 2.219 2.219 0 0 1-.23-1.981 2.853 2.853 0 0 1 1.213-1.518 7.79 7.79 0 0 1 2.213-.712c3.309-.846 5.172-3.813 6.841-6.607a11.283 11.283 0 0 1 4.16-3.813 6.669 6.669 0 0 1 8.666 2.392 15.673 15.673 0 0 1 1.477 2.912s-1.931 1.941-5.707.409-5.908 2.9-5.527 4.354z" transform="translate(-421.525 -433.315)"/>
            <path id="路径_2063" data-name="路径 2063" class="cls-18" d="M626.214 601.89a5.95 5.95 0 0 1-4.754.055s1.466 2.253 5.151 1.5z" transform="translate(-534.384 -516.256)"/>
            <path id="路径_2064" data-name="路径 2064" class="cls-5" d="M585.25 568.614a3.77 3.77 0 0 1-3.12-2.548 1.865 1.865 0 0 1 .776-2.056 1.125 1.125 0 0 1 .932-.154z" transform="translate(-501.815 -484.781)"/>
            <path id="路径_2065" data-name="路径 2065" class="cls-8" d="M617.9 675.329a.173.173 0 0 1-.173-.151c-.024-.153-.52-2.993-1.005-5.739-.5-2.875-.981-5.589-1.005-5.745a15.359 15.359 0 0 0-1.466-2.09.173.173 0 0 1 .045-.262l1.506-.979-1.511-1.26a.18.18 0 0 1 .022-.293l1.315-.787-4.2-14-.4 2.855a.173.173 0 0 1-.081.128.185.185 0 0 1-.151.021l-3.827-1.2a.181.181 0 0 1 .106-.347l3.622 1.137.482-3.456a.174.174 0 1 1 .347-.026l4.489 14.921a.173.173 0 0 1-.08.206l-1.213.73 1.5 1.246a.173.173 0 0 1 .066.149.184.184 0 0 1-.081.14l-1.553.995a12.267 12.267 0 0 1 1.418 2.1c.024.151.52 2.992 1 5.739.5 2.874.981 5.588 1.005 5.744a.173.173 0 0 1-.149.206z" transform="translate(-522.298 -550.226)"/>
            <path id="路径_2066" data-name="路径 2066" class="cls-8" d="M635.143 646.508a.174.174 0 0 1-.128-.062l-2.458-2.8a.18.18 0 0 1 .271-.237l2.333 2.654 2.783-2.728a.18.18 0 1 1 .251.258l-2.919 2.861a.173.173 0 0 1-.133.054z" transform="translate(-543.521 -550.477)"/>
            <path id="路径_2067" data-name="路径 2067" class="cls-17" d="M229.617 141.468a134.364 134.364 0 0 0-82.1 50.222L119.05 173.4a175.537 175.537 0 0 1 107.25-65.6q1.655 16.834 3.317 33.668z" transform="translate(-119.05 -107.8)"/>
            <path id="路径_2068" data-name="路径 2068" class="cls-4" d="M2658.575 1312.509s-1.733 2.282-6.666 1.917l-1.279-9.5a9.364 9.364 0 0 1 7.945 7.583z" transform="translate(-2211.866 -1097.448)"/>
            <path id="路径_2069" data-name="路径 2069" class="cls-4" d="M2316.437 667.462a13.15 13.15 0 0 1 3.024-11.492l4.246 9.588a6.078 6.078 0 0 1-7.27 1.904z" transform="translate(-1935.348 -560.963)"/>
            <path id="路径_2070" data-name="路径 2070" class="cls-5" d="m2338.748 1282.789-12.193 37.147-6.475-.173 3.939-40.22s10.706-6.396 14.729 3.246z" transform="translate(-1938.605 -1074.741)"/>
            <path id="路径_2071" data-name="路径 2071" class="cls-9" d="m2315.039 1526.77-.009-.04-.092-.347.212-4.853h-6.65l-2.5 3.423.035 3.251h7.924a1.135 1.135 0 0 0 1.08-1.435z" transform="translate(-1926.967 -1276.508)"/>
            <path id="路径_2072" data-name="路径 2072" class="cls-9" d="M2306.268 1540.758v3.328h-6.5a.765.765 0 0 1-.729-.794v-.693a1.719 1.719 0 0 1 .031-.328 1.78 1.78 0 0 1 1.2-1.449 1.513 1.513 0 0 1 .458-.073z" transform="translate(-1921.209 -1292.396)"/>
            <path id="路径_2073" data-name="路径 2073" class="cls-8" d="M2309.243 1549.918H2299v-.01a1.748 1.748 0 0 1 .031-.327h10.115z" transform="translate(-1921.179 -1299.696)"/>
            <path id="路径_2074" data-name="路径 2074" class="cls-8" d="M2322.373 1540.137h-3.325a.178.178 0 0 1 0-.357h3.325a.178.178 0 0 1 0 .357z" transform="translate(-1937.605 -1291.595)"/>
            <path id="路径_2075" data-name="路径 2075" class="cls-8" d="M2328.941 1532.977h-1.883a.179.179 0 0 1 0-.357h1.883a.179.179 0 0 1 0 .357z" transform="translate(-1944.227 -1285.675)"/>
            <path id="路径_2076" data-name="路径 2076" class="cls-9" d="M2320.872 1509.54h5.037a.949.949 0 0 1 .934 1.12l-.173.965H2320l-.066-1.078a.95.95 0 0 1 .941-1.007z" transform="translate(-1938.481 -1266.596)"/>
            <path id="路径_2077" data-name="路径 2077" class="cls-9" d="M2685.884 1504.768c.279-.993.979-1.6 1.595-1.386a1.1 1.1 0 0 1 .643.828 2.627 2.627 0 0 1-.045 1.326 2.446 2.446 0 0 1-1.49 1.387l-.115.038-.072-.106a3.44 3.44 0 0 1-.555-1.387 1.783 1.783 0 0 1 .039-.7zm1.874.657a2.245 2.245 0 0 0 .043-1.137.755.755 0 0 0-.416-.575c-.421-.147-.963.386-1.182 1.166a2.409 2.409 0 0 0 .387 1.664 2.042 2.042 0 0 0 1.174-1.118z" transform="translate(-2240.963 -1261.469)"/>
            <path id="路径_2078" data-name="路径 2078" class="cls-9" d="M2689.773 1520.5a.173.173 0 0 0 .186.157l3.2-.333a.176.176 0 0 0-.045-.348l-3.2.331a.173.173 0 0 0-.141.193z" transform="translate(-2244.224 -1275.224)"/>
            <path id="路径_2079" data-name="路径 2079" class="cls-4" d="M2677.891 1508.729a4.1 4.1 0 0 0-.57-.279l.08.828a1.4 1.4 0 0 0 .49-.549z" transform="translate(-2233.931 -1265.695)"/>
            <path id="路径_2080" data-name="路径 2080" class="cls-5" d="M2591.18 1291.29c1.346 7.613 7.368 35.58 8.2 39.98 1.56 2.6 4.7.9 6.831-1.307v-36.906z" transform="translate(-2162.72 -1086.172)"/>
            <path id="路径_2081" data-name="路径 2081" class="cls-9" d="m2638.48 1512.154.366 5.7c.126.464.988.792 1.44.8l14.187.1a13.015 13.015 0 0 0-.412-1.468c-.771-1.666-2.8-1.931-4.245-2.789a12.994 12.994 0 0 1-4.035-4.406 9.65 9.65 0 0 1-2.736 2.39 3.976 3.976 0 0 1-2.183.435 6.6 6.6 0 0 1-2.382-.762z" transform="translate(-2201.822 -1267.051)"/>
            <path id="路径_2082" data-name="路径 2082" class="cls-8" d="M2675.5 1519.3a.183.183 0 0 1-.1-.336 4.464 4.464 0 0 0 1.546-1.781.185.185 0 0 1 .239-.1.174.174 0 0 1 .1.1.178.178 0 0 1 0 .14 4.734 4.734 0 0 1-1.685 1.946.184.184 0 0 1-.1.031z" transform="translate(-2232.277 -1272.821)"/>
            <path id="路径_2083" data-name="路径 2083" class="cls-8" d="M2682.012 1526.532a.174.174 0 1 1-.1-.335 4.481 4.481 0 0 0 1.546-1.782.182.182 0 1 1 .336.141 4.755 4.755 0 0 1-1.685 1.946.169.169 0 0 1-.097.03z" transform="translate(-2237.625 -1278.801)"/>
            <path id="路径_2084" data-name="路径 2084" class="cls-8" d="m2654.692 1552.467-15.489-.346a.186.186 0 0 1-.174-.187.182.182 0 0 1 .187-.173l15.489.347a.184.184 0 0 1 0 .366z" transform="translate(-2202.277 -1301.498)"/>
            <path id="路径_2085" data-name="路径 2085" class="cls-25" d="M2609.764 530.725a14.973 14.973 0 0 1 5.546 2.056 2.712 2.712 0 0 0 1.262.49 2.164 2.164 0 0 1 1.855 1.234c.589 1.454 1.4 1.348 1.785 1.108s1.181.281.712 1.52 1.632-.21 1.98.867-.46 8.492.261 9.638a9.19 9.19 0 0 0 2.773 3.653 1.383 1.383 0 0 1 .533 1.48 1.343 1.343 0 0 0 .682 1.343 1.711 1.711 0 0 1 .966 1.631h-10.529l-.394-2.877-.731 2.877h-21.9l3.264-20.559.866-7.626h4.9a11.04 11.04 0 0 0 6.169 3.165z" transform="translate(-2165.522 -454.809)"/>
            <path id="路径_2086" data-name="路径 2086" class="cls-5" d="m2328.17 610.305-5.251-9-3.149 3.151 3.888 14.359z" transform="translate(-1938.35 -515.777)"/>
            <path id="路径_2087" data-name="路径 2087" class="cls-9" d="M2322.661 644.679a9.221 9.221 0 0 1 .173-2.783c1.12-4.832 5.183-4.726 5.183-4.726l2.467 4.823.948 1.8 2.483 13.605c-.173.121-.334.237-.508.347a9.446 9.446 0 0 1-11.655-1.191 30.67 30.67 0 0 1-3.891-4.624 6.558 6.558 0 0 0 4.8-7.251z" transform="translate(-1936.771 -545.421)"/>
            <path id="路径_2088" data-name="路径 2088" class="cls-4" d="M2401.268 572.249a20.158 20.158 0 0 1 9.793-6.369l-1.574 8.766-3.562 11.368-10.225 10.713a9.448 9.448 0 0 1-3.444 2.414l-2.427-14.292c.12-.176 7.254-7.605 11.439-12.6z" transform="translate(-1996.267 -486.487)"/>
            <path id="路径_2089" data-name="路径 2089" class="cls-9" d="M2328.2 712.977s6.436-2.192 23.421 6.574a11.024 11.024 0 0 0 1.3.454 20.746 20.746 0 0 0 4.1.79c.368.038.758.066 1.156.081a23.824 23.824 0 0 0 5.595-.406 24.963 24.963 0 0 0 5.637-1.83 27.929 27.929 0 0 0 4.384-2.525c.6-.416 1.2-.867 1.8-1.359a12.15 12.15 0 0 1 10.316-1.3 13.89 13.89 0 0 1 6.12 4.723l-.251-12.323v-.246l-.116-5.546-.2-9.479-.52-25.689s-18.765-6.12-23.285-25.708a51.5 51.5 0 0 1-.173-23.744L2376.55 586s-6.345 6.619-8.9 11.231l-.958-10.226-4.931 17.765-8.262 20.819s-1.326 16.618-15.434 34.071l-2.312 12.479-1.764 9.56-1 5.4-2.2 11.872z" transform="translate(-1945.319 -503.12)"/>
            <path id="路径_2090" data-name="路径 2090" class="cls-5" d="m2561.844 564.722-9.657-.822-1.917 4.841.958 10.226a74.22 74.22 0 0 1 8.9-11.231 23.412 23.412 0 0 1 1.716-3.014z" transform="translate(-2128.9 -484.851)"/>
            <path id="路径_2091" data-name="路径 2091" class="cls-4" d="M2567.021 653.038a9.042 9.042 0 0 0 7.821-13.578c-5-8.629-10.882-18.356-12.652-22.645-6.295-15.24-4.383-26.344-4.383-26.344-2.1-8.584 4.2-20.363 4.2-20.363a30.741 30.741 0 0 0-6.449-1.508c-4.863 6.987-10.718 32.462-10.718 32.462-7.773 28.559 7.701 43.693 22.181 51.976z" transform="translate(-2122.692 -488.736)"/>
            <path id="路径_2092" data-name="路径 2092" class="cls-4" d="M2415.643 563.242s-5.272-.478-8.492.347l-1.574 8.766s-6.028 4.52-4.59 8.971l1.316 3.229a4.433 4.433 0 0 1-.415 4.141c-3.08 4.6-10.792 18.763-16.789 52.03 0 0 15.706-18.81 21.366-44.2.001 0 6.291-26.31 9.178-33.284z" transform="translate(-1992.357 -484.193)"/>
            <path id="路径_2093" data-name="路径 2093" class="cls-5" d="M2542.4 461.545s-2.173 9.453 3.492 10.468l-.347 2.792 8.874.718 1.684-14.137-9.676-5.745z" transform="translate(-2122.052 -395.354)"/>
            <path id="路径_2094" data-name="路径 2094" class="cls-25" d="M2544.627 437.2a3.2 3.2 0 0 1 5.818-1.492l.073.111a6.51 6.51 0 0 1 6.645.468 7.115 7.115 0 0 1 2.884 4.945 18 18 0 0 1 .042 4.078 6.6 6.6 0 0 0 1.6 5.1l.049.055h-4.853l.359-3.657-1.541-.913s-6.075.347-7.933-5.388c0 0-.66 3.924-3.846 3.719z" transform="translate(-2123.651 -377.718)"/>
            <path id="路径_2095" data-name="路径 2095" class="cls-5" d="M2604.58 500.722c-.033 1.293.3 2.445 1.6 2.478s3.059-1.068 3.091-2.362a2.345 2.345 0 1 0-4.679-.116z" transform="translate(-2173.796 -430.612)"/>
            <path id="路径_2096" data-name="路径 2096" class="cls-18" d="M2563.706 534.4s3.386.447 6.919-3.293c0 0-1.444 4.1-7.086 4.589z" transform="translate(-2139.87 -457.743)"/>
            <path id="路径_2097" data-name="路径 2097" class="cls-26" d="M2475.569 628.839a.215.215 0 0 1-.185-.1 7.389 7.389 0 0 1-.895-5.146 11.752 11.752 0 0 1 4.118-5.711.22.22 0 0 1 .271.347 11.5 11.5 0 0 0-3.964 5.477 7.078 7.078 0 0 0 .842 4.806.22.22 0 0 1-.187.335z" transform="translate(-2066.116 -529.435)"/>
            <path id="路径_2098" data-name="路径 2098" class="cls-26" d="M2394.9 675.736a.22.22 0 0 1-.2-.128l-1.854-4.109a.22.22 0 1 1 .4-.173l1.853 4.1a.221.221 0 0 1-.109.289.215.215 0 0 1-.09.021z" transform="translate(-1998.737 -573.524)"/>
            <path id="矩形_428" data-name="矩形 428" class="cls-17" transform="rotate(-171.5 213.546 43.75)" d="M0 0h53.03v34.677H0z"/>
            <path id="路径_2099" data-name="路径 2099" class="cls-18" d="M2628.572 1324.618s-2.808-5.342-10.342-6.369a10.874 10.874 0 0 1 10.342 1.575z" transform="translate(-2185.082 -1107.913)"/>
            <path id="路径_2100" data-name="路径 2100" class="cls-12" d="M2542.571 701.932s-2.409-7.156.229-10.992l6.128 1.3s1.531 9.555-6.357 9.692z" transform="translate(-2121.705 -589.872)"/>
            <path id="路径_2101" data-name="路径 2101" class="cls-5" d="m2555.74 695.4 2.863 1.047 1.009-3.785-3.061-.648z" transform="translate(-2133.422 -590.757)"/>
            <path id="路径_2102" data-name="路径 2102" class="cls-4" d="M2565.816 577.34s6.659 5.082 12.372 17.505a18.019 18.019 0 0 1 1.593 6.378l.01.153a9.565 9.565 0 0 1-8.609 10.139l-.752.073a18.653 18.653 0 0 1-5.268-.232l-17.791-3.343s5.113-1.56 3.378-6.392 1.56-6.666 1.56-6.666l13.97 4.017-5.01-7.7s1.259-8.911 4.547-13.932z" transform="translate(-2126.503 -495.961)"/>
            <path id="路径_2103" data-name="路径 2103" class="cls-15" d="M2586.144 681.474a.209.209 0 0 1-.064-.01l-8.56-2.6a.22.22 0 1 1 .128-.419l8.56 2.6a.218.218 0 0 1-.063.428z" transform="translate(-2151.283 -579.529)"/>
            <path id="路径_2104" data-name="路径 2104" class="cls-15" d="M2572.063 758.674a.155.155 0 0 1-.04 0l-14.862-2.738a.22.22 0 0 1 .08-.431l14.862 2.738a.22.22 0 0 1-.04.435z" transform="translate(-2134.462 -643.246)"/>
            <path id="路径_2105" data-name="路径 2105" class="cls-15" d="M2626.34 633a.22.22 0 0 1-.22-.218 15.026 15.026 0 0 1 .963-4.832.224.224 0 0 1 .283-.128.218.218 0 0 1 .13.281 14.862 14.862 0 0 0-.937 4.68.219.219 0 0 1-.217.22z" transform="translate(-2191.604 -537.68)"/>
            <path id="路径_2106" data-name="路径 2106" class="cls-5" d="M2364.311 559.692a1.782 1.782 0 0 0-1.288-1.359l-.844-.223-.149 1.229z" transform="translate(-1973.285 -480.064)"/>
            <path id="路径_2107" data-name="路径 2107" class="cls-5" d="m2355.953 554.164-.52 3.515a.507.507 0 0 1-.573.428.5.5 0 0 1-.434-.5l-.037-3.477a.558.558 0 0 1 .562-.565h.449a.559.559 0 0 1 .552.591z" transform="translate(-1966.969 -476.311)"/>
            <path id="路径_2108" data-name="路径 2108" class="cls-5" d="m2347.222 553.969.089 3.829a.507.507 0 0 1-.489.52.6.6 0 0 1-.52-.412l-.627-3.692a.557.557 0 0 1 .456-.653l.442-.076a.558.558 0 0 1 .647.485z" transform="translate(-1959.756 -476.233)"/>
            <path id="路径_2109" data-name="路径 2109" class="cls-5" d="m2339.893 555.33.262 3.309a.488.488 0 0 1-.46.492.573.573 0 0 1-.532-.312l-.792-3.144a.52.52 0 0 1 .423-.6l.434-.1a.519.519 0 0 1 .666.364z" transform="translate(-1953.719 -477.444)"/>
            <path id="路径_2110" data-name="路径 2110" class="cls-5" d="m2333.613 556.44.536 2.38a.36.36 0 0 1-.284.407.424.424 0 0 1-.419-.173l-.9-2.2a.378.378 0 0 1 .244-.485l.3-.12a.389.389 0 0 1 .52.194z" transform="translate(-1948.889 -478.492)"/>
            <path id="路径_2111" data-name="路径 2111" class="cls-6" d="M2338.182 557.843a.074.074 0 0 0 0 .021l.52 2.354a.076.076 0 0 0 .149-.033l-.52-2.354a.076.076 0 0 0-.081-.06.077.077 0 0 0-.07.073z" transform="translate(-1953.569 -479.783)"/>
            <path id="路径_2112" data-name="路径 2112" class="cls-6" d="M2345.807 556.086a.085.085 0 0 0 0 .016l.439 3.314a.077.077 0 0 0 .124.056.075.075 0 0 0 .027-.075l-.438-3.316a.077.077 0 0 0-.152 0z" transform="translate(-1959.873 -478.333)"/>
            <path id="路径_2113" data-name="路径 2113" class="cls-6" d="m2354.21 555.934.079 3.4a.075.075 0 0 0 .078.075.07.07 0 0 0 .056-.021.068.068 0 0 0 .019-.057l-.078-3.4a.075.075 0 0 0-.023-.054.074.074 0 0 0-.055-.021.076.076 0 0 0-.076.078z" transform="translate(-1966.821 -478.204)"/>
            <path id="路径_2114" data-name="路径 2114" class="cls-6" d="M2361.89 559.53a.077.077 0 0 0 .066.08.074.074 0 0 0 .056-.014.076.076 0 0 0 .029-.05l.147-.991a.077.077 0 0 0-.1-.084.077.077 0 0 0-.047.061l-.146.991a.01.01 0 0 0-.005.007z" transform="translate(-1973.169 -480.358)"/>
            <path id="路径_2115" data-name="路径 2115" class="cls-5" d="M2511.127 678.857a.566.566 0 0 0-.243.357.1.1 0 0 1 0 .049.483.483 0 0 0 .364.485l5.931 1.669 3.5 2.264a5.889 5.889 0 0 0-.318-1.331 6.772 6.772 0 0 1-.371-3.837l-.44-.412a1.84 1.84 0 0 0-.642-1.56l-1.613-1.56-.11 1.811-1.532-.1-3.073-1.142a.39.39 0 0 0-.324.709l2 .972-2.816-.189a.461.461 0 0 0-.494.338.152.152 0 0 0 0 .047.521.521 0 0 0 .236.52.49.49 0 0 0-.58.4.495.495 0 0 0 .52.516z" transform="translate(-2096.112 -576.678)"/>
            <path id="路径_2116" data-name="路径 2116" class="cls-14" d="M2516.819 692.16h-.009l-3.189-.331a.073.073 0 0 1-.049-.026.075.075 0 0 1-.015-.053.07.07 0 0 1 .026-.05.068.068 0 0 1 .054-.014l3.189.329a.072.072 0 0 1 .049.026.073.073 0 0 1 .016.054.075.075 0 0 1-.072.065z" transform="translate(-2098.55 -590.487)"/>
            <path id="路径_2117" data-name="路径 2117" class="cls-14" d="m2516.567 697.511-3.258-.426a.072.072 0 0 1-.062-.081.077.077 0 0 1 .081-.064l3.258.428a.07.07 0 0 1 .049.027.071.071 0 0 1 .014.054.075.075 0 0 1-.082.062z" transform="translate(-2098.293 -594.832)"/>
        </g>
    </g>
</svg>
