<svg xmlns="http://www.w3.org/2000/svg" width="40.836" height="31.014">
    <g data-name="播放icon 藍色">
        <path data-name="路径 211" d="M45.881 15.569s-.381-2.892-1.563-4.169a5.438 5.438 0 0 0-3.941-1.775C34.871 9.2 26.614 9.2 26.614 9.2h-.02s-8.257 0-13.761.428A5.429 5.429 0 0 0 8.892 11.4c-1.178 1.277-1.562 4.169-1.562 4.169a67.685 67.685 0 0 0-.393 6.79v3.181a67.7 67.7 0 0 0 .393 6.793s.384 2.893 1.563 4.165c1.5 1.669 3.461 1.619 4.338 1.795 3.147.321 13.375.421 13.375.421s8.266-.015 13.772-.436a5.451 5.451 0 0 0 3.94-1.778c1.178-1.272 1.563-4.165 1.563-4.165a67.758 67.758 0 0 0 .393-6.793v-3.18a67.7 67.7 0 0 0-.393-6.793z" transform="translate(-6.187 -8.45)" style="fill:none;stroke:#2e4565;stroke-linecap:round;stroke-width:1.5px"/>
        <path data-name="多边形 1" d="M5.133.894a.5.5 0 0 1 .894 0l4.773 9.543a.5.5 0 0 1-.447.724H.809a.5.5 0 0 1-.447-.724z" transform="rotate(90 8.37 18.112)" style="fill:#2e4565"/>
    </g>
</svg>
