<svg xmlns="http://www.w3.org/2000/svg" width="43.334" height="40.094">
    <path data-name="Contact us icon" d="M64 40H27.334A3.337 3.337 0 0 0 24 43.333V70a3.337 3.337 0 0 0 3.333 3.333h12.39l3.086 5.142a3.333 3.333 0 0 0 5.717 0l3.085-5.142H64A3.337 3.337 0 0 0 67.335 70V43.333A3.337 3.337 0 0 0 64 40zM35.668 59.167a2.5 2.5 0 1 1 2.5-2.5 2.5 2.5 0 0 1-2.5 2.5zm10 0a2.5 2.5 0 1 1 2.5-2.5 2.5 2.5 0 0 1-2.5 2.5zm10 0a2.5 2.5 0 1 1 2.5-2.5 2.5 2.5 0 0 1-2.5 2.5z" transform="translate(-24.001 -40)" style="fill:#2e4565"/>
</svg>
