<svg xmlns="http://www.w3.org/2000/svg" width="105.881" height="170.933">
    <defs>
        <style>
            .cls-3{fill:#162a47}.cls-4{fill:#575a89}.cls-5{fill:#ffb8b8}.cls-6{fill:#2f2e41}
        </style>
    </defs>
    <g id="讀書" transform="translate(-41.797)">
        <ellipse id="椭圆_142" data-name="椭圆 142" cx="31.045" cy="3.942" rx="31.045" ry="3.942" transform="translate(60.13 159.533)" style="opacity:.03"/>
        <ellipse id="椭圆_143" data-name="椭圆 143" cx="29.074" cy="31.045" rx="29.074" ry="31.045" transform="translate(62.101 103.848)" style="fill:#3f3d56"/>
        <path id="矩形_414" data-name="矩形 414" class="cls-3" transform="translate(82.305 153.619)" d="M0 0h17.74v16.262H0z"/>
        <path id="路径_1764" data-name="路径 1764" class="cls-4" d="m393.537 607.614-1.037 5.7 6.738 1.037 4.406-2.592-.259-4.147z" transform="translate(-269.577 -450.142)"/>
        <path id="路径_1765" data-name="路径 1765" class="cls-5" d="M532.479 303.127s-.518 5.961-1.814 6.22 2.851 10.626 2.851 10.626h6.22l4.924-1.3-2.333-5.7s-3.11-4.147-.777-7.516-9.071-2.33-9.071-2.33z" transform="translate(-442.471 -252.69)"/>
        <path id="路径_1767" data-name="路径 1767" class="cls-6" d="M478.608 476.594s-6.738 12.958-1.3 15.55 6.738 2.332 6.738 3.11-1.037.518-.518 1.814-1.037 6.479.518 9.589a8.867 8.867 0 0 1 1.037 5.442 4.187 4.187 0 0 0 .518 1.3c.518 1.037.777 1.814.518 2.332s-1.814 3.887-.259 4.665 9.589 1.3 10.367 0-.778-2.073 0-2.851 1.3-1.037.777-1.555-1.037-7-1.037-7 1.3-7.516.777-8.553-1.3-2.073-.777-2.851 1.037-.518 1.3-1.555.777-3.369.777-3.369l2.851-.259 6.738 1.3s7.516 8.293 15.809 10.885c0 0 2.332 2.333 3.11 2.333s.778 0 .518.518-1.037.518-.518 1.037 1.3-.259.778.518-1.037.777-.518 1.3-.259 3.369-.259 3.628-2.332 24.621-1.555 25.139 11.662 2.073 12.44 0-.518-4.665-.518-4.665 3.887-31.1 2.851-33.173-4.665-11.4-24.1-17.364c0 0-5.443-1.037-5.443-1.814s-.518-5.7-1.555-5.961-7-.518-7-.518l-7.516 2.332-10.367-1.814z" transform="translate(-401.558 -380.544)"/>
        <path id="路径_1768" data-name="路径 1768" class="cls-6" d="M518.556 645.335 517.26 650s-1.037 7.516.259 9.33a8.151 8.151 0 0 0 6.206 3.476 4.165 4.165 0 0 0 4.348-2.881 1.3 1.3 0 0 0 .072-.335c0-.518-.777-6.738-.777-6.738l-1.3-6.479-.259-1.814z" transform="translate(-432.435 -505.745)"/>
        <path id="路径_1769" data-name="路径 1769" class="cls-6" d="M663.423 726.7s-1.3-1.3-1.555 0-1.3 6.738.518 7 19.178 2.851 20.992 1.814 5.183-2.592 3.11-3.369-8.034-3.11-8.034-3.11a52.744 52.744 0 0 0-3.887-4.665c-.518-.259-3.369.259-4.665 1.3s-6.479 1.03-6.479 1.03z" transform="translate(-539.464 -564.823)"/>
        <circle id="椭圆_144" data-name="椭圆 144" class="cls-5" cx="8.034" cy="8.034" r="8.034" transform="translate(88.194 39.811)"/>
        <path id="路径_1770" data-name="路径 1770" class="cls-4" d="m502.091 334-3.11-3.369-3.447-6.738s-2.514-.777-3.032.518-9.848 5.442-9.848 5.442 2.332 21.77 1.3 23.843-2.851 10.367-1.3 11.144 8.812 0 11.144 1.037 9.071 1.037 10.885-.259 2.333-2.333 4.147-1.555c1.544.662 5.155-21.967 6.194-28.711a3.07 3.07 0 0 0-1.272-2.983c-2.325-1.631-6.514-4.442-7.255-4.071-1.037.522-4.406 5.702-4.406 5.702z" transform="translate(-406.639 -268.016)"/>
        <path id="路径_1771" data-name="路径 1771" class="cls-4" d="M590.885 359.557a3.074 3.074 0 0 1 2.309 2.642l2.1 18.868s-5.183 11.144-7.775 3.628 3.366-25.138 3.366-25.138z" transform="translate(-484.29 -294.607)"/>
        <path id="路径_1772" data-name="路径 1772" class="cls-4" d="m588.477 445.112 5.7-1.555s1.037 7.257 2.073 7.257-3.628 4.147-5.961 3.628-5.7-2.333-5.961-3.628 2.333-6.738 2.333-6.738z" transform="translate(-482.4 -356.837)"/>
        <path id="路径_1773" data-name="路径 1773" class="cls-6" d="M523.971 257.634c.546-1.2.452-2.61.9-3.853a4.594 4.594 0 0 1 6.985-2.172c.581.414 1.163 1 1.873.917.764-.085 1.445-.937 2.147-.625.778.346.568 1.741 1.357 2.063a1 1 0 0 0 1.145-.471 2.913 2.913 0 0 0 .333-1.29 6.173 6.173 0 0 0-.272-3.277 7.841 7.841 0 0 1-.526-1.06 3.626 3.626 0 0 1-.1-1.046 7.489 7.489 0 0 0-.753-3.777 5.476 5.476 0 0 0-3.466-2.39 13.224 13.224 0 0 0-4.3-.173c-2.375.2-4.851.632-6.722 2.108a2.63 2.63 0 0 0-.646.679 3.5 3.5 0 0 0-.344 1 20.6 20.6 0 0 1-1.806 4.733 10.272 10.272 0 0 0-.932 2.013 2.605 2.605 0 0 0 .23 2.141 8.186 8.186 0 0 0 1.3 1.174c.421.4.618 1.183 1.084 1.489.407.267.894.079 1.31.362.532.365.575 1.163 1.203 1.455z" transform="translate(-433.807 -206.323)"/>
        <path id="路径_1774" data-name="路径 1774" d="m564.382 374.112.777-1.555s11.4 3.369 13.736 6.479c0 0 5.7-3.628 8.812-3.11l3.11.518-9.589 8.556-12.181-1.037z" transform="translate(-467.635 -304.238)" style="fill:#f2f2f2"/>
        <path id="路径_1775" data-name="路径 1775" class="cls-3" d="m532.008 372.557-10.626 14.772 15.291 7.516a2.629 2.629 0 0 0 2.529 0l10.17-4.665 9.589-13.736-9.589 4.924a2.27 2.27 0 0 0-3.11-1.037z" transform="translate(-435.779 -304.238)"/>
        <path id="路径_1776" data-name="路径 1776" class="cls-5" d="m621.678 431.477 2.073-5.442s4.665-5.961 2.073-8.812-5.443 8.293-5.443 8.293z" transform="translate(-509.122 -336.982)"/>
        <path id="路径_1777" data-name="路径 1777" class="cls-5" d="m533.079 438.081 4.524-3.668s7.026-2.816 6.214-6.582-8.869 4.443-8.869 4.443z" transform="translate(-444.445 -344.454)"/>
        <path id="路径_1778" data-name="路径 1778" d="M472.172 364.176h-.259s-4.017-4.795-4.795 1.685-3.369 27.99 3.369 28.767a16.385 16.385 0 0 0 11.533-3.24s4.924-7.516 3.11-7.516a48.746 48.746 0 0 0-5.442-.259c-2.323.144-4.41.8-4.276.13.259-1.296 4.017-17.753-3.24-19.567z" transform="translate(-394.733 -296.764)" style="opacity:.1"/>
        <path id="路径_1779" data-name="路径 1779" class="cls-4" d="m468.079 348.075-1.037-.518s-4.147.778-4.924 7.257-3.369 27.99 3.369 28.767 15.809-1.037 15.809-1.037 1.814-9.848 0-9.848-11.144 1.3-10.885 0 4.925-22.806-2.332-24.621z" transform="translate(-391.029 -285.717)"/>
        <path id="路径_1780" data-name="路径 1780" class="cls-4" d="m338 340.593 2.858-4.38 1.807 7.231-4.665 2.073z" transform="translate(-229.202 -249.078)"/>
        <circle id="椭圆_145" data-name="椭圆 145" cx="6.997" cy="6.997" r="6.997" transform="translate(43.093 15.061)" style="fill:#fb0"/>
        <path id="矩形_415" data-name="矩形 415" transform="translate(41.797 74.151)" style="fill:#2e4565" d="M0 0h16.587v16.587H0z"/>
        <path id="路径_1781" data-name="路径 1781" d="m348 0 4.2 7.271 4.2 7.271h-16.8l4.2-7.271z" transform="translate(-230.39)" style="fill:#ffa975"/>
    </g>
</svg>
