<svg xmlns="http://www.w3.org/2000/svg" width="49.535" height="30.978">
    <path data-name="Links icon" d="M33.991 4h2.131a15.482 15.482 0 0 1 .844 30.938l-.816.021-2.131.019a3.1 3.1 0 0 1-.475-6.16l.42-.032 2.158-.019a9.29 9.29 0 0 0 .631-18.554l-.631-.021h-2.131a3.1 3.1 0 0 1-.42-6.164l.42-.028zm-16.5 0h2.054a3.1 3.1 0 0 1 .42 6.164l-.42.028h-2.056a9.3 9.3 0 0 0-.637 18.573l.637.022h2.054a3.1 3.1 0 0 1 .42 6.163l-.42.028h-2.054a15.489 15.489 0 0 1-.823-30.957L17.489 4zm-.011 12.384h18.575a3.1 3.1 0 0 1 .42 6.164l-.42.028H17.48a3.1 3.1 0 0 1-.42-6.164l.42-.028z" transform="translate(-2 -4)" style="fill:#fb0"/>
</svg>
