<svg xmlns="http://www.w3.org/2000/svg" width="60.389" height="42.273" viewBox="0 0 60.389 42.273">
    <path fill="#2e4565" d="M9.058 20.367a6.039 6.039 0 1 0-6.039-6.039 6.045 6.045 0 0 0 6.039 6.039zm42.273 0a6.039 6.039 0 1 0-6.039-6.039 6.045 6.045 0 0 0 6.039 6.039zm3.019 3.019h-6.038a6.021 6.021 0 0 0-4.256 1.755 13.8 13.8 0 0 1 7.086 10.323h6.228a3.016 3.016 0 0 0 3.019-3.019v-3.02a6.045 6.045 0 0 0-6.038-6.039zm-24.156 0a10.568 10.568 0 1 0-10.567-10.568 10.563 10.563 0 0 0 10.568 10.568zm7.247 3.019h-.783a14.591 14.591 0 0 1-12.927 0h-.783a10.873 10.873 0 0 0-10.87 10.87v2.718a4.53 4.53 0 0 0 4.529 4.529h27.175a4.53 4.53 0 0 0 4.529-4.529v-2.717a10.873 10.873 0 0 0-10.87-10.87zm-21.108-1.264a6.021 6.021 0 0 0-4.256-1.755H6.039A6.045 6.045 0 0 0 0 29.425v3.019a3.016 3.016 0 0 0 3.019 3.019h6.219a13.837 13.837 0 0 1 7.095-10.322z" transform="translate(0 -2.25)"/>
</svg>
