<svg xmlns="http://www.w3.org/2000/svg" width="328" height="235">
    <defs>
        <style>
            .cls-1{fill:#efedef}.cls-2{fill:#dc8758}.cls-4{fill:#935b50}.cls-5{fill:#f9977a}.cls-6{fill:#c67a56}.cls-7{fill:#dd765e}.cls-8{fill:#ffba55}.cls-9{fill:#e6952a}.cls-11{fill:#5d1115}.cls-12{fill:#0a0709}.cls-13{fill:#1e1d22}.cls-14{fill:#f73c4f}.cls-17{fill:#fff}.cls-18{fill:#e19974}.cls-19{fill:#d6694b}.cls-21{fill:#f65b2b}
        </style>
    </defs>
    <g id="拼圖" transform="translate(-100 -96.392)">
        <path id="路径_485" data-name="路径 485" class="cls-1" d="M218.284 142.1C183.029 169.6 162 285.38 228.1 286.2c34.8.433 96.686 23.288 137.489 44.5 39.676 20.63 30.858-92.023-9.82-144.106S253.538 114.591 218.284 142.1z" transform="translate(-29.45 -11.426)"/>
        <path id="路径_486" data-name="路径 486" class="cls-1" d="M396.937 336.235a21.493 21.493 0 0 1-9.8-2.745l.3-.582c8.176 4.252 14.747 3.494 19.526-2.249 8.731-10.491 10.576-36.828 4.814-68.731-6.05-33.5-19.33-65.88-35.523-86.614-44.441-56.9-111.891-78.781-150.361-48.766l-.4-.518c38.754-30.237 106.619-8.309 151.283 48.88 16.255 20.814 29.583 53.3 35.652 86.9 5.8 32.09 3.9 58.632-4.955 69.268a13.281 13.281 0 0 1-10.536 5.157z" transform="translate(-43.391 -5.5)"/>
        <rect id="矩形_138" data-name="矩形 138" class="cls-2" width="13.566" height="13.566" rx="5.379" transform="translate(253.735 96.555)"/>
        <path id="路径_487" data-name="路径 487" class="cls-2" d="M285.776 400.9h-5.494l22.269-100.1 11.219 3.02z" transform="translate(-62.044 -70.166)"/>
        <path id="路径_488" data-name="路径 488" class="cls-2" d="M387.168 400.9h5.494l-22.269-100.1-11.218 3.02z" transform="translate(-89.194 -70.166)"/>
        <rect id="矩形_139" data-name="矩形 139" width="174.885" height="139.937" rx="3.524" transform="translate(173.386 104.564)" style="fill:#ffe3cb"/>
        <rect id="矩形_140" data-name="矩形 140" class="cls-2" width="63.297" height="8.641" rx="2.779" transform="translate(229.174 238.489)"/>
        <path id="矩形_141" data-name="矩形 141" class="cls-4" transform="translate(100 330.077)" d="M0 0h328v1.315H0z"/>
        <path id="路径_489" data-name="路径 489" class="cls-5" d="m141.985 429.517-.776 7.745 13.45 6.571h-20.654v-14.316z" transform="translate(-11.654 -114.277)"/>
        <path id="路径_490" data-name="路径 490" class="cls-5" d="m175.706 429.517-.776 7.745 13.449 6.571h-20.652v-14.316z" transform="translate(-23.21 -114.277)"/>
        <path id="路径_491" data-name="路径 491" class="cls-6" d="M142.081 378.3h-9.1a1.855 1.855 0 0 1-1.855-1.855V344.1a84.3 84.3 0 0 1 2.119-18.785 12.464 12.464 0 0 0 .3-3.371c-.4-8.33-1.878-44.86 2.275-51.5l26.565-1.961-18.476 108.278a1.855 1.855 0 0 1-1.828 1.543z" transform="translate(-10.668 -59.088)"/>
        <path id="路径_492" data-name="路径 492" class="cls-6" d="M177.563 266.383s1.4 22.609 1.4 27.925v31.365q0 1.937-.19 3.868l-4.652 47.166a1.855 1.855 0 0 1-1.846 1.673h-10.721a1.855 1.855 0 0 1-1.85-1.989l2.9-39.821a39.413 39.413 0 0 0-.731-10.929l-11.7-55.919z" transform="translate(-17.194 -58.37)"/>
        <path id="路径_493" data-name="路径 493" class="cls-5" d="M223.165 206.082s.1-2.551 4.021-6.591 7.442-6.8 5.4-3.4l-1.6 2.568s4.221-1.637 6.651-2.833a3.353 3.353 0 0 1 3.936.652c.915.987.888 2.067-1.637 3.982a32.172 32.172 0 0 1-7.651 4.521 1.91 1.91 0 0 0-.946.791l-2.822 2.3z" transform="translate(-42.379 -33.676)"/>
        <path id="路径_494" data-name="路径 494" class="cls-7" d="M231.306 201.993a4.515 4.515 0 0 1 1.144-.781 4.77 4.77 0 0 1 .64-.26 3 3 0 0 1 .685-.151 6.754 6.754 0 0 1-1.173.721 5.769 5.769 0 0 1-1.3.472z" transform="translate(-45.171 -35.815)"/>
        <path id="路径_495" data-name="路径 495" class="cls-7" d="M240.178 199.611c.957-.6 1.935-1.146 2.9-1.713s1.927-1.122 2.854-1.768a7.775 7.775 0 0 1-1.261 1.137 14.328 14.328 0 0 1-1.419.93c-.49.281-.989.547-1.5.78a14.309 14.309 0 0 1-1.574.634z" transform="translate(-48.225 -34.213)"/>
        <path id="路径_496" data-name="路径 496" class="cls-7" d="M241.772 201.375c1.093-.581 2.189-1.127 3.249-1.734a20.488 20.488 0 0 0 1.554-.958 6.342 6.342 0 0 0 1.373-1.2 4.378 4.378 0 0 1-1.213 1.411 10.461 10.461 0 0 1-1.544 1.047 15.613 15.613 0 0 1-1.669.817 13.763 13.763 0 0 1-1.75.617z" transform="translate(-48.773 -34.677)"/>
        <path id="路径_497" data-name="路径 497" class="cls-7" d="m243.7 203.289 2.7-1.466c.448-.245.883-.508 1.324-.766s.86-.548 1.294-.833a9.223 9.223 0 0 1-2.45 1.9 13.3 13.3 0 0 1-1.4.673 10.03 10.03 0 0 1-1.468.492z" transform="translate(-49.435 -35.617)"/>
        <path id="路径_498" data-name="路径 498" class="cls-8" d="M176.593 192.376s2.126.95 3.773 1.8c2.284 1.171 5.83 5.286 9.981 15.562l2.758 6.829a174.85 174.85 0 0 1 15.442-15.794l7.069 5.736-16.363 18.848a11.562 11.562 0 0 1-4.1 3.611c-3.736 1.909-7.551 1.28-9.645-2.6-3.276-6.073-7.171-15.32-7.543-17.9z" transform="translate(-26.362 -32.93)"/>
        <path id="路径_499" data-name="路径 499" class="cls-9" d="M201.6 229.359a5.42 5.42 0 0 1 .695 1.47 6.362 6.362 0 0 1 .3 1.61 4.559 4.559 0 0 1-.2 1.655 2.647 2.647 0 0 1-.939 1.356 4.922 4.922 0 0 0 .44-1.472 7.83 7.83 0 0 0 .039-1.5c-.035-1.023-.221-2.039-.335-3.119z" transform="translate(-34.903 -45.612)"/>
        <path id="路径_500" data-name="路径 500" d="M146.9 277.186s0 11.179-12.335 8.254l.682-10.063z" transform="translate(-11.846 -61.398)" style="fill:#a3862b"/>
        <path id="路径_501" data-name="路径 501" class="cls-11" d="M189.983 447.729v-.047a1.956 1.956 0 0 0-1.076-1.746l-13.96-7.036a.652.652 0 0 0-.815.19l-2.729 3.632a.652.652 0 0 1-.857.167l-3.2-1.922a.652.652 0 0 0-.987.559v6.2a.652.652 0 0 0 .652.652h22.322a.652.652 0 0 0 .652-.651z" transform="translate(-22.741 -117.468)"/>
        <path id="路径_502" data-name="路径 502" class="cls-11" d="M156.262 447.729v-.047a1.956 1.956 0 0 0-1.076-1.746l-13.96-7.036a.652.652 0 0 0-.815.19l-2.729 3.632a.652.652 0 0 1-.857.167l-3.2-1.922a.652.652 0 0 0-.987.559v6.2a.652.652 0 0 0 .652.652h22.32a.652.652 0 0 0 .652-.649z" transform="translate(-11.185 -117.468)"/>
        <path id="路径_503" data-name="路径 503" class="cls-5" d="M159.38 152.191a12.036 12.036 0 0 1 5.622.482 9.631 9.631 0 0 1 5.461 4.337c.574 1.115.7 2.457.964 5.14.162 1.676.808 2.876.807 4.92a17.271 17.271 0 0 1-.807 4.878c-.752 2.471-.268 3.875-.642 4.337-1.511 1.862-4.75.141-4.819 2.57-.043 1.5.911 2.449-.341 3.795-1.553 1.668-7.45 1.037-9.617-.1-.3-.155-4.63-2.487-4.337-5.14.156-1.417 1.483-1.564 2.409-3.694a8.507 8.507 0 0 0 .482-4.658c-.418-3.1-1.981-3.479-3.213-7.228a5.831 5.831 0 0 1 .964-5.622 11.911 11.911 0 0 1 7.067-4.017z" transform="translate(-17.482 -19.096)"/>
        <ellipse id="椭圆_20" data-name="椭圆 20" class="cls-12" cx=".63" cy=".783" rx=".63" ry=".783" transform="translate(153.327 144.632)"/>
        <ellipse id="椭圆_21" data-name="椭圆 21" class="cls-12" cx=".63" cy=".783" rx=".63" ry=".783" transform="translate(146.727 144.897)"/>
        <path id="路径_504" data-name="路径 504" class="cls-12" d="M171.684 166.857a.4.4 0 0 1 .211.726 4.221 4.221 0 0 1-4.712.089.4.4 0 1 1 .464-.646 3.364 3.364 0 0 0 3.8-.1.4.4 0 0 1 .237-.069z" transform="translate(-22.967 -24.171)"/>
        <path id="路径_505" data-name="路径 505" class="cls-12" d="M181.633 166.69a.4.4 0 0 1 .211.726 4.221 4.221 0 0 1-4.711.089.4.4 0 1 1 .464-.646 3.362 3.362 0 0 0 3.8-.1.4.4 0 0 1 .236-.069z" transform="translate(-26.377 -24.114)"/>
        <circle id="椭圆_22" data-name="椭圆 22" class="cls-11" cx="1.049" cy="1.049" r="1.049" transform="translate(148.536 212.408)"/>
        <path id="路径_506" data-name="路径 506" class="cls-7" d="M177.376 169.527a3.553 3.553 0 0 0 .344 1.9 7.912 7.912 0 0 0 .988 1.676l.318.379a.772.772 0 0 1 .2.53 1.263 1.263 0 0 1-.535.912 2.279 2.279 0 0 1-1.96.248 2.446 2.446 0 0 0 1.831-.406 1.134 1.134 0 0 0 .423-.757c.021-.266-.28-.469-.486-.74a7.211 7.211 0 0 1-.968-1.761 3.118 3.118 0 0 1-.155-1.981z" transform="translate(-26.297 -25.087)"/>
        <path id="路径_507" data-name="路径 507" class="cls-7" d="M158.983 169.93a2.394 2.394 0 0 0-.6.3 2.907 2.907 0 0 0-.5.421 9.457 9.457 0 0 0-.867 1.039 2.55 2.55 0 0 1 .253-.658 2.915 2.915 0 0 1 .428-.57 1.653 1.653 0 0 1 1.286-.532z" transform="translate(-19.537 -25.225)"/>
        <path id="路径_508" data-name="路径 508" class="cls-7" d="M158.986 173.421a4.829 4.829 0 0 0-.016-1.454 3.255 3.255 0 0 0-.175-.695c-.072-.232-.184-.448-.284-.684a2.358 2.358 0 0 1 .475 2.833z" transform="translate(-20.052 -25.451)"/>
        <path id="路径_509" data-name="路径 509" class="cls-9" d="M191.937 240.994c-.246-2.338-.345-4.667-.447-7s-.172-4.652-.222-7a35.722 35.722 0 0 1 .879 6.974 46.759 46.759 0 0 1-.209 7.023z" transform="translate(-31.278 -44.803)"/>
        <path id="路径_510" data-name="路径 510" class="cls-12" d="M172.745 182.321s2.48 2.313 4.7 0" transform="translate(-24.93 -29.476)"/>
        <path id="路径_511" data-name="路径 511" class="cls-13" d="M168.956 170.837a3.063 3.063 0 0 1 1.7-.8 2.962 2.962 0 0 1 .957.031 2.569 2.569 0 0 1 .879.349 5.9 5.9 0 0 0-.906-.147 3.488 3.488 0 0 0-.894.03 5.629 5.629 0 0 0-1.732.539z" transform="translate(-23.632 -25.253)"/>
        <path id="路径_512" data-name="路径 512" class="cls-13" d="M178.824 170.434a3.062 3.062 0 0 1 1.7-.8 2.962 2.962 0 0 1 .957.031 2.57 2.57 0 0 1 .879.349 5.9 5.9 0 0 0-.906-.147 3.486 3.486 0 0 0-.894.03 5.627 5.627 0 0 0-1.732.539z" transform="translate(-27.013 -25.115)"/>
        <path id="路径_513" data-name="路径 513" class="cls-11" d="M173.488 271.21a22.432 22.432 0 0 1-8.5 3.656 48.332 48.332 0 0 1-9.231 1.21c-1.552.1-3.1.018-4.655.022-1.549-.061-3.1-.146-4.642-.272-1.539-.185-3.08-.343-4.614-.55-1.526-.269-3.053-.515-4.572-.8 1.542.141 3.076.323 4.611.482 1.537.142 3.077.243 4.613.366 1.541.045 3.079.148 4.618.178 1.539-.023 3.08.037 4.614-.079a52.466 52.466 0 0 0 9.148-1.045 34.043 34.043 0 0 0 4.446-1.2 17.629 17.629 0 0 0 4.164-1.968z" transform="translate(-12.774 -59.968)"/>
        <path id="路径_514" data-name="路径 514" class="cls-11" d="M173.222 276.861c-.5 3.765-1.075 7.519-1.659 11.27s-1.223 7.494-1.831 11.241c-.661 3.738-1.294 7.482-1.981 11.216l-1.044 5.6c-.372 1.862-.721 3.728-1.112 5.587.244-1.884.531-3.76.795-5.641l.863-5.629c.584-3.752 1.222-7.494 1.832-11.241.663-3.738 1.293-7.482 1.982-11.215s1.385-7.468 2.155-11.188z" transform="translate(-22.48 -61.918)"/>
        <path id="路径_515" data-name="路径 515" class="cls-11" d="M185.1 269.79a6.176 6.176 0 0 1 .328 2.1 6.108 6.108 0 0 1-.328 2.1 6.108 6.108 0 0 1-.328-2.1 6.178 6.178 0 0 1 .328-2.1z" transform="translate(-29.052 -59.48)"/>
        <path id="路径_516" data-name="路径 516" class="cls-11" d="M160.522 272.393a8.131 8.131 0 0 1 .041 2.442 8.041 8.041 0 0 1-.611 2.365 8.042 8.042 0 0 1-.041-2.442 8.132 8.132 0 0 1 .611-2.365z" transform="translate(-20.507 -60.373)"/>
        <path id="路径_517" data-name="路径 517" class="cls-11" d="M172.588 277.452a42.432 42.432 0 0 1-.437 4.586 62.123 62.123 0 0 1-.825 4.522l-.091-.228c.657.556 1.3 1.133 1.915 1.741a34.941 34.941 0 0 1-2.2-1.362l-.108-.072.017-.156a62.65 62.65 0 0 1 .671-4.547 42.438 42.438 0 0 1 1.059-4.484z" transform="translate(-24.278 -62.11)"/>
        <path id="路径_518" data-name="路径 518" class="cls-11" d="M137.273 314.292c.272 1.074.588 2.126.908 3.171a32.222 32.222 0 0 0 1.114 3.066 18.776 18.776 0 0 0 1.484 2.876 11.51 11.51 0 0 0 2.126 2.46 7.735 7.735 0 0 1-2.544-2.163 13.115 13.115 0 0 1-1.671-2.918 18.163 18.163 0 0 1-1-3.19 16.645 16.645 0 0 1-.414-3.3z" transform="translate(-12.774 -74.748)"/>
        <path id="路径_519" data-name="路径 519" class="cls-11" d="M137.273 325.9c.845 1.359 1.663 2.685 2.577 3.947.445.639.939 1.238 1.436 1.837s1.054 1.145 1.619 1.72a9.838 9.838 0 0 1-3.587-3.173 14.293 14.293 0 0 1-1.229-2.071 10.473 10.473 0 0 1-.816-2.26z" transform="translate(-12.774 -78.729)"/>
        <path id="路径_520" data-name="路径 520" class="cls-11" d="M173.791 372.193c.272 1.074.588 2.126.908 3.171a32.243 32.243 0 0 0 1.114 3.066 18.777 18.777 0 0 0 1.484 2.876 11.508 11.508 0 0 0 2.126 2.46 7.734 7.734 0 0 1-2.544-2.163 13.117 13.117 0 0 1-1.671-2.918 18.165 18.165 0 0 1-1-3.19 16.641 16.641 0 0 1-.414-3.3z" transform="translate(-25.289 -94.61)"/>
        <path id="路径_521" data-name="路径 521" class="cls-11" d="M173.791 383.8c.845 1.359 1.663 2.685 2.577 3.947.445.639.939 1.238 1.436 1.837s1.054 1.145 1.619 1.72a9.837 9.837 0 0 1-3.587-3.173 14.289 14.289 0 0 1-1.229-2.071 10.472 10.472 0 0 1-.815-2.259z" transform="translate(-25.289 -98.61)"/>
        <path id="路径_522" data-name="路径 522" class="cls-11" d="M152.223 291.25a11.517 11.517 0 0 1 .545 3.925 5.58 5.58 0 0 1-1.427 3.8 3.811 3.811 0 0 1-1.871.976 6.073 6.073 0 0 1-2.05.042 11.554 11.554 0 0 1-3.747-1.3 18.07 18.07 0 0 0 3.8.793 4.336 4.336 0 0 0 3.412-.98 5.542 5.542 0 0 0 1.375-3.365 17.836 17.836 0 0 0-.037-3.891z" transform="translate(-14.967 -66.843)"/>
        <path id="路径_523" data-name="路径 523" class="cls-8" d="M154.144 191.3s-1.494 7.563-12.1-3.52l-10.224 6.33a14.7 14.7 0 0 0-5.361 6.037 74.065 74.065 0 0 0-6.97 27.253s-1.446 9.519 12.689 28.291a7.821 7.821 0 0 0 9.156-6.446l-4.534-6.265s23.974 2.249 30.238-3.534c0 0 3.279-40.983-10.6-49.151z" transform="translate(-6.665 -31.36)"/>
        <path id="路径_524" data-name="路径 524" class="cls-9" d="M143.757 219.464q-.18 2.7-.42 5.4c-.169 1.8-.316 3.6-.5 5.392l-.566 5.385c-.179 1.8-.417 3.586-.622 5.379v-.054c.077 1.086.2 2.181.342 3.267s.287 2.176.482 3.256a32.572 32.572 0 0 0 1.727 6.348 26.006 26.006 0 0 1-2.137-6.265 48.338 48.338 0 0 1-1.013-6.564v-.055c.2-1.794.36-3.592.582-5.383l.639-5.377c.214-1.792.469-3.58.7-5.37s.506-3.574.786-5.359z" transform="translate(-14.067 -42.223)"/>
        <path id="路径_525" data-name="路径 525" class="cls-9" d="M147.333 222.152a10.476 10.476 0 0 1-1.346 2.429 10.358 10.358 0 0 1-1.879 2.045 10.358 10.358 0 0 1 1.346-2.429 10.477 10.477 0 0 1 1.879-2.045z" transform="translate(-15.116 -43.139)"/>
        <path id="路径_526" data-name="路径 526" class="cls-9" d="M139.411 252.21a2.78 2.78 0 0 1-.941.535 3.822 3.822 0 0 1-1.062.215 3.276 3.276 0 0 1-1.094-.141 1.982 1.982 0 0 1-.918-.61c.37.052.691.087 1.014.106.325 0 .643.006.967-.012.652-.026 1.301-.103 2.034-.093z" transform="translate(-12.13 -53.449)"/>
        <path id="路径_527" data-name="路径 527" class="cls-9" d="M168.776 196.774a106.523 106.523 0 0 1 3.936 11.841c1.1 4.017 1.962 8.1 2.668 12.2a100.906 100.906 0 0 1 1.161 12.444 63.845 63.845 0 0 1-.988 12.437c.169-2.075.485-4.128.479-6.207.136-2.07.039-4.144 0-6.214a111.92 111.92 0 0 0-1.3-12.356c-.649-4.094-1.516-8.153-2.507-12.181q-.741-3.023-1.613-6.013a125.99 125.99 0 0 0-1.836-5.951z" transform="translate(-23.57 -34.442)"/>
        <path id="路径_528" data-name="路径 528" class="cls-9" d="M166.566 191.252a27.6 27.6 0 0 1 .875 3.263 13.948 13.948 0 0 1 .25 1.682 6.321 6.321 0 0 1-.049 1.738 1.686 1.686 0 0 1-.406.866 1.063 1.063 0 0 1-.979.3 3.793 3.793 0 0 1-1.612-.8 20.365 20.365 0 0 1-2.472-2.363l.536-.2a6.077 6.077 0 0 1-.617 2.454 2.664 2.664 0 0 1-2.112 1.516 4.647 4.647 0 0 1-2.467-.618 12.046 12.046 0 0 1-2.045-1.362 31.3 31.3 0 0 1-3.452-3.395c-1.068-1.2-2.049-2.477-3-3.767a53.339 53.339 0 0 0 6.8 6.721 11.486 11.486 0 0 0 1.967 1.271 4.077 4.077 0 0 0 2.135.523 2.076 2.076 0 0 0 1.6-1.195 5.479 5.479 0 0 0 .576-2.168l.054-.735.483.54a19.852 19.852 0 0 0 2.358 2.323 3.754 3.754 0 0 0 1.344.741c.458.13.762-.236.88-.761a10.238 10.238 0 0 0-.038-3.277c-.143-1.099-.365-2.2-.609-3.297z" transform="translate(-16.798 -32.308)"/>
        <circle id="椭圆_23" data-name="椭圆 23" class="cls-11" cx=".671" cy=".671" r=".671" transform="translate(147.19 175.182)"/>
        <circle id="椭圆_24" data-name="椭圆 24" class="cls-11" cx=".671" cy=".671" r=".671" transform="translate(145.176 167.392)"/>
        <circle id="椭圆_25" data-name="椭圆 25" class="cls-11" cx=".671" cy=".671" r=".671" transform="translate(148.862 184.316)"/>
        <circle id="椭圆_26" data-name="椭圆 26" class="cls-11" cx=".671" cy=".671" r=".671" transform="translate(150.237 193.954)"/>
        <circle id="椭圆_27" data-name="椭圆 27" class="cls-11" cx=".671" cy=".671" r=".671" transform="translate(150.659 204.508)"/>
        <path id="路径_529" data-name="路径 529" class="cls-12" d="M171.3 170.937a1.845 1.845 0 0 0-.725-1.578 15.938 15.938 0 0 0-1.268-.854 5.109 5.109 0 0 0-4.344-.5 28.262 28.262 0 0 0-3.5 1.511 1.575 1.575 0 0 1-2.121-.715s-1.043-4.5-.852-5.792a8.827 8.827 0 0 0 .184-3.426c-.344-1.17.226-1.323.959-2.58.688-1.18 2.821-.225 3.353-.422 1.494-.552 1.438-1.181 2.448-1.244 1.036-.064 1.8-.338 2.465.33s1.935 2.5 2.243 2.181a5.9 5.9 0 0 0 1.155-2.975 6.542 6.542 0 0 0-.733-3.057c-.245-.546-1.158-2.576-3.059-3.118-1.095-.312-1.3.215-3.673.355-2.456.145-2.533-.4-3.819-.038-1.424.4-1.37 1.089-3.8 2.418a25.2 25.2 0 0 1-2.484 1.145c-3.055 1.294-3.455 1.087-4.157 1.766-1.515 1.464-1.267 3.981-1.208 4.589.168 1.712.837 2.227 2.291 4.97 2.3 4.344 2.691 6.948 3.549 6.853a3.033 3.033 0 0 0 1.723-2.094c-.013-1-.736-1.319-1.587-2.769-.594-1.013-1.448-2.467-.957-3.786.3-.8.629-.579 1.455-.5 1.121.1 1.672 1.665 2.121 2.811a6.131 6.131 0 0 1 .41 2.608c-.119 1.983-.116 5.391 1.1 7.076a9.053 9.053 0 0 0 6.987 3.451c4.906.047 5.708-4.683 5.844-6.616zm-3.177 2.046a3.137 3.137 0 0 1-3.057-.1c-.192-.115-1.419-.882-1.295-1.982s1.488-1.569 1.639-1.615a3.223 3.223 0 0 1 1.928.068c.784.2 2.157.561 2.34 1.482.178.885-.851 1.78-1.555 2.144z" transform="translate(-16.556 -17.893)"/>
        <path id="路径_530" data-name="路径 530" class="cls-14" d="M389.168 152.46a6.886 6.886 0 0 1-3.713-9.691 7.164 7.164 0 0 1 11.621-1.39l4.617-12.161 30.924 11.742a4.6 4.6 0 0 1 2.673 5.946l-11.976 31.544-12-4.558a7.487 7.487 0 0 0 1.938-2.785 6.992 6.992 0 0 0-3.948-9.071 7.1 7.1 0 0 0-8.974 4.165 7.487 7.487 0 0 0-.4 3.37l-12-4.558 4.614-12.153a7.572 7.572 0 0 1-3.37-.4zm0 0" transform="translate(-97.988 -11.25)"/>
        <path id="路径_531" data-name="路径 531" class="cls-8" d="M294.007 182.754a6.886 6.886 0 0 1-7.742 6.911 7.164 7.164 0 0 1-5.425-10.371h-13.008v-33.077a4.6 4.6 0 0 1 4.61-4.61h33.741v12.84a7.486 7.486 0 0 0-3.292-.823 6.992 6.992 0 0 0-7.079 6.911 7.1 7.1 0 0 0 7.079 6.911 7.487 7.487 0 0 0 3.292-.823v12.84h-13a7.571 7.571 0 0 1 .823 3.292zm0 0" transform="translate(-57.763 -15.495)"/>
        <path id="路径_532" data-name="路径 532" d="M288.66 144.2a17.782 17.782 0 0 0-.388-2.6h-15.828a4.6 4.6 0 0 0-4.614 4.614v17.2a18.087 18.087 0 0 0 20.83-19.214z" transform="translate(-57.748 -15.495)" style="fill:#ffd69b"/>
        <path id="路径_533" data-name="路径 533" class="cls-8" d="M424.111 258.42a6.886 6.886 0 0 1 1.028 10.327 7.164 7.164 0 0 1-11.577-1.721l-7.662 10.515-26.738-19.474a4.6 4.6 0 0 1-1.012-6.441l19.865-27.274 10.379 7.559a7.487 7.487 0 0 0-2.6 2.176 6.992 6.992 0 0 0 1.419 9.791 7.1 7.1 0 0 0 9.754-1.653 7.487 7.487 0 0 0 1.273-3.145l10.379 7.559-7.653 10.508a7.571 7.571 0 0 1 3.145 1.273zm0 0" transform="translate(-95.447 -43.905)"/>
        <path id="路径_534" data-name="路径 534" d="M242.993 274.635a6.886 6.886 0 0 1-10.362-.588 7.164 7.164 0 0 1 3.5-11.169l-9.2-9.2 23.39-23.389a4.6 4.6 0 0 1 6.52 0l23.859 23.86-9.079 9.079a7.485 7.485 0 0 0-1.746-2.91 6.992 6.992 0 0 0-9.893-.119 7.1 7.1 0 0 0 .119 9.893 7.487 7.487 0 0 0 2.91 1.746l-9.079 9.079-9.192-9.192a7.571 7.571 0 0 1-1.746 2.91zm0 0" transform="translate(-43.697 -45.478)" style="fill:#6c7fd8"/>
        <path id="路径_535" data-name="路径 535" class="cls-17" d="M345.294 241.316a2.964 2.964 0 0 1-2.914-2.931 2.923 2.923 0 1 1 2.914 2.931zm0-3.74a.809.809 0 1 0 .826.809.8.8 0 0 0-.826-.809zm-.342-5.075a1.87 1.87 0 0 1-1.87-1.87v-8.815a1.87 1.87 0 0 1 1.87-1.87 10.471 10.471 0 0 0 0-20.942 10.611 10.611 0 0 0-10.471 10.471 3 3 0 0 0 .153 1.285 1.87 1.87 0 1 1-3.361 1.639 6.249 6.249 0 0 1-.531-2.924 14.4 14.4 0 0 1 14.211-14.211 14.214 14.214 0 0 1 1.87 28.3v7.062a1.87 1.87 0 0 1-1.869 1.869z" transform="translate(-79.4 -33.923)"/>
        <path id="路径_536" data-name="路径 536" class="cls-14" d="M160.1 127.529a1.717 1.717 0 1 1 1.718-1.717 1.758 1.758 0 0 1-1.718 1.717zm0-1.972a.255.255 0 1 0 0 .509.23.23 0 0 0 .267-.254.235.235 0 0 0-.267-.255zm-.236-4.1a.986.986 0 0 1-.986-.986v-6.076a.986.986 0 0 1 .986-.986 7.521 7.521 0 0 0 0-15.041 7.622 7.622 0 0 0-7.52 7.521 2.325 2.325 0 0 0 .136 1.019.986.986 0 1 1-1.773.863 4.056 4.056 0 0 1-.335-1.882 9.62 9.62 0 0 1 9.493-9.493 9.494 9.494 0 0 1 .986 18.937v5.138a.986.986 0 0 1-.986.986z" transform="translate(-17.261)"/>
        <path id="路径_537" data-name="路径 537" class="cls-14" d="M276.785 136.822a17.78 17.78 0 0 0-.388-2.6 18.087 18.087 0 1 0-26.772 19.555l-2.675 4.68a2.312 2.312 0 0 0-2.6 1.15l-10.9 20.245a2.306 2.306 0 0 0 .946 3.129 2.084 2.084 0 0 0 .539.21 2.315 2.315 0 0 0 2.59-1.15l10.898-20.241a2.313 2.313 0 0 0-.289-2.609l2.715-4.759a17.868 17.868 0 0 0 3.589 1.308c.5.118 1.006.224 1.518.3a18.087 18.087 0 0 0 20.83-19.219zm-6.085 11.64a15.8 15.8 0 1 1 3.78-11.47 15.644 15.644 0 0 1-3.78 11.47z" transform="translate(-45.841 -8.115)"/>
        <path id="路径_538" data-name="路径 538" class="cls-5" d="M238.981 202.611s-2.068-.389-2.071 1.05a1.676 1.676 0 0 0 1.142 1.531c2.029.741 7.122 2.347 6.451-.5 0 0 3.217-.583 1.573-2.465 0 0 2.049-.806.728-2.368 0 0 1.663-.691.064-2.363s-8.056-1.86-6.418.237l.59.432a1.435 1.435 0 0 0-1.1 2.2s-2.172.385-.959 2.246z" transform="translate(-47.103 -34.237)"/>
        <path id="路径_539" data-name="路径 539" class="cls-7" d="M245.583 208.033a13.242 13.242 0 0 1-2.865-.763 13.092 13.092 0 0 1-2.657-1.316 13.094 13.094 0 0 1 2.865.763 13.248 13.248 0 0 1 2.657 1.316z" transform="translate(-48.184 -37.582)"/>
        <path id="路径_540" data-name="路径 540" class="cls-7" d="M247.655 204.394a15.615 15.615 0 0 1-3.156-.65 15.436 15.436 0 0 1-2.984-1.215 15.44 15.44 0 0 1 3.156.65 15.614 15.614 0 0 1 2.984 1.215z" transform="translate(-48.685 -36.407)"/>
        <path id="路径_541" data-name="路径 541" class="cls-7" d="M248.958 200.881a13.715 13.715 0 0 1-2.965-.564 13.561 13.561 0 0 1-2.8-1.131 13.555 13.555 0 0 1 2.965.564 13.718 13.718 0 0 1 2.8 1.131z" transform="translate(-49.263 -35.261)"/>
        <path id="路径_542" data-name="路径 542" class="cls-4" d="M514.893 164.035v189.292h42.795V164.035a2.053 2.053 0 0 0-2.053-2.053h-38.688a2.053 2.053 0 0 0-2.054 2.053z" transform="translate(-142.834 -22.591)"/>
        <rect id="矩形_142" data-name="矩形 142" class="cls-18" width="38.072" height="28.277" rx="3.124" transform="translate(374.42 173.899)"/>
        <rect id="矩形_143" data-name="矩形 143" class="cls-18" width="38.072" height="28.277" rx="3.124" transform="translate(374.42 142.559)"/>
        <path id="路径_543" data-name="路径 543" class="cls-19" d="M571.793 204.228a1.065 1.065 0 0 1 .439.925 1.382 1.382 0 0 1-1.306 1.309 1.062 1.062 0 0 1-.926-.441 7.847 7.847 0 0 0 .446-.714 1.614 1.614 0 0 1 .259-.373 1.718 1.718 0 0 1 .375-.258 7.53 7.53 0 0 0 .713-.448z" transform="translate(-161.719 -36.99)"/>
        <path id="路径_544" data-name="路径 544" class="cls-19" d="M570 169.171a1.065 1.065 0 0 1 .925-.439 1.382 1.382 0 0 1 1.309 1.306 1.062 1.062 0 0 1-.441.926 7.842 7.842 0 0 0-.714-.446 1.609 1.609 0 0 1-.373-.259 1.713 1.713 0 0 1-.258-.375 7.55 7.55 0 0 0-.448-.713z" transform="translate(-161.719 -24.814)"/>
        <path id="路径_545" data-name="路径 545" class="cls-19" d="M521.935 170.962a1.065 1.065 0 0 1-.439-.925 1.382 1.382 0 0 1 1.306-1.309 1.062 1.062 0 0 1 .925.441 7.854 7.854 0 0 0-.446.714 1.613 1.613 0 0 1-.259.373 1.717 1.717 0 0 1-.375.258 7.521 7.521 0 0 0-.712.448z" transform="translate(-145.096 -24.813)"/>
        <path id="路径_546" data-name="路径 546" class="cls-19" d="M523.726 206.02a1.065 1.065 0 0 1-.925.439 1.382 1.382 0 0 1-1.309-1.306 1.061 1.061 0 0 1 .441-.926 7.819 7.819 0 0 0 .714.446 1.612 1.612 0 0 1 .373.259 1.712 1.712 0 0 1 .258.375 7.57 7.57 0 0 0 .447.712z" transform="translate(-145.095 -36.99)"/>
        <path id="路径_547" data-name="路径 547" class="cls-19" d="M571.793 251.934a1.066 1.066 0 0 1 .439.925 1.382 1.382 0 0 1-1.306 1.309 1.062 1.062 0 0 1-.926-.441 7.821 7.821 0 0 0 .446-.714 1.614 1.614 0 0 1 .259-.373 1.715 1.715 0 0 1 .375-.258 7.535 7.535 0 0 0 .712-.447z" transform="translate(-161.719 -53.355)"/>
        <path id="路径_548" data-name="路径 548" class="cls-19" d="M570 216.876a1.065 1.065 0 0 1 .925-.439 1.382 1.382 0 0 1 1.309 1.306 1.062 1.062 0 0 1-.441.926 7.841 7.841 0 0 0-.714-.446 1.611 1.611 0 0 1-.373-.259 1.714 1.714 0 0 1-.258-.375 7.558 7.558 0 0 0-.448-.713z" transform="translate(-161.719 -41.178)"/>
        <path id="路径_549" data-name="路径 549" class="cls-19" d="M521.935 218.668a1.065 1.065 0 0 1-.439-.925 1.382 1.382 0 0 1 1.306-1.309 1.062 1.062 0 0 1 .925.441 7.85 7.85 0 0 0-.446.714 1.612 1.612 0 0 1-.259.373 1.716 1.716 0 0 1-.375.258 7.533 7.533 0 0 0-.712.447z" transform="translate(-145.096 -41.177)"/>
        <path id="路径_550" data-name="路径 550" class="cls-19" d="M523.726 253.726a1.065 1.065 0 0 1-.925.439 1.382 1.382 0 0 1-1.309-1.306 1.061 1.061 0 0 1 .441-.926 7.816 7.816 0 0 0 .714.446 1.613 1.613 0 0 1 .373.259 1.714 1.714 0 0 1 .258.375 7.571 7.571 0 0 0 .448.713z" transform="translate(-145.095 -53.355)"/>
        <rect id="矩形_144" data-name="矩形 144" class="cls-18" width="38.072" height="28.277" rx="3.124" transform="translate(374.42 236.577)"/>
        <rect id="矩形_145" data-name="矩形 145" class="cls-18" width="38.072" height="28.277" rx="3.124" transform="translate(374.42 267.898)"/>
        <rect id="矩形_146" data-name="矩形 146" class="cls-19" width="11.705" height="4.312" rx="1.21" transform="translate(387.604 152.844)"/>
        <rect id="矩形_147" data-name="矩形 147" class="cls-19" width="11.705" height="4.312" rx="1.21" transform="translate(387.604 246.868)"/>
        <rect id="矩形_148" data-name="矩形 148" class="cls-19" width="11.705" height="4.312" rx="1.21" transform="translate(387.604 278.21)"/>
        <rect id="矩形_149" data-name="矩形 149" class="cls-19" width="11.705" height="4.312" rx="1.21" transform="translate(387.604 184.186)"/>
        <path id="路径_551" data-name="路径 551" class="cls-19" d="M571.793 347.345a1.065 1.065 0 0 1 .439.925 1.382 1.382 0 0 1-1.306 1.309 1.062 1.062 0 0 1-.926-.441 7.857 7.857 0 0 0 .446-.714 1.61 1.61 0 0 1 .259-.373 1.713 1.713 0 0 1 .375-.258 7.557 7.557 0 0 0 .713-.448z" transform="translate(-161.719 -86.083)"/>
        <path id="路径_552" data-name="路径 552" class="cls-19" d="M570 312.288a1.065 1.065 0 0 1 .925-.439 1.382 1.382 0 0 1 1.309 1.306 1.061 1.061 0 0 1-.441.926 7.848 7.848 0 0 0-.714-.446 1.609 1.609 0 0 1-.373-.259 1.711 1.711 0 0 1-.258-.375 7.557 7.557 0 0 0-.448-.713z" transform="translate(-161.719 -73.906)"/>
        <path id="路径_553" data-name="路径 553" class="cls-19" d="M521.935 314.079a1.064 1.064 0 0 1-.439-.925 1.382 1.382 0 0 1 1.306-1.309 1.062 1.062 0 0 1 .925.441 7.82 7.82 0 0 0-.446.714 1.607 1.607 0 0 1-.259.373 1.715 1.715 0 0 1-.375.258 7.541 7.541 0 0 0-.712.447z" transform="translate(-145.096 -73.905)"/>
        <path id="路径_554" data-name="路径 554" class="cls-19" d="M523.726 349.137a1.065 1.065 0 0 1-.925.439 1.382 1.382 0 0 1-1.309-1.306 1.062 1.062 0 0 1 .441-.926 7.809 7.809 0 0 0 .714.446 1.612 1.612 0 0 1 .373.259 1.718 1.718 0 0 1 .258.375 7.567 7.567 0 0 0 .448.713z" transform="translate(-145.095 -86.083)"/>
        <path id="路径_555" data-name="路径 555" class="cls-19" d="M571.793 395.051a1.065 1.065 0 0 1 .439.925 1.383 1.383 0 0 1-1.306 1.309 1.062 1.062 0 0 1-.926-.441 7.808 7.808 0 0 0 .446-.714 1.612 1.612 0 0 1 .259-.373 1.716 1.716 0 0 1 .375-.258 7.545 7.545 0 0 0 .713-.448z" transform="translate(-161.719 -102.465)"/>
        <path id="路径_556" data-name="路径 556" class="cls-19" d="M570 359.994a1.065 1.065 0 0 1 .925-.439 1.382 1.382 0 0 1 1.309 1.306 1.062 1.062 0 0 1-.441.926 7.842 7.842 0 0 0-.714-.446 1.607 1.607 0 0 1-.373-.259 1.712 1.712 0 0 1-.258-.375 7.581 7.581 0 0 0-.448-.713z" transform="translate(-161.719 -90.271)"/>
        <path id="路径_557" data-name="路径 557" class="cls-19" d="M521.935 361.785a1.065 1.065 0 0 1-.439-.925 1.382 1.382 0 0 1 1.306-1.309 1.062 1.062 0 0 1 .925.441 7.855 7.855 0 0 0-.446.714 1.612 1.612 0 0 1-.259.373 1.721 1.721 0 0 1-.375.258 7.557 7.557 0 0 0-.712.447z" transform="translate(-145.096 -90.27)"/>
        <path id="路径_558" data-name="路径 558" class="cls-19" d="M523.726 396.843a1.065 1.065 0 0 1-.925.439 1.382 1.382 0 0 1-1.309-1.306 1.061 1.061 0 0 1 .441-.926 7.809 7.809 0 0 0 .714.446 1.613 1.613 0 0 1 .373.259 1.712 1.712 0 0 1 .258.375 7.579 7.579 0 0 0 .448.713z" transform="translate(-145.095 -102.465)"/>
        <path id="路径_559" data-name="路径 559" d="M533.34 382.821s20.889.424 24.063-3.106c0 0-6.841 24.509-1.677 36.533l-23.234-2.454s2.718-18.98.848-30.973z" transform="translate(-148.865 -97.209)" style="fill:#7ca1b1"/>
        <path id="路径_560" data-name="路径 560" class="cls-21" d="M525.558 387.389s20.889.424 24.063-3.106c0 0-6.841 24.509-1.676 36.533l-23.234-2.454s2.717-18.98.847-30.973z" transform="translate(-146.198 -98.775)"/>
        <path id="路径_561" data-name="路径 561" class="cls-17" d="M529.533 390.9s20.889.424 24.063-3.106c0 0-6.841 24.509-1.676 36.533l-23.234-2.454s2.714-18.981.847-30.973z" transform="translate(-147.561 -99.978)"/>
        <path id="路径_562" data-name="路径 562" class="cls-8" d="M533.424 241.938s20.889.424 24.063-3.106c0 0-6.841 24.509-1.676 36.533l-23.234-2.453s2.717-18.982.847-30.974z" transform="translate(-148.894 -48.868)"/>
        <path id="路径_563" data-name="路径 563" class="cls-21" d="M525.642 246.506s20.89.424 24.063-3.106c0 0-6.841 24.509-1.677 36.533L524.8 277.48s2.712-18.98.842-30.974z" transform="translate(-146.227 -50.435)"/>
        <path id="路径_564" data-name="路径 564" class="cls-17" d="M529.618 250.016s20.889.424 24.063-3.106c0 0-6.841 24.509-1.677 36.533l-23.234-2.454s2.718-18.98.848-30.973z" transform="translate(-147.59 -51.64)"/>
        <rect id="矩形_150" data-name="矩形 150" class="cls-18" width="38.072" height="28.277" rx="3.124" transform="translate(374.42 299.255)"/>
        <rect id="矩形_151" data-name="矩形 151" class="cls-19" width="11.705" height="4.312" rx="1.21" transform="translate(387.604 309.543)"/>
        <path id="路径_565" data-name="路径 565" class="cls-19" d="M571.793 442.757a1.066 1.066 0 0 1 .439.925 1.383 1.383 0 0 1-1.306 1.309 1.062 1.062 0 0 1-.926-.441 7.809 7.809 0 0 0 .446-.714 1.614 1.614 0 0 1 .259-.373 1.716 1.716 0 0 1 .375-.258 7.563 7.563 0 0 0 .712-.447z" transform="translate(-161.719 -118.814)"/>
        <path id="路径_566" data-name="路径 566" class="cls-19" d="M570 407.7a1.065 1.065 0 0 1 .925-.439 1.382 1.382 0 0 1 1.309 1.306 1.062 1.062 0 0 1-.441.926 7.84 7.84 0 0 0-.714-.446 1.61 1.61 0 0 1-.373-.259 1.715 1.715 0 0 1-.258-.375 7.586 7.586 0 0 0-.448-.713z" transform="translate(-161.719 -106.649)"/>
        <path id="路径_567" data-name="路径 567" class="cls-19" d="M521.935 409.491a1.065 1.065 0 0 1-.439-.925 1.382 1.382 0 0 1 1.306-1.309 1.062 1.062 0 0 1 .925.441 7.828 7.828 0 0 0-.446.714 1.611 1.611 0 0 1-.259.373 1.713 1.713 0 0 1-.375.258 7.522 7.522 0 0 0-.712.448z" transform="translate(-145.096 -106.648)"/>
        <path id="路径_568" data-name="路径 568" class="cls-19" d="M523.726 444.549a1.065 1.065 0 0 1-.925.439 1.382 1.382 0 0 1-1.309-1.306 1.062 1.062 0 0 1 .441-.926 7.827 7.827 0 0 0 .714.446 1.611 1.611 0 0 1 .373.259 1.717 1.717 0 0 1 .258.375 7.563 7.563 0 0 0 .448.713z" transform="translate(-145.095 -118.814)"/>
        <rect id="矩形_152" data-name="矩形 152" class="cls-18" width="38.072" height="28.277" rx="3.124" transform="translate(374.42 205.238)"/>
        <rect id="矩形_153" data-name="矩形 153" class="cls-19" width="11.705" height="4.312" rx="1.21" transform="translate(387.604 215.527)"/>
        <path id="路径_569" data-name="路径 569" class="cls-19" d="M571.793 299.639a1.066 1.066 0 0 1 .439.925 1.382 1.382 0 0 1-1.306 1.309 1.062 1.062 0 0 1-.926-.441 7.844 7.844 0 0 0 .446-.714 1.612 1.612 0 0 1 .259-.373 1.717 1.717 0 0 1 .375-.258 7.533 7.533 0 0 0 .712-.447z" transform="translate(-161.719 -69.719)"/>
        <path id="路径_570" data-name="路径 570" class="cls-19" d="M570 264.582a1.065 1.065 0 0 1 .925-.439 1.382 1.382 0 0 1 1.309 1.306 1.062 1.062 0 0 1-.441.926 7.855 7.855 0 0 0-.714-.446 1.612 1.612 0 0 1-.373-.259 1.715 1.715 0 0 1-.258-.375 7.587 7.587 0 0 0-.448-.713z" transform="translate(-161.719 -57.542)"/>
        <path id="路径_571" data-name="路径 571" class="cls-19" d="M521.935 266.374a1.065 1.065 0 0 1-.439-.925 1.382 1.382 0 0 1 1.306-1.309 1.062 1.062 0 0 1 .925.441 7.86 7.86 0 0 0-.446.714 1.612 1.612 0 0 1-.259.373 1.719 1.719 0 0 1-.375.258 7.534 7.534 0 0 0-.712.448z" transform="translate(-145.096 -57.541)"/>
        <path id="路径_572" data-name="路径 572" class="cls-19" d="M523.726 301.432a1.065 1.065 0 0 1-.925.439 1.382 1.382 0 0 1-1.309-1.306 1.062 1.062 0 0 1 .441-.926 7.8 7.8 0 0 0 .714.446 1.614 1.614 0 0 1 .373.259 1.713 1.713 0 0 1 .258.375 7.562 7.562 0 0 0 .447.712z" transform="translate(-145.095 -69.719)"/>
    </g>
</svg>
