<svg xmlns="http://www.w3.org/2000/svg" width="47.989" height="44.262">
    <path data-name="SP icon" d="M110.723 138.086a4.077 4.077 0 0 1 .519 3.717l-7.924 26.108a5.952 5.952 0 0 1-2.2 3.1 5.749 5.749 0 0 1-3.53 1.254h-26.6a7.054 7.054 0 0 1-4.279-1.542 8.094 8.094 0 0 1-2.867-3.789 5.227 5.227 0 0 1-.058-3.66q0-.115.086-.778t.115-1.066a1.6 1.6 0 0 0-.086-.62 1.427 1.427 0 0 1-.086-.562 1.792 1.792 0 0 1 .231-.605 7.048 7.048 0 0 1 .475-.677 7.056 7.056 0 0 0 .475-.677 19.3 19.3 0 0 0 1.3-2.637 15.64 15.64 0 0 0 .864-2.637 2.248 2.248 0 0 0 .014-.864 2.532 2.532 0 0 1-.014-.807 2.415 2.415 0 0 1 .49-.807 4.749 4.749 0 0 0 .49-.663 17.631 17.631 0 0 0 1.21-2.651 11.794 11.794 0 0 0 .72-2.593 4.167 4.167 0 0 0-.072-.922q-.1-.663.014-.807a2.311 2.311 0 0 1 .634-.879q.519-.5.634-.648a11.893 11.893 0 0 0 1.225-2.435 10.922 10.922 0 0 0 .792-2.781 2.385 2.385 0 0 0-.086-.735 1.871 1.871 0 0 1-.058-.764 1.627 1.627 0 0 1 .259-.519q.2-.288.519-.663t.49-.605a6.492 6.492 0 0 0 .475-.879q.245-.533.432-1.009t.461-1.037a4.957 4.957 0 0 1 .562-.922 3.336 3.336 0 0 1 .764-.677 1.925 1.925 0 0 1 1.037-.331 5.977 5.977 0 0 1 1.369.158l-.029.086a8.025 8.025 0 0 1 1.47-.259h21.929a3.8 3.8 0 0 1 3.285 1.614 4.111 4.111 0 0 1 .519 3.746l-7.9 26.108a11.266 11.266 0 0 1-2.06 4.423q-1.023.994-3.7.994H67.989a1.27 1.27 0 0 0-1.1.432 1.314 1.314 0 0 0-.029 1.239q.692 2.017 4.15 2.017h26.6a3.2 3.2 0 0 0 1.614-.447 2.068 2.068 0 0 0 1.009-1.2l8.645-28.442a4.654 4.654 0 0 0 .144-1.643 3.81 3.81 0 0 1 1.701 1.243zm-30.661.058a.751.751 0 0 0 .058.648.629.629 0 0 0 .576.274h17.52a1.205 1.205 0 0 0 .735-.274 1.287 1.287 0 0 0 .475-.648l.605-1.844a.751.751 0 0 0-.058-.648.629.629 0 0 0-.576-.274H81.878a1.205 1.205 0 0 0-.735.274 1.287 1.287 0 0 0-.475.648zm-2.392 7.377a.751.751 0 0 0 .058.648.629.629 0 0 0 .576.274h17.52a1.205 1.205 0 0 0 .735-.274 1.287 1.287 0 0 0 .475-.648l.605-1.844a.751.751 0 0 0-.058-.648.629.629 0 0 0-.576-.274H79.486a1.205 1.205 0 0 0-.735.274 1.287 1.287 0 0 0-.475.648z" transform="translate(-63.478 -128)" style="fill:#2e4565"/>
</svg>
