<svg xmlns="http://www.w3.org/2000/svg" width="25.279" height="16.857" viewBox="0 0 25.279 16.857">
    <path fill="#fb0" d="M24.226 4.5H3.862a1.053 1.053 0 0 0-1.053 1.054V5.9H1.053A1.053 1.053 0 0 0 0 6.958V18.9a2.458 2.458 0 0 0 2.458 2.458h20.715a2.107 2.107 0 0 0 2.107-2.107V5.554A1.053 1.053 0 0 0 24.226 4.5zM2.458 19.25a.351.351 0 0 1-.351-.351V8.012h.7V18.9a.351.351 0 0 1-.349.35zm10.357-.7H6.144a.527.527 0 0 1-.527-.527v-.351a.527.527 0 0 1 .527-.527h6.671a.527.527 0 0 1 .527.527v.351a.527.527 0 0 1-.527.524zm9.129 0h-6.671a.527.527 0 0 1-.527-.527v-.351a.527.527 0 0 1 .527-.527h6.671a.527.527 0 0 1 .527.527v.351a.527.527 0 0 1-.527.524zm-9.129-4.214H6.144a.527.527 0 0 1-.527-.527v-.351a.527.527 0 0 1 .527-.527h6.671a.527.527 0 0 1 .527.527v.351a.527.527 0 0 1-.527.524zm9.129 0h-6.671a.527.527 0 0 1-.527-.527v-.351a.527.527 0 0 1 .527-.527h6.671a.527.527 0 0 1 .527.527v.351a.527.527 0 0 1-.527.524zm0-4.214h-15.8a.527.527 0 0 1-.527-.527V7.836a.527.527 0 0 1 .527-.527h15.8a.527.527 0 0 1 .527.527v1.756a.527.527 0 0 1-.527.527z" opacity="0.5" transform="translate(0 -4.5)"/>
</svg>
