<svg xmlns="http://www.w3.org/2000/svg" width="30" height="30" viewBox="0 0 30 30">
    <path fill="#fb0" d="M15.562 30.563a15 15 0 1 1 15-15 15 15 0 0 1-15 15zm1.748-8.685L12.744 17.5h11.044a1.448 1.448 0 0 0 1.452-1.452v-.968a1.448 1.448 0 0 0-1.452-1.452H12.744l4.566-4.38a1.453 1.453 0 0 0 .024-2.075l-.665-.659a1.446 1.446 0 0 0-2.05 0l-8.026 8.02a1.446 1.446 0 0 0 0 2.05l8.026 8.026a1.446 1.446 0 0 0 2.05 0l.665-.659a1.453 1.453 0 0 0-.024-2.074z" transform="translate(-0.563 -0.563)"/>
</svg>
