<svg xmlns="http://www.w3.org/2000/svg" width="30" height="27">
    <path data-name="側邊欄裡頭的Contact us icon" d="M51.693 40H26.309A2.28 2.28 0 0 0 24 42.245V60.2a2.28 2.28 0 0 0 2.308 2.245h8.577l2.136 3.463a2.342 2.342 0 0 0 3.958 0l2.136-3.463h8.577A2.28 2.28 0 0 0 54 60.2V42.245A2.28 2.28 0 0 0 51.693 40zM32.078 52.907a1.684 1.684 0 1 1 1.731-1.684 1.708 1.708 0 0 1-1.731 1.684zm6.923 0a1.684 1.684 0 1 1 1.731-1.684A1.708 1.708 0 0 1 39 52.907zm6.923 0a1.684 1.684 0 1 1 1.731-1.684 1.708 1.708 0 0 1-1.731 1.684z" transform="translate(-24.001 -40)" style="fill:#2e4565"/>
</svg>
