<svg id="讀書會圖片" xmlns="http://www.w3.org/2000/svg" width="245" height="180">
    <defs>
        <style>
            .cls-4{fill:#904d24}.cls-5{fill:#c38f86}.cls-6{fill:#935b50}.cls-7{fill:#ffba55}.cls-10{fill:#f9977a}.cls-11{fill:#8b9d36}.cls-12{fill:#6c7fd8}.cls-13{fill:#dd765e}.cls-14{fill:#0a0709}.cls-15{fill:#1e1d22}.cls-16{fill:#e6952a}.cls-17{fill:#7ca1b1}.cls-18{fill:#5e7c24}.cls-19{fill:#d77f4a}.cls-20{fill:#50661a}.cls-21{fill:#c4ce6e}.cls-22{fill:#d6694b}.cls-23{fill:#e19974}
        </style>
    </defs>
    <path id="路径_63" data-name="路径 63" d="M262.768 292.472a115.077 115.077 0 0 0 23.7-9.82c8.864-4.959 48.238-28.556 53.358-69.4a77.612 77.612 0 0 0-3.263-33.266 63.893 63.893 0 0 0-13.151-23.086c-10.142-11.245-21.716-15.6-28.5-18.068a82.54 82.54 0 0 0-31.956-4.729 76.62 76.62 0 0 0-29.364 6.023c-8.055 3.5-13.063 7.5-20.442 13.475-11.691 9.473-13.229 13.417-33.681 32.978-5.615 5.369-10.231 9.6-17.277 13.768-4.885 2.889-8.834 4.5-16.12 7.453-17.909 7.248-23.008 8.715-28.868 12.8-11.4 7.941-10.659 16.6-11.149 18.465a36.527 36.527 0 0 0-.867 14.627c1.494 9.8 6.791 16.2 10.079 20.074a55.377 55.377 0 0 0 16.12 12.9 103.214 103.214 0 0 0 13.21 5.8z" transform="translate(-102.453 -112.963)" style="fill:#efedef"/>
    <path id="路径_64" data-name="路径 64" d="m421.282 281.572-.24-.425c11.725-6.552 50.38-31.116 55.521-72.1a80.774 80.774 0 0 0-3.391-34.537 66.524 66.524 0 0 0-13.661-23.958c-10.755-11.9-23.03-16.358-29.625-18.75a85.816 85.816 0 0 0-33.235-4.913 80.384 80.384 0 0 0-30.535 6.252l-.2-.447a80.848 80.848 0 0 1 30.715-6.293 86.28 86.28 0 0 1 33.419 4.943c6.636 2.407 18.986 6.887 29.823 18.883a66.991 66.991 0 0 1 13.761 24.127 81.294 81.294 0 0 1 3.413 34.755c-5.167 41.209-43.989 65.883-55.765 72.463z" transform="translate(-235.752 -109.022)" style="fill:#6a8d99"/>
    <rect id="矩形_85" data-name="矩形 85" width="116.595" height="97.981" rx="2.949" transform="translate(18.584)" style="fill:#ffe3cb"/>
    <path id="路径_65" data-name="路径 65" class="cls-4" d="M276.672 125.16a.527.527 0 0 1-.038-1.052l9.66-.71a.527.527 0 1 1 .077 1.051l-9.659.71z" transform="translate(-189.839 -107.546)"/>
    <path id="路径_66" data-name="路径 66" class="cls-4" d="M286.332 131.413h-9.659a.527.527 0 0 1 0-1.054h9.659a.527.527 0 1 1 0 1.054z" transform="translate(-189.839 -111.093)"/>
    <path id="路径_67" data-name="路径 67" class="cls-4" d="M286.332 138.376h-9.659a.527.527 0 0 1 0-1.054h9.659a.527.527 0 1 1 0 1.054z" transform="translate(-189.839 -114.64)"/>
    <path id="路径_68" data-name="路径 68" class="cls-4" d="M286.332 143.055h-9.659a.527.527 0 0 1 0-1.054h9.659a.527.527 0 1 1 0 1.054z" transform="translate(-189.839 -117.024)"/>
    <path id="路径_69" data-name="路径 69" class="cls-4" d="M183.326 190.31a.527.527 0 0 1-.527-.527v-65.86a.527.527 0 1 1 1.054 0v65.86a.527.527 0 0 1-.527.527z" transform="translate(-142.18 -107.546)"/>
    <path id="路径_70" data-name="路径 70" class="cls-4" d="M254.358 236.084h-94.316a.527.527 0 1 1 0-1.054h94.316a.527.527 0 1 1 0 1.054z" transform="translate(-130.319 -164.736)"/>
    <path id="路径_71" data-name="路径 71" class="cls-4" d="M193.3 172.15a.527.527 0 0 1-.438-.818l9.464-14.246a.537.537 0 0 1 .475-.234.527.527 0 0 1 .439.3l4.76 9.89 12.9-25.78a.519.519 0 0 1 .523-.289.527.527 0 0 1 .456.385l4.558 16.619 3.94-6.965a.527.527 0 0 1 .942.05l5.343 12.315 3.795-10.654a.526.526 0 0 1 .44-.347.52.52 0 0 1 .5.245l3.746 6.015 13.285-26.481a.527.527 0 0 1 .965.054l2.531 6.881 8.911-16.709a.527.527 0 0 1 .93.5l-9.465 17.742a.527.527 0 0 1-.959-.066l-2.517-6.843-13.161 26.233a.527.527 0 0 1-.447.29.54.54 0 0 1-.471-.248l-3.666-5.886-3.876 10.883a.527.527 0 0 1-.98.033l-5.453-12.57-4.048 7.156a.527.527 0 0 1-.967-.12l-4.532-16.524-12.765 25.511a.561.561 0 0 1-.475.291.527.527 0 0 1-.471-.3L202.7 158.44l-8.952 13.475a.526.526 0 0 1-.448.235z" transform="translate(-147.342 -106.886)"/>
    <path id="路径_72" data-name="路径 72" class="cls-4" d="M164.7 174.437a.527.527 0 0 1-.527-.527v-31.382a.527.527 0 1 1 1.054 0v31.382a.527.527 0 0 1-.527.527z" transform="translate(-132.691 -117.023)"/>
    <path id="路径_73" data-name="路径 73" class="cls-4" d="M259.215 252.162h-.008l-49.279-.694a.527.527 0 0 1-.519-.534.535.535 0 0 1 .534-.519l49.279.694a.527.527 0 1 1-.007 1.054z" transform="translate(-155.815 -172.608)"/>
    <path id="路径_74" data-name="路径 74" class="cls-5" d="m412.422 409.239-13.709-46.217 3.82-1.133 14.082 47.476z" transform="translate(-252.357 -229.857)"/>
    <path id="路径_75" data-name="路径 75" class="cls-5" d="m364.585 409.239-4.193.126 14.083-47.476 3.82 1.133z" transform="translate(-232.812 -229.857)"/>
    <path id="矩形_86" data-name="矩形 86" class="cls-5" transform="translate(143.901 129.276)" d="M0 0h3.984v50.241H0z"/>
    <rect id="矩形_87" data-name="矩形 87" class="cls-6" width="44.028" height="6.644" rx="3.322" transform="translate(122.291 127.168)"/>
    <path id="路径_76" data-name="路径 76" class="cls-7" d="M478.517 301.163v.181a1.745 1.745 0 0 1-1.744 1.744h-5.24a1.745 1.745 0 0 1-1.744-1.744v-7.061a1.745 1.745 0 0 1 1.744-1.744h5.24a1.745 1.745 0 0 1 1.744 1.744v6.88z" transform="translate(-288.6 -194.186)"/>
    <path id="路径_77" data-name="路径 77" class="cls-6" d="M490.471 296.208h-2.889v1.047h2.365v4.731h-2.365v1.047h2.889a.523.523 0 0 0 .523-.523v-5.778a.523.523 0 0 0-.523-.523z" transform="translate(-297.67 -196.053)"/>
    <rect id="矩形_88" data-name="矩形 88" width="2.168" height="2.168" rx=".711" transform="translate(185.554 101.971)" style="fill:#fff"/>
    <path id="矩形_89" data-name="矩形 89" transform="translate(186.393 98.371)" style="fill:#e5caf3" d="M0 0h.492v3.612H0z"/>
    <path id="路径_78" data-name="路径 78" class="cls-10" d="M306.285 429.225s.36 11.778-.579 11.99-24.142-2.189-19.8-3.478l7.131-1.73a6.554 6.554 0 0 0 4.951-5.109l.68-3.624z" transform="translate(-194.544 -263.166)"/>
    <path id="路径_79" data-name="路径 79" class="cls-10" d="M375.666 422.795s6.05 9.229 5.406 9.825-18.102 7.98-15.272 4.98l2.618-3.366a5.828 5.828 0 0 0 1.449-6.327l-1.231-3.2z" transform="translate(-235.409 -260.884)"/>
    <path id="路径_80" data-name="路径 80" class="cls-11" d="M349.246 334.314c-2.445 1.887-1.3 4.142-.281 7l11.135 38.023-8.034 4.29-19.118-37.587s-6.273-7.64 1.721-12.9z" transform="translate(-217.628 -215.209)"/>
    <path id="路径_81" data-name="路径 81" class="cls-10" d="m364.274 295.716-3.327-2.471a3.293 3.293 0 0 0-1.632-.63 12.853 12.853 0 0 1-3.445-.7c-.71-.36-1.069-.047-.706.643.214.406.965.941 2.934 1.574l-1.713.423a1.95 1.95 0 0 1-1.5-.238l-1.885-1.18a.592.592 0 0 0-.751.1.544.544 0 0 0 .107.821l3.4 2.287a2.987 2.987 0 0 0 2.293 3.294 15.33 15.33 0 0 0 6.223-.451z" transform="translate(-228.582 -193.785)"/>
    <path id="路径_82" data-name="路径 82" class="cls-12" d="m338.236 293.1 11.318-.693-11.649-15.918-11.065.726z" transform="translate(-215.702 -185.99)"/>
    <path id="路径_83" data-name="路径 83" class="cls-10" d="m364.235 300.166-5.889-4.984s-3.171-.939-5-1.667a2.649 2.649 0 0 0-2.949.734c-.683.789-.659 1.585 1.241 2.839a21.739 21.739 0 0 0 5.145 2.815c.3.086 1.953.718 1.953.718z" transform="translate(-227.505 -194.586)"/>
    <path id="路径_84" data-name="路径 84" class="cls-13" d="M358.621 296.368a11.428 11.428 0 0 1-1.271-.4 14.453 14.453 0 0 1-1.228-.512 11.456 11.456 0 0 1-1.173-.632 6.184 6.184 0 0 1-1.066-.8c.769.443 1.557.817 2.353 1.192s1.596.743 2.385 1.152z" transform="translate(-229.484 -194.925)"/>
    <path id="路径_85" data-name="路径 85" class="cls-13" d="M356.711 298.2a11.041 11.041 0 0 1-1.409-.371 12.616 12.616 0 0 1-1.359-.53 8.409 8.409 0 0 1-1.279-.714 3.444 3.444 0 0 1-1.048-1.017 4.975 4.975 0 0 0 1.158.842c.418.231.843.45 1.281.645.871.405 1.764.761 2.656 1.145z" transform="translate(-228.328 -195.715)"/>
    <path id="路径_86" data-name="路径 86" class="cls-13" d="M355.535 300.459a8.043 8.043 0 0 1-1.185-.292 10.7 10.7 0 0 1-1.141-.435 7.354 7.354 0 0 1-2.049-1.321c.359.194.71.387 1.07.565s.722.349 1.089.511z" transform="translate(-228.095 -197.167)"/>
    <path id="路径_87" data-name="路径 87" class="cls-10" d="m345.368 238.6-3.769-1.787a3.188 3.188 0 0 1-1.307-1.134 12.089 12.089 0 0 0-2.169-2.673c-.648-.456-.516-.9.286-.895.472.005 1.3.419 2.761 1.843l-.364-1.669a1.828 1.828 0 0 0-.884-1.193l-1.934-1.109a.547.547 0 0 1-.237-.7.586.586 0 0 1 .811-.27l3.631 1.935s2.374-1.48 4.077.528a13.978 13.978 0 0 1 2.33 5.584z" transform="translate(-221.236 -161.64)"/>
    <path id="路径_88" data-name="路径 88" class="cls-13" d="M348.228 234a4.092 4.092 0 0 1-.729-.42 6.221 6.221 0 0 1-.646-.536 2.438 2.438 0 0 1 .757.38 3.114 3.114 0 0 1 .618.576z" transform="translate(-225.896 -163.717)"/>
    <path id="路径_89" data-name="路径 89" class="cls-13" d="M350.026 233.14a8.209 8.209 0 0 1-.646-.514 4.44 4.44 0 0 0-.307-.26 1.606 1.606 0 0 0-.339-.223.74.74 0 0 1 .418.1 2.144 2.144 0 0 1 .353.239 2.2 2.2 0 0 1 .521.658z" transform="translate(-226.856 -163.258)"/>
    <path id="路径_90" data-name="路径 90" class="cls-13" d="M352.8 233.106c-.1-.193-.153-.382-.251-.544a.912.912 0 0 0-.382-.413.46.46 0 0 1 .324.07.776.776 0 0 1 .226.253.926.926 0 0 1 .083.634z" transform="translate(-228.606 -163.259)"/>
    <path id="路径_91" data-name="路径 91" class="cls-10" d="M399.655 195.953a9.193 9.193 0 0 0-4.13.534 7.059 7.059 0 0 0-3.876 3.271 10.114 10.114 0 0 0-.53 3.689 25.809 25.809 0 0 0-.422 3.528 11.922 11.922 0 0 0 .767 3.443c.641 1.732.334 2.748.627 3.064 1.18 1.273 4.512.078 4.648 1.8.084 1.066-.751 1.3-.617 2.549.173 1.615 5.532.485 7.091-.4.212-.12 2.133-1.463 1.823-3.341-.165-1-1.287-5.693-1.232-6.308.2-2.221 1.339-2.543 2.115-5.251a4.046 4.046 0 0 0-.909-3.967 8.924 8.924 0 0 0-5.355-2.611z" transform="translate(-248.262 -144.75)"/>
    <ellipse id="椭圆_12" data-name="椭圆 12" class="cls-14" cx=".465" cy=".558" rx=".465" ry=".558" transform="rotate(-3.283 1118.458 -2463.905)"/>
    <ellipse id="椭圆_13" data-name="椭圆 13" class="cls-14" cx=".465" cy=".558" rx=".465" ry=".558" transform="rotate(-3.283 1117.2 -2537.001)"/>
    <path id="路径_92" data-name="路径 92" class="cls-15" d="M390.4 211.944a.288.288 0 0 1-.181-.513 3.134 3.134 0 0 1 3.462-.171.288.288 0 0 1-.283.5 2.59 2.59 0 0 0-2.818.118.288.288 0 0 1-.18.066z" transform="translate(-247.959 -152.348)"/>
    <path id="路径_93" data-name="路径 93" class="cls-15" d="M399.247 211.537a.288.288 0 0 1-.181-.513 3.133 3.133 0 0 1 3.462-.171.288.288 0 1 1-.283.5 2.6 2.6 0 0 0-2.818.118.288.288 0 0 1-.18.066z" transform="translate(-252.471 -152.14)"/>
    <path id="路径_94" data-name="路径 94" class="cls-13" d="M396.7 213a2.159 2.159 0 0 1-.055 1.43 4.969 4.969 0 0 1-.662 1.291c-.146.2-.353.348-.314.542a.839.839 0 0 0 .359.515 1.9 1.9 0 0 0 1.344.214 1.749 1.749 0 0 1-1.427-.091.927.927 0 0 1-.45-.617.521.521 0 0 1 .113-.4l.222-.282a5.413 5.413 0 0 0 .678-1.229A2.439 2.439 0 0 0 396.7 213z" transform="translate(-250.7 -153.471)"/>
    <path id="路径_95" data-name="路径 95" class="cls-13" d="M413.486 212.668a1.23 1.23 0 0 1 .964.326 2.1 2.1 0 0 1 .339.393 1.824 1.824 0 0 1 .215.465 6.618 6.618 0 0 0-.68-.713 2.168 2.168 0 0 0-.387-.28 1.84 1.84 0 0 0-.451-.191z" transform="translate(-259.879 -153.291)"/>
    <path id="路径_96" data-name="路径 96" class="cls-13" d="M414.235 215.264A1.6 1.6 0 0 1 414 214.2a1.777 1.777 0 0 1 .159-.531 1.494 1.494 0 0 1 .324-.44c-.066.171-.141.328-.186.5a2.25 2.25 0 0 0-.106.5 3.283 3.283 0 0 0 .041 1.037z" transform="translate(-260.135 -153.585)"/>
    <path id="路径_97" data-name="路径 97" class="cls-15" d="M395.033 213.642a6.778 6.778 0 0 0 5.033-2.693c.835-1.24.717-3.665.56-5.071a4.221 4.221 0 0 1 .211-1.869c.291-.83.643-1.96 1.466-2.072.606-.082.844-.249 1.091.308.409.921-.17 1.985-.573 2.726-.577 1.06-1.1 1.31-1.073 2.024.019.545 1.685 1.575 1.98 1.348.6-.462.2-1.745 1.742-4.913.976-2 1.451-2.389 1.515-3.613a4.028 4.028 0 0 0-1.052-3.224c-.542-.459-.83-.3-3.129-1.115a19.006 19.006 0 0 1-1.873-.731c-1.842-.863-1.826-1.351-2.891-1.591-.962-.216-1 .177-2.816.157-1.752-.019-1.926-.387-2.722-.128a3.885 3.885 0 0 0-2.147 2.322 4.519 4.519 0 0 0-.433 2.2 4.135 4.135 0 0 0 .957 2.078c.239.213 1.1-1.119 1.578-1.627s1.04-.329 1.807-.319c.747.01.729.46 1.85.8.4.122 1.939-.63 2.488.186.585.87 1.011.959.8 1.8a6.072 6.072 0 0 0 .257 2.431 20.389 20.389 0 0 1-.425 4.15 1.18 1.18 0 0 1-1.539.581 21.359 21.359 0 0 0-2.632-.957 3.889 3.889 0 0 0-3.187.5c-.32.209-.647.442-.905.651a1.291 1.291 0 0 0-.48 1.147c.162 1.372.92 4.711 4.542 4.514zm-3.353-4.634c.1-.661 1.1-.962 1.674-1.134a2.462 2.462 0 0 1 1.42-.114c.113.028 1.136.315 1.266 1.093s-.748 1.365-.885 1.454a2.39 2.39 0 0 1-2.252.173c-.532-.235-1.323-.837-1.222-1.472z" transform="translate(-247.868 -143.305)"/>
    <path id="路径_98" data-name="路径 98" class="cls-14" d="M397.886 225.065a2.513 2.513 0 0 1-3.465.159" transform="translate(-250.157 -159.637)"/>
    <path id="路径_99" data-name="路径 99" class="cls-7" d="M356.3 235.329c4.4 1.775 11.043 9.868 11.043 9.868l7.567-7.009 1.7-4.093 6.8-1.789a2.4 2.4 0 0 0 1.815-2.675l-.008-.048 3.761 6.032a25.67 25.67 0 0 1 3.445 15.81l-1.31 23.015s-21.337 2.527-20.4 0l.17-4.062-2.323-.27-5.054-.993.655-6.137 5.241-.18 1.965-1.534.21-6.413-1.161.192a9.784 9.784 0 0 1-8.63-3.219l-9.322-12.04a6.4 6.4 0 0 1 3.837-4.453z" transform="translate(-228.783 -162.052)"/>
    <path id="路径_100" data-name="路径 100" class="cls-16" d="M412.388 236.451q-2.231 1.282-4.505 2.481c-.759.4-1.511.809-2.276 1.2l-2.288 1.172-.106.054-.045-.107c-.507-1.213-1.016-2.426-1.491-3.654.585 1.179 1.137 2.373 1.69 3.566l-.15-.053 2.271-1.2c.755-.4 1.523-.786 2.284-1.18q2.288-1.183 4.616-2.279z" transform="translate(-253.863 -165.47)"/>
    <path id="路径_101" data-name="路径 101" class="cls-16" d="M390.49 270.447a16.779 16.779 0 0 1 2.241-.735q1.14-.3 2.293-.56 2.3-.514 4.628-.929l-.048.059-.371-9.195a29.23 29.23 0 0 1 .1-4.608 11.294 11.294 0 0 1 1.3-4.422 5.209 5.209 0 0 1 1.583-1.7 4.535 4.535 0 0 1 2.211-.729 5.4 5.4 0 0 1 4.248 1.639 5.663 5.663 0 0 1 .723.926 6.269 6.269 0 0 1 .5 1.057 17.341 17.341 0 0 1 .69 2.21 27.853 27.853 0 0 1 .691 4.564 51.173 51.173 0 0 1-.253 9.206 83.362 83.362 0 0 1-.636 4.562 5.277 5.277 0 0 1-2.562 3.729 6.146 6.146 0 0 1-1.055.486l-1.078.4c-.72.266-1.445.518-2.173.763a59.916 59.916 0 0 1-4.415 1.308 41.7 41.7 0 0 1-4.515.9 21.242 21.242 0 0 1-4.591.184 21.219 21.219 0 0 0 4.583-.241 41.625 41.625 0 0 0 4.494-.952q2.22-.594 4.4-1.335c.725-.248 1.447-.5 2.165-.771l1.074-.408a5.989 5.989 0 0 0 1.029-.479 5.1 5.1 0 0 0 2.464-3.618 83.2 83.2 0 0 0 .615-4.553 50.941 50.941 0 0 0 .213-9.166 27.606 27.606 0 0 0-.7-4.52 17.1 17.1 0 0 0-.671-2.181 5.245 5.245 0 0 0-1.166-1.905 5.162 5.162 0 0 0-4.058-1.585 4.316 4.316 0 0 0-2.11.685 5 5 0 0 0-1.524 1.63 11.109 11.109 0 0 0-1.291 4.339 29.052 29.052 0 0 0-.118 4.581l.322 9.2v.051l-.05.008q-2.325.388-4.635.871-1.154.243-2.3.531a16.772 16.772 0 0 0-2.247.703z" transform="translate(-247.919 -171.246)"/>
    <path id="路径_102" data-name="路径 102" class="cls-16" d="m394.755 247.124-.762 2c-.263.665-.527 1.327-.75 2a26.641 26.641 0 0 0-1.05 4.131q-.187 1.05-.288 2.113c-.068.707-.093 1.422-.15 2.134-.1 1.426-.2 2.851-.333 4.275.023-1.43.075-2.858.132-4.286a30.6 30.6 0 0 1 .381-4.281 24.6 24.6 0 0 1 1.119-4.153c.505-1.337 1.116-2.628 1.701-3.933z" transform="translate(-248.628 -170.957)"/>
    <path id="路径_103" data-name="路径 103" class="cls-16" d="M381.924 261.411a17.132 17.132 0 0 0-.518 2.505 11.7 11.7 0 0 0-.094 1.267 12.41 12.41 0 0 0 .05 1.282 5.816 5.816 0 0 1-.216-2.582 7.455 7.455 0 0 1 .275-1.275 6.021 6.021 0 0 1 .5-1.2z" transform="translate(-243.356 -178.242)"/>
    <path id="路径_104" data-name="路径 104" class="cls-16" d="M414.275 293.353a17.346 17.346 0 0 0-2.08-2.093 11.038 11.038 0 0 0-1.185-.86 9.037 9.037 0 0 0-1.321-.657 5.06 5.06 0 0 1 1.419.481 6.956 6.956 0 0 1 1.254.834 8.585 8.585 0 0 1 1.062 1.063 7.255 7.255 0 0 1 .851 1.232z" transform="translate(-257.945 -192.736)"/>
    <path id="路径_105" data-name="路径 105" class="cls-16" d="M423.623 307.773a5.637 5.637 0 0 1-.681 1.392 5.839 5.839 0 0 1-1.024 1.18 4.434 4.434 0 0 1-1.346.806 3.8 3.8 0 0 1-1.534.232 5.391 5.391 0 0 0 1.457-.419 5.456 5.456 0 0 0 1.252-.818 8.043 8.043 0 0 0 1.032-1.1 10.368 10.368 0 0 0 .844-1.273z" transform="translate(-262.713 -201.962)"/>
    <path id="路径_106" data-name="路径 106" class="cls-16" d="M421.8 313.66a3.8 3.8 0 0 1-.975 1.143 5.407 5.407 0 0 1-1.3.781 6.121 6.121 0 0 1-1.463.39c-.249.043-.5.042-.751.064-.251 0-.5-.013-.75-.031.5-.065.987-.12 1.466-.231a8.938 8.938 0 0 0 1.4-.433 7.384 7.384 0 0 0 1.28-.7 5.56 5.56 0 0 0 1.1-.983z" transform="translate(-261.448 -204.971)"/>
    <path id="路径_107" data-name="路径 107" class="cls-16" d="M386.982 297.286c.093.492.157.987.217 1.481s.105.991.148 1.487.072.993.087 1.492.032 1 .016 1.5c-.093-.492-.158-.987-.218-1.481s-.105-.991-.147-1.487-.071-.993-.086-1.492-.032-.999-.017-1.5z" transform="translate(-246.358 -196.602)"/>
    <path id="路径_108" data-name="路径 108" class="cls-16" d="M361.116 244.4c-.316.424-.653.828-.993 1.23s-.691.793-1.045 1.183-.716.77-1.09 1.141-.746.743-1.142 1.094c.315-.424.653-.829.993-1.23s.691-.793 1.045-1.182.716-.77 1.09-1.141.747-.749 1.142-1.095z" transform="translate(-230.995 -169.534)"/>
    <path id="矩形_90" data-name="矩形 90" class="cls-17" transform="translate(120.788 84.072)" d="M0 0h.192v5.584H0z"/>
    <path id="矩形_91" data-name="矩形 91" class="cls-17" transform="rotate(-22.598 307.357 -275.775)" d="M0 0h6.59v.192H0z"/>
    <path id="矩形_92" data-name="矩形 92" class="cls-17" transform="rotate(-67.027 133.102 -49.448)" d="M0 0h6.066v.191H0z"/>
    <path id="路径_109" data-name="路径 109" class="cls-11" d="M369.911 318.6a17.928 17.928 0 0 1-3.152 11.07 11.756 11.756 0 0 1-9.719 4.94l-18.466-.053c-3.129.141-5.792.111-6.708 3l-11.9 37.53-9.115-1.082 7.432-41.247a10.2 10.2 0 0 1 9.255-9.467l21.735-3.922.338-3.094z" transform="translate(-207.57 -206.622)"/>
    <path id="路径_110" data-name="路径 110" class="cls-18" d="m389.168 319.857-.1-.165 4.439-2.625.1.165z" transform="translate(-247.429 -206.716)"/>
    <path id="路径_111" data-name="路径 111" class="cls-18" d="M346.7 367.428q.265-2.552.566-5.1a11.408 11.408 0 0 1 1.556-4.88 7.871 7.871 0 0 1 3.81-3.377 4.924 4.924 0 0 1 1.259-.311 7.963 7.963 0 0 1 1.289.032 6.3 6.3 0 0 0 2.538-.113 6.341 6.341 0 0 1-2.544.2 8.141 8.141 0 0 0-1.272-.005 4.8 4.8 0 0 0-1.217.327 7.813 7.813 0 0 0-3.7 3.34 11.441 11.441 0 0 0-1.571 4.8q-.336 2.549-.714 5.087z" transform="translate(-225.825 -225.489)"/>
    <path id="矩形_93" data-name="矩形 93" class="cls-6" transform="translate(188.779 112.301)" d="M0 0h4.237v67.208H0z"/>
    <rect id="矩形_94" data-name="矩形 94" class="cls-6" width="127.326" height="3.25" rx="1.489" transform="translate(73.847 109.363)"/>
    <path id="矩形_95" data-name="矩形 95" class="cls-6" transform="translate(82.378 112.301)" d="M0 0h4.237v67.208H0z"/>
    <path id="路径_112" data-name="路径 112" class="cls-5" d="M261.231 321.669h117.476v9.168a1.461 1.461 0 0 1-1.461 1.461H262.692a1.461 1.461 0 0 1-1.461-1.461v-9.168z" transform="translate(-182.312 -209.094)"/>
    <circle id="椭圆_14" data-name="椭圆 14" class="cls-7" cx="13.753" cy="13.753" r="13.753" transform="translate(170.174 6.041)"/>
    <path id="路径_113" data-name="路径 113" class="cls-19" d="M460.843 130.9a14 14 0 1 1 14-14 14 14 0 0 1-14 14zm0-27.505A13.507 13.507 0 1 0 474.35 116.9a13.507 13.507 0 0 0-13.507-13.507z" transform="translate(-276.916 -97.104)"/>
    <path id="路径_114" data-name="路径 114" class="cls-19" d="M475.124 124.215a.245.245 0 0 1-.245-.245v-8.87a.245.245 0 0 1 .491 0v8.868a.245.245 0 0 1-.245.246z" transform="translate(-291.189 -103.195)"/>
    <path id="路径_115" data-name="路径 115" class="cls-19" d="M481.123 132.372a.245.245 0 0 1-.11-.026l-9.2-4.615a.246.246 0 1 1 .22-.439l9.2 4.615a.245.245 0 0 1-.11.465z" transform="translate(-289.563 -109.517)"/>
    <path id="路径_116" data-name="路径 116" class="cls-20" d="M184.282 397.331a57.356 57.356 0 0 1-.792-8.183 60.335 60.335 0 0 1 .324-8.226 43.9 43.9 0 0 1 1.682-8.06 35.594 35.594 0 0 1 1.5-3.836 29.3 29.3 0 0 1 2.054-3.562 30.857 30.857 0 0 0-3.323 7.471c-.378 1.312-.718 2.635-.983 3.975s-.464 2.691-.618 4.049a64.515 64.515 0 0 0-.4 8.185q.019 2.051.158 4.1a58.37 58.37 0 0 0 .398 4.087z" transform="translate(-142.52 -231.678)"/>
    <path id="路径_117" data-name="路径 117" class="cls-18" d="M161.641 372.385s-14.414 1.815-20.687-4.37c-4.655-4.59-.227-12.49 6.152-11.063 4.271.956 9.54 4.748 14.535 15.433z" transform="translate(-119.879 -227.084)"/>
    <path id="路径_118" data-name="路径 118" class="cls-20" d="M163.117 375.09c-2.023-.616-4.015-1.337-5.975-2.135s-3.881-1.691-5.763-2.67q-1.4-.744-2.756-1.586a27.715 27.715 0 0 1-2.618-1.81 19.546 19.546 0 0 1-2.355-2.142 9.477 9.477 0 0 1-1.731-2.654 9.4 9.4 0 0 0 1.843 2.548 19.619 19.619 0 0 0 2.389 2.054 40.3 40.3 0 0 0 5.374 3.31c1.857 1 3.776 1.88 5.71 2.726q1.451.633 2.924 1.218c.979.399 1.963.784 2.958 1.141z" transform="translate(-121.355 -229.791)"/>
    <path id="路径_119" data-name="路径 119" class="cls-20" d="m152.31 365.122.014-2.126c0-.707 0-1.413-.04-2.116a18.521 18.521 0 0 0-.187-2.1l-.1-.515c-.035-.171-.1-.334-.14-.5a3.711 3.711 0 0 0-.19-.487 4.253 4.253 0 0 0-.283-.445 3.581 3.581 0 0 1 .95 1.9 14.291 14.291 0 0 1 .264 2.13 24.16 24.16 0 0 1-.034 2.137 17.892 17.892 0 0 1-.254 2.122z" transform="translate(-126.177 -227.082)"/>
    <path id="路径_120" data-name="路径 120" class="cls-20" d="M139.441 372.057c.847-.147 1.683-.269 2.5-.457a7.506 7.506 0 0 0 1.185-.373 1.713 1.713 0 0 0 .926-.78 1.487 1.487 0 0 1-.814 1 4.835 4.835 0 0 1-1.226.461 7.788 7.788 0 0 1-2.571.149z" transform="translate(-120.092 -234.025)"/>
    <path id="路径_121" data-name="路径 121" class="cls-20" d="M144.753 378.554a24.01 24.01 0 0 0 3.346-.673 6.286 6.286 0 0 0 1.535-.659 2.194 2.194 0 0 0 1.021-1.272 1.988 1.988 0 0 1-.88 1.475 5.114 5.114 0 0 1-1.585.758 9.935 9.935 0 0 1-3.437.371z" transform="translate(-122.798 -236.845)"/>
    <path id="路径_122" data-name="路径 122" class="cls-20" d="M161.182 369.434q.36-1.056.662-2.121c.2-.712.388-1.424.515-2.148a12.742 12.742 0 0 0 .2-4.387 7.391 7.391 0 0 1 .337 2.212 13.224 13.224 0 0 1-.224 2.235 17.5 17.5 0 0 1-.594 2.161 13.78 13.78 0 0 1-.896 2.048z" transform="translate(-131.168 -229.101)"/>
    <path id="路径_123" data-name="路径 123" class="cls-20" d="M156.785 383.718c.46-.121.9-.271 1.34-.432a7.478 7.478 0 0 0 1.247-.592 4.583 4.583 0 0 0 1.054-.855 3.717 3.717 0 0 0 .658-1.209 2.675 2.675 0 0 1-.464 1.36 3.737 3.737 0 0 1-1.086.974 5.211 5.211 0 0 1-1.334.555 5.369 5.369 0 0 1-1.415.2z" transform="translate(-128.928 -239.24)"/>
    <path id="路径_124" data-name="路径 124" class="cls-20" d="M171.041 367.392a7.015 7.015 0 0 1 .678 1.885 8.1 8.1 0 0 1 .158 2.012 6.567 6.567 0 0 1-.423 1.977 5.933 5.933 0 0 1-1.022 1.724 8.993 8.993 0 0 0 .792-1.8 7.19 7.19 0 0 0 .337-1.916 9.258 9.258 0 0 0-.081-1.952 11.851 11.851 0 0 0-.439-1.93z" transform="translate(-135.88 -232.483)"/>
    <path id="路径_125" data-name="路径 125" class="cls-20" d="M169.773 386.814c.524-.263 1.039-.488 1.533-.752a6.1 6.1 0 0 0 1.383-.955 2.6 2.6 0 0 1-1.235 1.234 4.028 4.028 0 0 1-1.681.473z" transform="translate(-135.544 -241.525)"/>
    <path id="路径_126" data-name="路径 126" class="cls-20" d="M179.074 377.306a7.057 7.057 0 0 1 .5 2.24 5.036 5.036 0 0 1-.056 1.16 2.229 2.229 0 0 1-.44 1.071 3.527 3.527 0 0 0 .194-1.1 9.8 9.8 0 0 0-.015-1.114c-.042-.746-.132-1.491-.183-2.257z" transform="translate(-140.283 -237.545)"/>
    <path id="路径_127" data-name="路径 127" class="cls-21" d="M172.581 363.135s-11.23-9.216-11.054-18.024c.131-6.536 8.911-8.754 12.262-3.141 2.244 3.758 3.111 10.193-1.208 21.165z" transform="translate(-131.343 -217.896)"/>
    <path id="路径_128" data-name="路径 128" class="cls-11" d="M177.864 363.176a61.635 61.635 0 0 1-2.622-5.783q-1.17-2.955-2.047-6.02-.423-1.535-.738-3.1a26.4 26.4 0 0 1-.475-3.154 19.566 19.566 0 0 1-.04-3.193 9.123 9.123 0 0 1 .78-3.079 9.786 9.786 0 0 0-.54 3.094 19.6 19.6 0 0 0 .176 3.138 41.118 41.118 0 0 0 1.31 6.162c.544 2.034 1.225 4.031 1.926 6.02q.526 1.492 1.1 2.967c.374.99.772 1.972 1.17 2.948z" transform="translate(-136.626 -217.937)"/>
    <path id="路径_129" data-name="路径 129" class="cls-11" d="M172.938 348.475c1-1.025 2.022-1.99 3-3 .488-.5.958-1.019 1.4-1.557a8.978 8.978 0 0 0 .594-.851 3.69 3.69 0 0 0 .239-.461 4.928 4.928 0 0 0 .15-.505 3.445 3.445 0 0 1-.672 2.039 11.956 11.956 0 0 1-1.359 1.676 16.466 16.466 0 0 1-3.352 2.659z" transform="translate(-137.157 -219.538)"/>
    <path id="路径_130" data-name="路径 130" class="cls-11" d="M163.428 345.052c.738.464 1.406.971 2.1 1.428a9.184 9.184 0 0 0 1.061.613 1.823 1.823 0 0 0 1.181.2 1.442 1.442 0 0 1-1.308.161 4.468 4.468 0 0 1-1.2-.564 6.4 6.4 0 0 1-1.834-1.838z" transform="translate(-132.312 -221.034)"/>
    <path id="路径_131" data-name="路径 131" class="cls-11" d="M161.616 354.086c.954.658 1.861 1.337 2.833 1.891a6.791 6.791 0 0 0 1.5.671 2.283 2.283 0 0 0 1.612-.067 1.939 1.939 0 0 1-1.69.442 4.908 4.908 0 0 1-1.67-.62 8.6 8.6 0 0 1-1.416-1.032 7.738 7.738 0 0 1-1.169-1.285z" transform="translate(-131.389 -225.658)"/>
    <path id="路径_132" data-name="路径 132" class="cls-11" d="M174.973 358.918c.667-.338 1.316-.691 1.965-1.041s1.283-.718 1.9-1.114a20.818 20.818 0 0 0 1.784-1.267 13.288 13.288 0 0 0 1.583-1.533 6.751 6.751 0 0 1-1.328 1.818 11.377 11.377 0 0 1-1.777 1.4 13.428 13.428 0 0 1-4.127 1.737z" transform="translate(-138.193 -225.601)"/>
    <path id="路径_133" data-name="路径 133" class="cls-11" d="M165.776 366.718c.429.219.847.425 1.268.616a8.645 8.645 0 0 0 1.279.473 4.988 4.988 0 0 0 1.315.193 4.249 4.249 0 0 0 1.337-.285 2.479 2.479 0 0 1-1.3.667 3.6 3.6 0 0 1-1.484-.1 4.85 4.85 0 0 1-1.329-.611 4.536 4.536 0 0 1-1.085-.95z" transform="translate(-133.508 -232.117)"/>
    <path id="路径_134" data-name="路径 134" class="cls-11" d="M184.032 364.093a6.927 6.927 0 0 1-2.2 3.354 7.692 7.692 0 0 1-.831.6c-.147.088-.3.161-.454.241a2.587 2.587 0 0 1-.469.206 5.428 5.428 0 0 1-1.983.38 10.566 10.566 0 0 0 1.826-.729 8.127 8.127 0 0 0 1.6-1.076 10.871 10.871 0 0 0 1.362-1.376 14.727 14.727 0 0 0 1.149-1.6z" transform="translate(-139.785 -230.785)"/>
    <path id="路径_135" data-name="路径 135" class="cls-11" d="M173.5 377.29c.587.141 1.1.341 1.628.513a10.292 10.292 0 0 0 1.617.43 1.788 1.788 0 0 1-.884.2 3.106 3.106 0 0 1-.888-.16 3.689 3.689 0 0 1-.8-.388 2.665 2.665 0 0 1-.673-.595z" transform="translate(-137.444 -237.524)"/>
    <path id="路径_136" data-name="路径 136" class="cls-11" d="M184.717 376.285a4.665 4.665 0 0 1-.512 1.043 6.243 6.243 0 0 1-.711.917 4.5 4.5 0 0 1-.9.752 2.034 2.034 0 0 1-1.121.363 4.369 4.369 0 0 0 .89-.669c.266-.25.527-.509.776-.782.512-.535 1-1.099 1.578-1.624z" transform="translate(-141.504 -237.017)"/>
    <path id="路径_137" data-name="路径 137" class="cls-21" d="M160.775 402.254s-14.518.522-20.215-6.2c-4.227-4.987.888-12.46 7.115-10.47 4.169 1.335 9.077 5.587 13.1 16.67z" transform="translate(-119.874 -241.761)"/>
    <path id="路径_138" data-name="路径 138" class="cls-11" d="M162.653 404.5a61.613 61.613 0 0 1-5.792-2.6 65.806 65.806 0 0 1-5.518-3.159q-1.333-.871-2.6-1.835a26.409 26.409 0 0 1-2.443-2.05 19.569 19.569 0 0 1-2.143-2.367 9.124 9.124 0 0 1-1.453-2.824 9.787 9.787 0 0 0 1.643 2.676 19.6 19.6 0 0 0 2.208 2.236 41.11 41.11 0 0 0 5.06 3.753c1.754 1.165 3.586 2.211 5.428 3.238q1.382.771 2.791 1.494c.926.495 1.872.964 2.819 1.438z" transform="translate(-121.752 -244.005)"/>
    <path id="路径_139" data-name="路径 139" class="cls-11" d="M152.779 393.606c.069-1.428.2-2.83.266-4.232.032-.7.044-1.4.019-2.094a8.984 8.984 0 0 0-.118-1.031 3.681 3.681 0 0 0-.126-.5 4.951 4.951 0 0 0-.221-.478 3.445 3.445 0 0 1 .846 1.974 11.962 11.962 0 0 1 .09 2.156 16.466 16.466 0 0 1-.755 4.209z" transform="translate(-126.795 -241.633)"/>
    <path id="路径_140" data-name="路径 140" class="cls-11" d="M139.193 399.792c.861-.14 1.7-.2 2.518-.319a9.191 9.191 0 0 0 1.2-.243 1.823 1.823 0 0 0 1.018-.632 1.443 1.443 0 0 1-.874.986 4.468 4.468 0 0 1-1.276.373 6.4 6.4 0 0 1-2.586-.165z" transform="translate(-119.966 -248.558)"/>
    <path id="路径_141" data-name="路径 141" class="cls-11" d="M143.812 406.857c1.151-.138 2.281-.229 3.375-.457a6.788 6.788 0 0 0 1.572-.493 2.283 2.283 0 0 0 1.164-1.117 1.939 1.939 0 0 1-.975 1.449 4.907 4.907 0 0 1-1.662.64 8.6 8.6 0 0 1-1.744.163 7.731 7.731 0 0 1-1.73-.185z" transform="translate(-122.319 -251.712)"/>
    <path id="路径_142" data-name="路径 142" class="cls-11" d="M160.429 398.819c.276-.694.529-1.39.784-2.08s.487-1.387.685-2.091a20.861 20.861 0 0 0 .5-2.131 13.3 13.3 0 0 0 .173-2.2 6.752 6.752 0 0 1 .207 2.242 11.379 11.379 0 0 1-.408 2.223 13.425 13.425 0 0 1-1.941 4.037z" transform="translate(-130.784 -244.34)"/>
    <path id="路径_143" data-name="路径 143" class="cls-11" d="M155.291 412.925c.466-.12.916-.242 1.358-.377a8.644 8.644 0 0 0 1.272-.491 4.989 4.989 0 0 0 1.114-.725 4.247 4.247 0 0 0 .813-1.1 2.478 2.478 0 0 1-.533 1.36 3.594 3.594 0 0 1-1.18.905 4.85 4.85 0 0 1-1.4.422 4.54 4.54 0 0 1-1.444.006z" transform="translate(-128.167 -254.485)"/>
    <path id="路径_144" data-name="路径 144" class="cls-11" d="M170.528 397.593a6.926 6.926 0 0 1 .571 3.969 7.659 7.659 0 0 1-.225 1c-.052.163-.121.321-.18.481a2.575 2.575 0 0 1-.215.465 5.427 5.427 0 0 1-1.236 1.6 10.559 10.559 0 0 0 .886-1.755 8.127 8.127 0 0 0 .484-1.862 10.868 10.868 0 0 0 .11-1.933 14.731 14.731 0 0 0-.195-1.965z" transform="translate(-135.275 -248.046)"/>
    <path id="路径_145" data-name="路径 145" class="cls-11" d="M168.079 417.039c.533-.283 1.053-.474 1.56-.693a10.3 10.3 0 0 0 1.5-.748 1.789 1.789 0 0 1-.534.732 3.111 3.111 0 0 1-.772.468 3.694 3.694 0 0 1-.858.239 2.661 2.661 0 0 1-.896.002z" transform="translate(-134.681 -257.218)"/>
    <path id="路径_146" data-name="路径 146" class="cls-11" d="M177.935 408.129a4.658 4.658 0 0 1 .306 1.12 6.253 6.253 0 0 1 .074 1.158 4.509 4.509 0 0 1-.179 1.161 2.034 2.034 0 0 1-.6 1.014 4.367 4.367 0 0 0 .225-1.09c.034-.364.059-.73.064-1.1.031-.741.024-1.487.11-2.263z" transform="translate(-139.499 -253.413)"/>
    <path id="路径_147" data-name="路径 147" class="cls-18" d="M185.122 373.506s14.49 1.051 20.427-5.457c4.406-4.829-.433-12.484-6.728-10.722-4.214 1.18-9.275 5.25-13.699 16.179z" transform="translate(-143.417 -227.233)"/>
    <path id="路径_148" data-name="路径 148" class="cls-20" d="M185.122 375.934c.975-.409 1.937-.846 2.893-1.3s1.911-.9 2.856-1.37c1.886-.947 3.756-1.928 5.558-3.024a40.308 40.308 0 0 0 5.192-3.589 19.617 19.617 0 0 0 2.277-2.178 9.4 9.4 0 0 0 1.706-2.642 9.477 9.477 0 0 1-1.588 2.742 19.552 19.552 0 0 1-2.238 2.263 27.743 27.743 0 0 1-2.518 1.945q-1.3.911-2.669 1.729-2.737 1.618-5.614 2.971a67.725 67.725 0 0 1-5.855 2.453z" transform="translate(-143.417 -229.664)"/>
    <path id="路径_149" data-name="路径 149" class="cls-20" d="M215.62 365.409a17.879 17.879 0 0 1-.368-2.1 24.07 24.07 0 0 1-.146-2.133 14.27 14.27 0 0 1 .151-2.141 3.58 3.58 0 0 1 .848-1.951 4.243 4.243 0 0 0-.259.459 3.7 3.7 0 0 0-.164.5c-.036.172-.088.337-.113.51l-.071.52a18.524 18.524 0 0 0-.076 2.1c0 .7.038 1.409.072 2.115z" transform="translate(-158.704 -227.21)"/>
    <path id="路径_150" data-name="路径 150" class="cls-20" d="M225.092 371.908a7.791 7.791 0 0 1-2.576-.013 4.834 4.834 0 0 1-1.249-.4 1.486 1.486 0 0 1-.865-.956 1.713 1.713 0 0 0 .966.73 7.518 7.518 0 0 0 1.2.31c.832.149 1.67.221 2.524.329z" transform="translate(-161.406 -234.073)"/>
    <path id="路径_151" data-name="路径 151" class="cls-20" d="M218.791 378.748a9.933 9.933 0 0 1-3.452-.188 5.114 5.114 0 0 1-1.622-.674 1.988 1.988 0 0 1-.957-1.426 2.194 2.194 0 0 0 1.087 1.217 6.283 6.283 0 0 0 1.568.577 24 24 0 0 0 3.376.494z" transform="translate(-157.509 -237.104)"/>
    <path id="路径_152" data-name="路径 152" class="cls-20" d="M206.36 370.258a13.792 13.792 0 0 1-1-2 17.49 17.49 0 0 1-.707-2.126 13.232 13.232 0 0 1-.342-2.22 7.388 7.388 0 0 1 .219-2.227 12.738 12.738 0 0 0 .429 4.371c.166.717.4 1.418.628 2.118s.495 1.395.773 2.084z" transform="translate(-153.194 -229.567)"/>
    <path id="路径_153" data-name="路径 153" class="cls-20" d="M208.713 384.451a5.372 5.372 0 0 1-1.424-.124 5.212 5.212 0 0 1-1.361-.484 3.735 3.735 0 0 1-1.136-.915 2.676 2.676 0 0 1-.535-1.334 3.72 3.72 0 0 0 .721 1.172 4.59 4.59 0 0 0 1.1.8 7.485 7.485 0 0 0 1.276.526c.446.136.894.263 1.359.359z" transform="translate(-153.173 -239.733)"/>
    <path id="路径_154" data-name="路径 154" class="cls-20" d="M196.746 368.7a11.852 11.852 0 0 0-.337 1.948 9.26 9.26 0 0 0 .022 1.954 7.191 7.191 0 0 0 .438 1.9 8.992 8.992 0 0 0 .886 1.759 5.931 5.931 0 0 1-1.112-1.668 6.567 6.567 0 0 1-.526-1.952 8.1 8.1 0 0 1 .052-2.018 7.016 7.016 0 0 1 .577-1.923z" transform="translate(-148.945 -233.151)"/>
    <path id="路径_155" data-name="路径 155" class="cls-20" d="M197.341 388.153a4.029 4.029 0 0 1-1.7-.384 2.6 2.6 0 0 1-1.3-1.167 6.107 6.107 0 0 0 1.432.881c.505.238 1.027.435 1.568.67z" transform="translate(-148.113 -242.446)"/>
    <path id="路径_156" data-name="路径 156" class="cls-20" d="M190.182 378.99c-.011.768-.061 1.517-.06 2.265a9.806 9.806 0 0 0 .044 1.113 3.536 3.536 0 0 0 .252 1.087 2.23 2.23 0 0 1-.5-1.046 5.036 5.036 0 0 1-.117-1.155 7.061 7.061 0 0 1 .381-2.264z" transform="translate(-145.749 -238.406)"/>
    <path id="路径_157" data-name="路径 157" class="cls-11" d="M184 402.5s14.49 1.051 20.427-5.456c4.406-4.829-.433-12.484-6.728-10.722-4.216 1.178-9.276 5.249-13.699 16.178z" transform="translate(-142.844 -242.172)"/>
    <path id="路径_158" data-name="路径 158" class="cls-18" d="M184 404.928c.964-.437 1.926-.871 2.876-1.335s1.9-.913 2.844-1.391c1.878-.959 3.747-1.938 5.542-3.038a41.116 41.116 0 0 0 5.193-3.566 19.6 19.6 0 0 0 2.288-2.154 9.786 9.786 0 0 0 1.739-2.615 9.125 9.125 0 0 1-1.555 2.77 19.564 19.564 0 0 1-2.228 2.287 26.4 26.4 0 0 1-2.517 1.96q-1.3.916-2.669 1.739a66.002 66.002 0 0 1-5.63 2.956 61.606 61.606 0 0 1-5.883 2.387z" transform="translate(-142.844 -244.6)"/>
    <path id="路径_159" data-name="路径 159" class="cls-18" d="M214.4 394.4a16.467 16.467 0 0 1-.6-4.234 11.945 11.945 0 0 1 .169-2.151 3.445 3.445 0 0 1 .917-1.941 4.917 4.917 0 0 0-.239.47 3.663 3.663 0 0 0-.144.5 8.98 8.98 0 0 0-.155 1.026c-.05.694-.065 1.392-.058 2.093.019 1.404.098 2.81.11 4.237z" transform="translate(-158.04 -242.178)"/>
    <path id="路径_160" data-name="路径 160" class="cls-18" d="M223.969 400.9a6.4 6.4 0 0 1-2.592.072 4.472 4.472 0 0 1-1.261-.42 1.442 1.442 0 0 1-.837-1.018 1.823 1.823 0 0 0 .994.668 9.186 9.186 0 0 0 1.191.286c.816.15 1.649.242 2.505.412z" transform="translate(-160.833 -249.036)"/>
    <path id="路径_161" data-name="路径 161" class="cls-18" d="M217.668 407.741a7.736 7.736 0 0 1-1.736.123 8.6 8.6 0 0 1-1.737-.227 4.906 4.906 0 0 1-1.637-.7 1.939 1.939 0 0 1-.921-1.484 2.283 2.283 0 0 0 1.123 1.159 6.79 6.79 0 0 0 1.553.55c1.087.267 2.21.399 3.355.579z" transform="translate(-156.936 -252.05)"/>
    <path id="路径_162" data-name="路径 162" class="cls-18" d="M205.171 399.252a13.427 13.427 0 0 1-1.792-4.1 11.38 11.38 0 0 1-.327-2.236 6.754 6.754 0 0 1 .289-2.233 13.291 13.291 0 0 0 .092 2.2 20.842 20.842 0 0 0 .421 2.148c.173.711.389 1.412.608 2.115s.458 1.403.709 2.106z" transform="translate(-152.554 -244.524)"/>
    <path id="路径_163" data-name="路径 163" class="cls-18" d="M207.589 413.445a4.537 4.537 0 0 1-1.441-.058 4.847 4.847 0 0 1-1.384-.472 3.6 3.6 0 0 1-1.147-.948 2.479 2.479 0 0 1-.483-1.378 4.249 4.249 0 0 0 .773 1.128 4.987 4.987 0 0 0 1.087.765 8.63 8.63 0 0 0 1.253.537c.435.152.881.29 1.342.426z" transform="translate(-152.599 -254.666)"/>
    <path id="路径_164" data-name="路径 164" class="cls-18" d="M195.527 397.692a14.715 14.715 0 0 0-.268 1.956 10.869 10.869 0 0 0 .039 1.936 8.123 8.123 0 0 0 .416 1.879 10.562 10.562 0 0 0 .822 1.786 5.427 5.427 0 0 1-1.176-1.642 2.587 2.587 0 0 1-.2-.472c-.054-.162-.117-.323-.163-.487a7.691 7.691 0 0 1-.188-1.009 6.927 6.927 0 0 1 .718-3.947z" transform="translate(-148.277 -248.096)"/>
    <path id="路径_165" data-name="路径 165" class="cls-18" d="M196.217 417.147a2.664 2.664 0 0 1-.892-.035 3.7 3.7 0 0 1-.849-.27 3.107 3.107 0 0 1-.754-.5 1.79 1.79 0 0 1-.507-.751 10.286 10.286 0 0 0 1.468.8c.499.244 1.011.454 1.534.756z" transform="translate(-147.486 -257.217)"/>
    <path id="路径_166" data-name="路径 166" class="cls-18" d="M188.968 407.984c.058.779.023 1.524.027 2.265-.008.37 0 .737.024 1.1a4.375 4.375 0 0 0 .185 1.1 2.035 2.035 0 0 1-.563-1.035 4.512 4.512 0 0 1-.137-1.167 6.252 6.252 0 0 1 .117-1.155 4.665 4.665 0 0 1 .347-1.108z" transform="translate(-145.087 -253.339)"/>
    <path id="路径_167" data-name="路径 167" class="cls-11" d="M192.318 342.349s-4.017-13.961 1.126-21.113c3.817-5.307 12.305-2.151 11.879 4.372-.285 4.367-3.223 10.157-13.005 16.741z" transform="translate(-146.324 -207.545)"/>
    <path id="路径_168" data-name="路径 168" class="cls-18" d="M193.869 343.226a61.611 61.611 0 0 1 1.123-6.249 65.895 65.895 0 0 1 1.731-6.119q.523-1.5 1.151-2.97a26.39 26.39 0 0 1 1.4-2.867 19.558 19.558 0 0 1 1.778-2.652 9.124 9.124 0 0 1 2.389-2.093 9.783 9.783 0 0 0-2.2 2.241 19.612 19.612 0 0 0-1.641 2.683 41.133 41.133 0 0 0-2.418 5.817c-.707 1.983-1.279 4.014-1.83 6.05q-.414 1.527-.775 3.07c-.253 1.025-.477 2.056-.708 3.089z" transform="translate(-147.875 -208.424)"/>
    <path id="路径_169" data-name="路径 169" class="cls-18" d="M203.633 331.011c1.4-.278 2.794-.491 4.17-.766.687-.138 1.367-.3 2.036-.488a8.981 8.981 0 0 0 .972-.364 3.668 3.668 0 0 0 .458-.244 4.945 4.945 0 0 0 .41-.33 3.446 3.446 0 0 1-1.711 1.3 11.963 11.963 0 0 1-2.07.609 16.471 16.471 0 0 1-4.265.283z" transform="translate(-152.855 -212.727)"/>
    <path id="路径_170" data-name="路径 170" class="cls-18" d="M201.5 319.624c.344.8.606 1.6.918 2.367a9.186 9.186 0 0 0 .526 1.106 1.823 1.823 0 0 0 .859.835 1.442 1.442 0 0 1-1.168-.61 4.468 4.468 0 0 1-.671-1.147 6.4 6.4 0 0 1-.464-2.551z" transform="translate(-151.763 -208.028)"/>
    <path id="路径_171" data-name="路径 171" class="cls-18" d="M194.881 326.034c.412 1.084.774 2.157 1.259 3.164a6.793 6.793 0 0 0 .86 1.402 2.283 2.283 0 0 0 1.365.86 1.939 1.939 0 0 1-1.642-.6 4.907 4.907 0 0 1-1.023-1.458 8.6 8.6 0 0 1-.58-1.653 7.737 7.737 0 0 1-.239-1.715z" transform="translate(-148.39 -211.312)"/>
    <path id="路径_172" data-name="路径 172" class="cls-18" d="M200.217 341.829c.741.1 1.476.178 2.208.258s1.464.137 2.195.159a20.832 20.832 0 0 0 2.188-.031 13.28 13.28 0 0 0 2.174-.364 6.754 6.754 0 0 1-2.125.743 11.378 11.378 0 0 1-2.255.141 13.429 13.429 0 0 1-4.385-.906z" transform="translate(-151.113 -219.38)"/>
    <path id="路径_173" data-name="路径 173" class="cls-18" d="M191.138 338.8c.229.423.456.831.694 1.226a8.638 8.638 0 0 0 .784 1.115 4.991 4.991 0 0 0 .973.905 4.247 4.247 0 0 0 1.263.524 2.479 2.479 0 0 1-1.448-.189 3.6 3.6 0 0 1-1.164-.926 4.851 4.851 0 0 1-.748-1.257 4.543 4.543 0 0 1-.354-1.4z" transform="translate(-146.428 -217.837)"/>
    <path id="路径_174" data-name="路径 174" class="cls-18" d="M204.841 350.492a6.926 6.926 0 0 1-3.713 1.514 7.69 7.69 0 0 1-1.026.024c-.171-.011-.341-.039-.51-.059a2.575 2.575 0 0 1-.5-.1 5.429 5.429 0 0 1-1.849-.812 10.568 10.568 0 0 0 1.917.436 8.122 8.122 0 0 0 1.924.02 10.864 10.864 0 0 0 1.9-.361 14.722 14.722 0 0 0 1.857-.662z" transform="translate(-149.593 -223.814)"/>
    <path id="路径_175" data-name="路径 175" class="cls-18" d="M191.5 351.885c.4.449.714.907 1.05 1.346a10.287 10.287 0 0 0 1.087 1.271 1.788 1.788 0 0 1-.839-.341 3.107 3.107 0 0 1-.641-.636 3.7 3.7 0 0 1-.439-.775 2.662 2.662 0 0 1-.218-.865z" transform="translate(-146.612 -224.53)"/>
    <path id="路径_176" data-name="路径 176" class="cls-18" d="M199.494 359.334a4.658 4.658 0 0 1-1.013.568 6.257 6.257 0 0 1-1.106.352 4.509 4.509 0 0 1-1.17.107 2.034 2.034 0 0 1-1.129-.337 4.374 4.374 0 0 0 1.113-.045c.361-.055.722-.12 1.083-.2.728-.153 1.447-.341 2.222-.445z" transform="translate(-148.49 -228.337)"/>
    <path id="路径_177" data-name="路径 177" class="cls-22" d="M164.163 421.9v2.623a.909.909 0 0 0 .9.918h18.03a.909.909 0 0 0 .9-.918v-2.413a.909.909 0 0 0-.89-.918l-18.03-.206a.909.909 0 0 0-.91.918z" transform="translate(-132.686 -259.963)"/>
    <path id="路径_178" data-name="路径 178" class="cls-23" d="m165.918 430.075.641 13.537h16.4l1.065-13.537z" transform="translate(-133.581 -264.593)"/>
    <path id="路径_179" data-name="路径 179" class="cls-6" d="M523.563 218.419v116.724h26.389V218.419a1.266 1.266 0 0 0-1.266-1.266h-23.857a1.266 1.266 0 0 0-1.266 1.266z" transform="translate(-316.061 -156.124)"/>
    <rect id="矩形_96" data-name="矩形 96" class="cls-23" width="23.476" height="17.436" rx="2.581" transform="translate(208.959 82.665)"/>
    <rect id="矩形_97" data-name="矩形 97" class="cls-23" width="23.476" height="17.436" rx="2.581" transform="translate(208.959 63.426)"/>
    <path id="路径_180" data-name="路径 180" class="cls-22" d="M570.2 252.056a.782.782 0 1 1-1.105 1.105 4.686 4.686 0 0 0 .275-.441 1 1 0 0 1 .16-.23c.118-.12.27-.155.67-.434z" transform="translate(-339.255 -173.448)"/>
    <path id="路径_181" data-name="路径 181" class="cls-22" d="M569.094 223.02a.782.782 0 1 1 1.105 1.105 4.657 4.657 0 0 0-.441-.275 1 1 0 0 1-.23-.16c-.12-.118-.155-.272-.434-.67z" transform="translate(-339.255 -158.462)"/>
    <path id="路径_182" data-name="路径 182" class="cls-22" d="M529.31 224.125a.782.782 0 1 1 1.105-1.105 4.684 4.684 0 0 0-.275.441 1 1 0 0 1-.16.23c-.118.12-.272.156-.67.434z" transform="translate(-318.86 -158.462)"/>
    <path id="路径_183" data-name="路径 183" class="cls-22" d="M530.415 253.162a.782.782 0 1 1-1.105-1.105 4.668 4.668 0 0 0 .441.275 1 1 0 0 1 .23.16c.119.118.156.272.434.67z" transform="translate(-318.86 -173.448)"/>
    <path id="路径_184" data-name="路径 184" class="cls-22" d="M570.2 291.471a.782.782 0 1 1-1.105 1.105 4.7 4.7 0 0 0 .275-.44 1 1 0 0 1 .16-.23c.118-.121.27-.156.67-.435z" transform="translate(-339.255 -193.615)"/>
    <path id="路径_185" data-name="路径 185" class="cls-22" d="M569.094 262.435a.782.782 0 1 1 1.105 1.105 4.677 4.677 0 0 0-.441-.275.992.992 0 0 1-.23-.16c-.12-.118-.155-.272-.434-.67z" transform="translate(-339.255 -178.629)"/>
    <path id="路径_186" data-name="路径 186" class="cls-22" d="M529.31 263.54a.782.782 0 1 1 1.105-1.105 4.689 4.689 0 0 0-.275.44 1 1 0 0 1-.16.23c-.118.121-.272.157-.67.435z" transform="translate(-318.86 -178.629)"/>
    <path id="路径_187" data-name="路径 187" class="cls-22" d="M530.415 292.577a.782.782 0 1 1-1.105-1.105 4.656 4.656 0 0 0 .441.275.993.993 0 0 1 .23.16c.119.118.156.272.434.67z" transform="translate(-318.86 -193.615)"/>
    <rect id="矩形_98" data-name="矩形 98" class="cls-23" width="23.476" height="17.436" rx="2.581" transform="translate(208.959 101.904)"/>
    <rect id="矩形_99" data-name="矩形 99" class="cls-23" width="23.476" height="17.436" rx="2.581" transform="translate(208.959 121.143)"/>
    <rect id="矩形_100" data-name="矩形 100" class="cls-23" width="23.476" height="17.436" rx="2.581" transform="translate(208.959 140.271)"/>
    <rect id="矩形_101" data-name="矩形 101" class="cls-23" width="23.476" height="17.436" rx="2.581" transform="translate(208.959 159.607)"/>
    <rect id="矩形_102" data-name="矩形 102" class="cls-22" width="7.218" height="2.659" rx="1" transform="translate(217.088 69.767)"/>
    <rect id="矩形_103" data-name="矩形 103" class="cls-22" width="7.218" height="2.659" rx="1" transform="translate(217.088 108.261)"/>
    <rect id="矩形_104" data-name="矩形 104" class="cls-22" width="7.218" height="2.659" rx="1" transform="translate(217.088 127.509)"/>
    <rect id="矩形_105" data-name="矩形 105" class="cls-22" width="7.218" height="2.659" rx="1" transform="translate(217.088 165.951)"/>
    <rect id="矩形_106" data-name="矩形 106" class="cls-22" width="7.218" height="2.659" rx="1" transform="translate(217.088 146.615)"/>
    <rect id="矩形_107" data-name="矩形 107" class="cls-22" width="7.218" height="2.659" rx="1" transform="translate(217.088 89.014)"/>
    <path id="路径_188" data-name="路径 188" class="cls-22" d="M570.2 330.886a.782.782 0 1 1-1.105 1.105 4.686 4.686 0 0 0 .275-.44.994.994 0 0 1 .16-.23c.118-.121.27-.156.67-.435z" transform="translate(-339.255 -213.782)"/>
    <path id="路径_189" data-name="路径 189" class="cls-22" d="M569.094 301.85a.782.782 0 1 1 1.105 1.105 4.664 4.664 0 0 0-.441-.275 1 1 0 0 1-.23-.16c-.12-.12-.155-.272-.434-.67z" transform="translate(-339.255 -198.796)"/>
    <path id="路径_190" data-name="路径 190" class="cls-22" d="M529.31 302.955a.782.782 0 1 1 1.105-1.105 4.662 4.662 0 0 0-.275.441 1 1 0 0 1-.159.23c-.119.12-.273.156-.671.434z" transform="translate(-318.86 -198.796)"/>
    <path id="路径_191" data-name="路径 191" class="cls-22" d="M530.415 331.991a.782.782 0 1 1-1.105-1.105 4.69 4.69 0 0 0 .44.275.991.991 0 0 1 .23.16c.12.119.157.272.435.67z" transform="translate(-318.86 -213.782)"/>
    <path id="路径_192" data-name="路径 192" class="cls-22" d="M570.2 370.3a.782.782 0 1 1-1.105 1.105 4.674 4.674 0 0 0 .275-.441 1 1 0 0 1 .16-.23c.118-.119.27-.154.67-.434z" transform="translate(-339.255 -233.949)"/>
    <path id="路径_193" data-name="路径 193" class="cls-22" d="M569.094 341.265a.782.782 0 1 1 1.105 1.105 4.657 4.657 0 0 0-.441-.275.993.993 0 0 1-.23-.16c-.12-.118-.155-.272-.434-.67z" transform="translate(-339.255 -218.964)"/>
    <path id="路径_194" data-name="路径 194" class="cls-22" d="M529.31 342.37a.782.782 0 1 1 1.105-1.105 4.669 4.669 0 0 0-.275.44 1 1 0 0 1-.159.23c-.119.121-.273.157-.671.435z" transform="translate(-318.86 -218.963)"/>
    <path id="路径_195" data-name="路径 195" class="cls-22" d="M530.415 371.406a.782.782 0 1 1-1.105-1.105 4.668 4.668 0 0 0 .441.275 1 1 0 0 1 .23.16c.119.119.156.272.434.67z" transform="translate(-318.86 -233.949)"/>
    <path id="路径_196" data-name="路径 196" class="cls-22" d="M570.2 449.131a.782.782 0 1 1-1.105 1.105 4.727 4.727 0 0 0 .275-.44.994.994 0 0 1 .16-.23c.118-.121.27-.156.67-.435z" transform="translate(-339.255 -274.301)"/>
    <path id="路径_197" data-name="路径 197" class="cls-22" d="M569.094 420.094a.782.782 0 1 1 1.106 1.106 4.7 4.7 0 0 0-.441-.275 1 1 0 0 1-.23-.16c-.121-.119-.156-.273-.435-.671z" transform="translate(-339.255 -259.38)"/>
    <path id="路径_198" data-name="路径 198" class="cls-22" d="M529.31 421.2a.782.782 0 1 1 1.105-1.105 4.688 4.688 0 0 0-.275.441 1 1 0 0 1-.159.23c-.119.12-.273.156-.671.434z" transform="translate(-318.86 -259.38)"/>
    <path id="路径_199" data-name="路径 199" class="cls-22" d="M530.415 450.236a.782.782 0 1 1-1.105-1.105 4.682 4.682 0 0 0 .44.275.994.994 0 0 1 .23.16c.12.118.156.272.435.67z" transform="translate(-318.86 -274.3)"/>
    <path id="路径_200" data-name="路径 200" class="cls-22" d="M570.2 409.716a.782.782 0 1 1-1.105 1.105 4.711 4.711 0 0 0 .275-.441 1 1 0 0 1 .16-.23c.118-.12.27-.155.67-.434z" transform="translate(-339.255 -254.221)"/>
    <path id="路径_201" data-name="路径 201" class="cls-22" d="M569.094 380.68a.782.782 0 1 1 1.105 1.105 4.659 4.659 0 0 0-.441-.275.993.993 0 0 1-.23-.16c-.12-.119-.155-.272-.434-.67z" transform="translate(-339.255 -239.131)"/>
    <path id="路径_202" data-name="路径 202" class="cls-22" d="M529.31 381.785a.782.782 0 1 1 1.105-1.105 4.674 4.674 0 0 0-.275.441 1 1 0 0 1-.159.23c-.119.12-.273.156-.671.434z" transform="translate(-318.86 -239.131)"/>
    <path id="路径_203" data-name="路径 203" class="cls-22" d="M530.415 410.821a.782.782 0 1 1-1.105-1.105 4.673 4.673 0 0 0 .441.275.99.99 0 0 1 .23.16c.119.118.156.272.434.67z" transform="translate(-318.86 -254.221)"/>
    <path id="路径_204" data-name="路径 204" class="cls-12" d="M362.634 444.452a3.242 3.242 0 0 1-.507-4.874l5.572-6.943a.763.763 0 0 1 .846-.209l3.967 1.718a.765.765 0 0 0 .877-.246l2.314-2.978a.692.692 0 0 1 1.149.012l2.349 5.009a.639.639 0 0 1-.372.817l-16.19 7.7z" transform="translate(-233.256 -264.87)"/>
    <path id="路径_205" data-name="路径 205" class="cls-12" d="M285.714 443.561c-.9-1.807.138-3.762 2.348-4.443l9.3-2.865a.906.906 0 0 1 .921.287l2.755 3.65a.909.909 0 0 0 .972.272l3.916-1.271c.531-.173 1.136.187 1.08.642l-.684 5.572a.691.691 0 0 1-.826.493l-19.777-2.331z" transform="translate(-194.559 -267.724)"/>
    <path id="矩形_108" data-name="矩形 108" class="cls-6" transform="translate(0 179.019)" d="M0 0h245v.981H0z"/>
</svg>
