<svg xmlns="http://www.w3.org/2000/svg" width="29" height="29" viewBox="0 0 29 29">
    <g data-name="椭圆 207" style="stroke:#ffa975;fill:#2e4565;stroke-width:1.5px">
        <circle cx="14.5" cy="14.5" r="14.5" style="stroke:none"/>
        <circle cx="14.5" cy="14.5" r="13.75" style="fill:none"/>
    </g>
    <g data-name="Layer 3">
        <g data-name="person">
            <path data-name="路径 2307" d="M10.5 8.778a3.024 3.024 0 0 0 3.143-2.889A3.024 3.024 0 0 0 10.5 3a3.024 3.024 0 0 0-3.143 2.889A3.024 3.024 0 0 0 10.5 8.778zM15.214 16a.756.756 0 0 0 .786-.722 5.292 5.292 0 0 0-5.5-5.056A5.292 5.292 0 0 0 5 15.278a.756.756 0 0 0 .786.722z" transform="translate(4 5)" style="fill:#ffa975"/>
        </g>
    </g>
</svg>
