<svg data-name="日曆 動態按鈕_hover" xmlns="http://www.w3.org/2000/svg" width="25" height="24" viewBox="0 0 25 24">
    <path d="M241.667 36.2H240v-.8a2.5 2.5 0 0 0-5 0v.8h-1.667v-.8a2.5 2.5 0 0 0-5 0v.8h-1.25a2.128 2.128 0 0 0-1.473.586A1.96 1.96 0 0 0 225 38.2V55a1.96 1.96 0 0 0 .61 1.414 2.128 2.128 0 0 0 1.473.586h20.833a2.128 2.128 0 0 0 1.473-.586A1.96 1.96 0 0 0 250 55V38.2a1.96 1.96 0 0 0-.61-1.414 2.128 2.128 0 0 0-1.473-.586h-1.25v-.8a2.5 2.5 0 0 0-5 0zm6.25 1.6h-4.583v.8a.817.817 0 0 0 .833.8.8.8 0 1 1 0 1.6 2.451 2.451 0 0 1-2.5-2.4v-.8h-5v.8a.817.817 0 0 0 .833.8.8.8 0 1 1 0 1.6 2.451 2.451 0 0 1-2.5-2.4v-.8h-5v.8a.817.817 0 0 0 .833.8.8.8 0 1 1 0 1.6 2.451 2.451 0 0 1-2.5-2.4v-.8h-1.25a.429.429 0 0 0-.3.117.4.4 0 0 0-.122.283V55a.4.4 0 0 0 .122.283.429.429 0 0 0 .3.117h20.833a.429.429 0 0 0 .295-.117.4.4 0 0 0 .122-.283V38.2a.4.4 0 0 0-.122-.283.429.429 0 0 0-.294-.117zm-17.084 12.8a.8.8 0 1 1-.833.8.817.817 0 0 1 .833-.8zm3.333 0a.8.8 0 1 1-.833.8.817.817 0 0 1 .834-.8zm3.333 0a.8.8 0 1 1-.833.8.817.817 0 0 1 .834-.8zm3.333 0a.8.8 0 1 1-.833.8.817.817 0 0 1 .834-.8zm-10-3.2a.8.8 0 1 1-.833.8.817.817 0 0 1 .834-.8zm3.333 0a.8.8 0 1 1-.833.8.817.817 0 0 1 .835-.8zm3.333 0a.8.8 0 1 1-.833.8.817.817 0 0 1 .835-.8zm3.333 0a.8.8 0 1 1-.833.8.817.817 0 0 1 .835-.8zm3.333 0a.8.8 0 1 1-.833.8.817.817 0 0 1 .836-.8zm-10-3.2a.8.8 0 1 1-.833.8.817.817 0 0 1 .836-.8zm3.333 0a.8.8 0 1 1-.833.8.817.817 0 0 1 .836-.8zm3.333 0a.8.8 0 1 1-.83.8.817.817 0 0 1 .833-.8zm3.333 0a.8.8 0 1 1-.833.8.817.817 0 0 1 .837-.8zm-12.5-8v-.8a.834.834 0 0 0-1.667 0v.8zm6.667 0v-.8a.834.834 0 0 0-1.667 0v.8zm6.667 0v-.8a.834.834 0 0 0-1.667 0v.8z" transform="translate(-225 -33)" style="fill-rule:evenodd;fill:#2e4565"/>
    <path data-name="矩形 452" transform="translate(1 4)" style="fill:#2e4565" d="M0 0h23v19H0z"/>
</svg>
