<svg xmlns="http://www.w3.org/2000/svg" width="25" height="20" viewBox="0 0 25 20">
    <path d="M5.5 4a1.489 1.489 0 0 0-1.489 1.5 1.524 1.524 0 0 0 1.651 1.358h21.776a1.5 1.5 0 0 0 1.571-1.428A1.505 1.505 0 0 0 27.438 4H5.5zm0 8.57a1.489 1.489 0 0 0-1.491 1.5 1.524 1.524 0 0 0 1.651 1.356h21.778A1.5 1.5 0 0 0 29.009 14a1.505 1.505 0 0 0-1.571-1.428H5.662q-.08-.005-.162-.001zm0 8.57a1.489 1.489 0 0 0-1.491 1.5A1.524 1.524 0 0 0 5.662 24h21.776a1.435 1.435 0 1 0 0-2.857H5.662q-.08-.006-.162-.002z" transform="translate(-4.009 -3.999)" style="fill:#2e4565;fill-rule:evenodd"/>
</svg>
