<svg data-name="search 動態按鈕_hover" xmlns="http://www.w3.org/2000/svg" width="23.928" height="24.99" viewBox="0 0 23.928 24.99">
    <g data-name="路径 1" style="fill:#2e4565">
        <path d="M13.715 13.5a.14.14 0 0 1-.098-.038l-2.137-2.078-.31-.3-.342.26c-.788.6-1.775.93-2.78.93h-.005c-2.505 0-4.543-1.968-4.543-4.387C3.5 5.468 5.538 3.5 8.043 3.5c2.504 0 4.542 1.968 4.542 4.387a4.264 4.264 0 0 1-.954 2.68l-.288.355.33.318 2.142 2.071a.103.103 0 0 1 .034.075.102.102 0 0 1-.033.073.143.143 0 0 1-.1.041zM3.761 7.887c0 2.297 1.92 4.166 4.282 4.166 2.36 0 4.281-1.869 4.281-4.166 0-2.297-1.92-4.165-4.281-4.165-2.362 0-4.282 1.868-4.282 4.165z" style="stroke:none" transform="translate(9.579 -3)"/>
        <path d="M13.715 14a.64.64 0 0 1-.447-.18l-2.137-2.078a5.093 5.093 0 0 1-3.088 1.033C5.258 12.775 3 10.587 3 7.887 3 5.188 5.258 3 8.043 3c2.784 0 5.042 2.188 5.042 4.887a4.744 4.744 0 0 1-1.065 2.994l2.143 2.07a.602.602 0 0 1 0 .868.64.64 0 0 1-.448.181zM4.261 7.887c0 2.025 1.693 3.666 3.782 3.666 2.088 0 3.781-1.641 3.781-3.666 0-2.024-1.693-3.665-3.781-3.665-2.09 0-3.782 1.64-3.782 3.665z" style="fill:#2e4565;stroke:none" transform="translate(9.579 -3)"/>
    </g>
    <g data-name="减去 3" style="stroke-linecap:round;stroke-linejoin:round;fill:#2e4565">
        <path d="M18 21.5H4C2.07 21.5.5 19.93.5 18V4C.5 2.07 2.07.5 4 .5h4.12a8.876 8.876 0 0 0-.26 2.14c0 4.885 3.975 8.86 8.86 8.86.703 0 1.402-.083 2.08-.246l2.7 2.699V18c0 1.93-1.57 3.5-3.5 3.5z" style="stroke:none" transform="translate(0 2.989)"/>
        <path d="M18 21c1.654 0 3-1.346 3-3v-3.84l-2.358-2.358A9.405 9.405 0 0 1 16.72 12c-5.161 0-9.36-4.2-9.36-9.36 0-.553.048-1.101.143-1.64H4C2.346 1 1 2.346 1 4v14c0 1.654 1.346 3 3 3h14m0 1H4c-2.206 0-4-1.794-4-4V4c0-2.205 1.794-4 4-4h4.785a8.348 8.348 0 0 0-.425 2.64c0 4.61 3.75 8.36 8.36 8.36.757 0 1.508-.102 2.232-.302L22 13.746V18c0 2.206-1.795 4-4 4z" style="fill:#2e4565;stroke:none" transform="translate(0 2.989)"/>
    </g>
</svg>
