<svg data-name="download icon" xmlns="http://www.w3.org/2000/svg" width="65" height="33" viewBox="0 0 65 33">
    <g data-name="矩形 13" style="stroke:#4f5ab8;fill:none">
        <rect width="65" height="33" rx="16.5" style="stroke:none"/>
        <rect x=".5" y=".5" width="64" height="32" rx="16" style="fill:none"/>
    </g>
    <path data-name="矩形 551" style="fill:none" d="M0 0h23.75v20.75H0z" transform="translate(20.625 6)"/>
    <path data-name="路径 2295" d="m76.02 25.4.006.006a.448.448 0 0 0 .04.036l.024.018.026.019.029.017.025.015.029.014.027.013.029.01.03.011.029.007.032.008.034.005h.182l.034-.005.032-.008.029-.007.03-.011.029-.01.027-.013.029-.014.025-.015.029-.017.026-.019.024-.018a.72.72 0 0 0 .041-.037l.006-.005 3.833-3.833a.639.639 0 0 0-.9-.9L77.111 23.4v-6.761a.639.639 0 1 0-1.278 0V23.4l-2.743-2.741a.639.639 0 1 0-.9.9z" transform="translate(-44.163 -8.417)" style="fill:#4f5ab8"/>
    <path data-name="路径 2296" d="M35.4 120h-5.044l-2.329 1.994a2.512 2.512 0 0 1-3.165 0L22.533 120h-5.041A1.4 1.4 0 0 0 16 121.278v5.111a1.4 1.4 0 0 0 1.492 1.278H35.4a1.4 1.4 0 0 0 1.492-1.278v-5.111A1.4 1.4 0 0 0 35.4 120zm-3.357 4.791a.97.97 0 1 1 1.119-.958 1.048 1.048 0 0 1-1.122.958z" transform="translate(5.903 -104.111)" style="fill:#4f5ab8"/>
</svg>
